<?xml version="1.0" encoding="utf-8"?>
<!-- Generator: Adobe Illustrator 23.1.1, SVG Export Plug-In . SVG Version: 6.00 Build 0)  -->
<svg version="1.1" id="Layer_1" xmlns="http://www.w3.org/2000/svg" xmlns:xlink="http://www.w3.org/1999/xlink" x="0px" y="0px"
	 viewBox="0 0 174.552 59.71" enable-background="new 0 0 174.552 59.71" xml:space="preserve">
<path d="M90.776,2.571h2.266L99.07,17.99h-2.269l-1.686-4.644h-6.521l-1.727,4.644h-2.116L90.776,2.571z M89.241,11.619h5.227
	l-2.571-7.192h-0.042L89.241,11.619z"/>
<g>
	<path d="M108.98,17.99h-1.73v-1.771h-0.041c-0.779,1.383-2.03,2.03-3.629,2.03c-2.937,0-3.844-1.684-3.844-4.081V6.825h1.836v7.558
		c0,1.361,0.863,2.247,2.267,2.247c2.224,0,3.305-1.491,3.305-3.499V6.825h1.836V17.99z"/>
	<path d="M112.326,14.47c0.064,1.642,1.489,2.16,3.001,2.16c1.144,0,2.699-0.26,2.699-1.663c0-1.426-1.814-1.663-3.65-2.074
		c-1.813-0.41-3.65-1.014-3.65-3.153c0-2.246,2.224-3.175,4.168-3.175c2.463,0,4.428,0.778,4.579,3.499h-1.835
		c-0.131-1.425-1.384-1.878-2.593-1.878c-1.102,0-2.376,0.302-2.376,1.425c0,1.317,1.945,1.533,3.65,1.944
		c1.836,0.409,3.651,1.014,3.651,3.174c0,2.657-2.483,3.52-4.751,3.52c-2.506,0-4.623-1.015-4.73-3.779H112.326z"/>
	<path d="M124.113,6.825h2.225v1.62h-2.225v6.933c0,0.841,0.238,0.992,1.383,0.992h0.842v1.62h-1.403
		c-1.901,0-2.656-0.388-2.656-2.441V8.445h-1.901v-1.62h1.901V3.477h1.834V6.825z"/>
	<path d="M128.193,6.825h1.73v2.354h0.041c0.887-1.793,2.117-2.678,4.105-2.613V8.51c-2.96,0-4.04,1.684-4.04,4.514v4.966h-1.836
		V6.825z"/>
	<path d="M144.909,17.948c-0.325,0.194-0.735,0.302-1.317,0.302c-0.952,0-1.555-0.518-1.555-1.728
		c-1.016,1.188-2.378,1.728-3.933,1.728c-2.028,0-3.691-0.907-3.691-3.132c0-2.527,1.879-3.067,3.778-3.433
		c2.032-0.389,3.758-0.259,3.758-1.642c0-1.598-1.318-1.857-2.482-1.857c-1.555,0-2.702,0.475-2.787,2.117h-1.836
		c0.108-2.765,2.246-3.737,4.73-3.737c2.008,0,4.19,0.454,4.19,3.067v5.745c0,0.863,0,1.252,0.584,1.252
		c0.151,0,0.322-0.022,0.561-0.108V17.948z M141.928,12.224c-0.713,0.518-2.095,0.539-3.326,0.755
		c-1.208,0.216-2.246,0.648-2.246,2.009c0,1.209,1.038,1.641,2.16,1.641c2.418,0,3.412-1.512,3.412-2.526V12.224z"/>
	<rect x="146.288" y="2.571" width="1.836" height="15.419"/>
	<path d="M151.944,4.816h-1.834V2.571h1.834V4.816z M150.11,6.825h1.834V17.99h-1.834V6.825z"/>
	<path d="M164.04,17.948c-0.326,0.194-0.736,0.302-1.32,0.302c-0.95,0-1.554-0.518-1.554-1.728
		c-1.015,1.188-2.376,1.728-3.931,1.728c-2.03,0-3.692-0.907-3.692-3.132c0-2.527,1.879-3.067,3.779-3.433
		c2.032-0.389,3.757-0.259,3.757-1.642c0-1.598-1.316-1.857-2.482-1.857c-1.556,0-2.701,0.475-2.786,2.117h-1.837
		c0.108-2.765,2.247-3.737,4.73-3.737c2.01,0,4.19,0.454,4.19,3.067v5.745c0,0.863,0,1.252,0.582,1.252
		c0.152,0,0.325-0.022,0.564-0.108V17.948z M161.059,12.224c-0.714,0.518-2.096,0.539-3.327,0.755
		c-1.207,0.216-2.246,0.648-2.246,2.009c0,1.209,1.039,1.641,2.16,1.641c2.418,0,3.413-1.512,3.413-2.526V12.224z"/>
	<path d="M165.31,6.825h1.727v1.77h0.044c0.777-1.382,2.03-2.029,3.628-2.029c2.938,0,3.843,1.684,3.843,4.082v7.342h-1.835v-7.558
		c0-1.361-0.862-2.246-2.265-2.246c-2.226,0-3.306,1.49-3.306,3.498v6.306h-1.836V6.825z"/>
	<polygon points="85.658,21.194 87.839,21.194 95.959,33.699 96.003,33.699 96.003,21.194 97.946,21.194 97.946,36.615 95.7,36.615 
		87.645,24.239 87.601,24.239 87.601,36.615 85.658,36.615 	"/>
	<path d="M110.318,36.571c-0.324,0.194-0.735,0.303-1.317,0.303c-0.951,0-1.554-0.519-1.554-1.729
		c-1.017,1.188-2.377,1.729-3.931,1.729c-2.031,0-3.694-0.908-3.694-3.132c0-2.527,1.879-3.067,3.78-3.433
		c2.031-0.39,3.757-0.26,3.757-1.642c0-1.599-1.316-1.858-2.483-1.858c-1.555,0-2.699,0.475-2.786,2.117h-1.836
		c0.109-2.764,2.246-3.736,4.731-3.736c2.008,0,4.188,0.453,4.188,3.066v5.745c0,0.865,0,1.252,0.585,1.252
		c0.15,0,0.323-0.021,0.56-0.108V36.571z M107.337,30.849c-0.711,0.517-2.094,0.539-3.324,0.754c-1.21,0.216-2.247,0.649-2.247,2.01
		c0,1.208,1.037,1.64,2.16,1.64c2.419,0,3.411-1.511,3.411-2.526V30.849z"/>
	<path d="M114.138,25.449h2.226v1.619h-2.226v6.933c0,0.842,0.238,0.994,1.383,0.994h0.843v1.62h-1.404
		c-1.901,0-2.657-0.389-2.657-2.441v-7.106h-1.9v-1.619h1.9v-3.347h1.835V25.449z"/>
	<path d="M119.902,23.44h-1.836v-2.246h1.836V23.44z M118.066,25.448h1.836v11.166h-1.836V25.448z"/>
	<path d="M126.705,25.19c3.541,0,5.42,2.57,5.42,5.852c0,3.261-1.879,5.832-5.42,5.832c-3.543,0-5.422-2.571-5.422-5.832
		C121.283,27.76,123.162,25.19,126.705,25.19 M126.705,35.254c1.921,0,3.477-1.512,3.477-4.212c0-2.721-1.556-4.232-3.477-4.232
		c-1.923,0-3.478,1.511-3.478,4.232C123.227,33.742,124.782,35.254,126.705,35.254"/>
	<path d="M133.743,25.449h1.729v1.771h0.042c0.778-1.382,2.032-2.03,3.628-2.03c2.938,0,3.845,1.685,3.845,4.082v7.343h-1.836
		v-7.559c0-1.361-0.863-2.246-2.267-2.246c-2.224,0-3.306,1.49-3.306,3.499v6.306h-1.835V25.449z"/>
	<path d="M154.668,36.571c-0.325,0.194-0.734,0.303-1.317,0.303c-0.952,0-1.556-0.519-1.556-1.729
		c-1.015,1.188-2.377,1.729-3.932,1.729c-2.028,0-3.691-0.908-3.691-3.132c0-2.527,1.878-3.067,3.78-3.433
		c2.03-0.39,3.757-0.26,3.757-1.642c0-1.599-1.319-1.858-2.483-1.858c-1.555,0-2.7,0.475-2.787,2.117h-1.835
		c0.107-2.764,2.246-3.736,4.729-3.736c2.009,0,4.19,0.453,4.19,3.066v5.745c0,0.865,0,1.252,0.584,1.252
		c0.15,0,0.323-0.021,0.561-0.108V36.571z M151.687,30.849c-0.713,0.517-2.094,0.539-3.324,0.754
		c-1.21,0.216-2.248,0.649-2.248,2.01c0,1.208,1.038,1.64,2.159,1.64c2.419,0,3.413-1.511,3.413-2.526V30.849z"/>
	<rect x="156.048" y="21.194" width="1.835" height="15.421"/>
	<path d="M97.989,49.666c0,3.888-2.223,5.939-6.068,5.939c-3.973,0-6.328-1.835-6.328-5.939v-9.848h2.052v9.848
		c0,2.722,1.556,4.212,4.276,4.212c2.592,0,4.016-1.49,4.016-4.212v-9.848h2.052V49.666z"/>
	<path d="M99.996,44.072h1.727v1.772h0.043c0.777-1.383,2.032-2.03,3.628-2.03c2.938,0,3.846,1.684,3.846,4.081v7.343h-1.838v-7.559
		c0-1.361-0.863-2.247-2.267-2.247c-2.223,0-3.304,1.491-3.304,3.499v6.307h-1.835V44.072z"/>
	<path d="M112.971,42.063h-1.834v-2.246h1.834V42.063z M111.137,44.072h1.834v11.166h-1.834V44.072z"/>
	<polygon points="120.423,55.238 118.458,55.238 114.311,44.072 116.363,44.072 119.493,53.38 119.536,53.38 122.582,44.072 
		124.505,44.072 	"/>
	<path d="M134.479,51.696c-0.496,2.462-2.265,3.801-4.773,3.801c-3.562,0-5.246-2.462-5.355-5.874c0-3.347,2.203-5.809,5.249-5.809
		c3.952,0,5.161,3.692,5.053,6.392h-8.359c-0.064,1.944,1.038,3.672,3.477,3.672c1.513,0,2.572-0.735,2.896-2.182H134.479z
		 M132.709,48.586c-0.086-1.749-1.403-3.154-3.218-3.154c-1.921,0-3.067,1.449-3.197,3.154H132.709z"/>
	<path d="M136.054,44.072h1.727v2.354h0.042c0.886-1.792,2.118-2.678,4.105-2.612v1.943c-2.959,0-4.039,1.685-4.039,4.514v4.967
		h-1.835V44.072z"/>
	<path d="M144.431,51.717c0.066,1.642,1.491,2.161,3.003,2.161c1.145,0,2.7-0.26,2.7-1.665c0-1.424-1.816-1.661-3.65-2.072
		c-1.814-0.41-3.651-1.014-3.651-3.153c0-2.247,2.226-3.174,4.168-3.174c2.464,0,4.429,0.777,4.579,3.499h-1.837
		c-0.129-1.426-1.38-1.881-2.59-1.881c-1.1,0-2.375,0.303-2.375,1.426c0,1.319,1.943,1.533,3.649,1.944
		c1.836,0.409,3.651,1.015,3.651,3.174c0,2.657-2.484,3.521-4.752,3.521c-2.505,0-4.621-1.014-4.729-3.78H144.431z"/>
	<path d="M155.184,42.063h-1.835v-2.246h1.835V42.063z M153.349,44.072h1.835v11.166h-1.835V44.072z"/>
	<path d="M160.151,44.072h2.224v1.621h-2.224v6.933c0,0.841,0.238,0.992,1.381,0.992h0.843v1.62h-1.403
		c-1.9,0-2.657-0.389-2.657-2.441v-7.104h-1.901v-1.621h1.901v-3.347h1.836V44.072z"/>
	<path d="M168.788,56.729c-0.844,2.181-1.6,2.981-3.24,2.981c-0.432,0-0.863-0.045-1.276-0.196v-1.685
		c0.348,0.109,0.716,0.26,1.082,0.26c0.755,0,1.165-0.367,1.512-1.014l0.756-1.902l-4.428-11.101h2.073l3.261,9.137h0.042
		l3.133-9.137h1.944L168.788,56.729z"/>
	<path d="M74.525,46.487c-0.024-0.026-2.47-2.434-4.56-3.438c-1-0.479-1.814-0.825-2.642-1.055c0.22-0.449,0.441-0.898,0.655-1.333
		c1.548-3.113,2.884-5.804,2.306-7.589c-0.028-0.087-0.073-0.176-0.111-0.266l0.004-0.003c-0.006-0.011-0.014-0.024-0.021-0.035
		c-0.229-0.509-0.611-1.053-1.062-1.485c-0.824-0.787-2.9-1.934-4.017-2.551l-0.345-0.191c-0.956-0.536-2.049-0.575-3.157-0.114
		c-2.048,0.852-3.696,3.17-4.053,4.448c-0.591,2.124,0.41,2.802,0.522,2.868l2.242,1.393l-2.487,5.909
		c-2.6,0.89-5.356,2.093-8.067,3.277c-3.743,1.635-7.28,3.182-10.193,3.832l-0.238,0.055c-0.3,0.069-0.641,0.15-1.14,0.214
		c-0.444,0.054-0.684,0.066-0.828,0.066h-0.021c-0.096,0.001-0.314-0.003-0.822-0.066c-0.499-0.064-0.84-0.145-1.14-0.215
		l-0.237-0.054c-2.914-0.65-6.451-2.197-10.194-3.832c-2.711-1.184-5.468-2.387-8.067-3.277l-2.486-5.908l2.241-1.394l0.064-0.048
		c0.048-0.044,1.159-1.099,0.441-2.867c-0.568-1.396-2.351-3.794-4.373-4.503c-0.993-0.348-1.942-0.276-2.821,0.216l-0.344,0.191
		c-1.117,0.617-3.194,1.764-4.017,2.551c-0.452,0.432-0.833,0.976-1.062,1.485c-0.007,0.011-0.015,0.024-0.022,0.035l0.005,0.003
		c-0.039,0.09-0.084,0.181-0.111,0.266c-0.579,1.785,0.757,4.475,2.305,7.589c0.216,0.433,0.436,0.884,0.656,1.333
		c-0.829,0.23-1.643,0.576-2.641,1.055c-2.092,1.004-4.538,3.412-4.561,3.438c-0.14,0.138-0.166,0.353-0.064,0.522
		c0.013,0.02,1.253,2.068,1.636,3.483c0.39,1.451,0.294,3.733,0.252,4.437c-0.015,0.089-0.018,0.173-0.014,0.255H1.934
		c0,0.005,0.001,0.01,0.001,0.016c0,0.004-0.001,0.008-0.001,0.013s0.003,0.008,0.004,0.012c0.025,0.89,0.804,1.762,2.103,2.34
		c0.861,0.383,1.921,0.626,2.996,0.626c1.322,0,2.666-0.367,3.692-1.288v0.001c0.001-0.001,0.005-0.004,0.005-0.006
		c0.001-0.001,0.002-0.001,0.003-0.001c0.006-0.005,0.012-0.01,0.022-0.021c0.234-0.21,2.561-2.271,6.05-4.059
		c0.338,0.156,0.681,0.32,1.035,0.497l0.164,0.079c1.354,0.644,6.133,2.864,10.763,4.436c4.363,1.483,7.497,1.666,8.364,1.686h0.381
		h0.01c0.857-0.02,3.991-0.203,8.353-1.686c4.631-1.572,9.409-3.792,10.763-4.436l0.165-0.079c0.353-0.177,0.697-0.341,1.035-0.497
		c3.489,1.788,5.817,3.851,6.049,4.059c0.011,0.011,0.017,0.016,0.023,0.021c0,0,0.002,0,0.002,0.001
		c0.001,0.002,0.004,0.005,0.006,0.006v-0.001c1.026,0.921,2.369,1.288,3.691,1.288c1.075,0,2.136-0.243,2.996-0.626
		c1.299-0.578,2.08-1.45,2.104-2.34c0.001-0.004,0.003-0.007,0.003-0.012V55.2c0-0.006,0.001-0.011,0.001-0.016h-0.002
		c0.004-0.082,0.001-0.166-0.014-0.255c-0.042-0.704-0.139-2.986,0.252-4.436c0.383-1.416,1.623-3.464,1.635-3.484
		C74.691,46.84,74.665,46.625,74.525,46.487 M58.343,33.104c0.31-1.112,1.851-3.18,3.56-3.892c0.869-0.361,1.682-0.338,2.414,0.072
		l0.348,0.193c0.9,0.497,2.661,1.471,3.557,2.182c-0.395-0.017-0.841,0.051-1.342,0.254c-2.415,0.977-4.565,3.737-4.565,5.228
		c0,0.099,0.013,0.18,0.02,0.268l-3.834-2.383C58.496,35.023,57.927,34.594,58.343,33.104 M63.533,38.153
		c-0.035-0.019-0.366-0.21-0.366-1.012c0-0.415,0.274-1.037,0.734-1.695l1.468,0.89c0.013,0.131,0.013,0.331-0.045,0.546
		c-0.159,0.568-0.756,1.353-1.55,1.325C63.705,38.204,63.577,38.174,63.533,38.153 M61.017,37.593l2.031,1.261
		c0,0,0.002,0.001,0.003,0.004l0.009,0.005c0.003,0.001,0.006,0.002,0.008,0.003c0.079,0.05,0.142,0.077,0.163,0.084
		c0.198,0.077,0.427,0.105,0.512,0.108c1.194,0.063,2.128-0.971,2.401-1.948c0.164-0.588,0.041-1.089,0.027-1.145L66.127,35.8
		l-1.696-1.029c0.728-0.836,1.707-1.638,2.769-2.069c1.396-0.568,2.048,0.233,2.202,0.465c0.023,0.056,0.054,0.116,0.072,0.169
		c0.472,1.454-0.794,4-2.258,6.946c-0.246,0.498-0.499,1.007-0.75,1.524c-0.587-0.102-1.207-0.156-1.933-0.156
		c-1.696,0-3.622,0.409-5.664,1.046L61.017,37.593z M9.985,29.477l0.348-0.193c0.667-0.373,1.362-0.423,2.125-0.156
		c1.838,0.645,3.424,2.937,3.865,4.021c0.447,1.099-0.089,1.768-0.209,1.898l-3.799,2.363c0.009-0.089,0.021-0.17,0.021-0.269
		c0-1.491-2.151-4.251-4.566-5.228c-0.5-0.203-0.947-0.271-1.342-0.254C7.323,30.95,9.086,29.974,9.985,29.477 M11.12,38.154
		c-0.04,0.02-0.174,0.05-0.243,0.053c-0.815,0.026-1.391-0.758-1.55-1.325c-0.059-0.215-0.058-0.415-0.046-0.546l1.469-0.89
		c0.459,0.658,0.733,1.28,0.733,1.695c0,0.708-0.256,0.939-0.331,0.993L11.12,38.154z M7.434,40.281
		c-1.464-2.946-2.729-5.491-2.257-6.945c0.017-0.053,0.048-0.112,0.072-0.169c0.153-0.231,0.805-1.03,2.202-0.465
		c1.062,0.431,2.041,1.233,2.769,2.069L8.524,35.8L8.48,35.965c-0.015,0.056-0.137,0.557,0.027,1.145
		c0.272,0.977,1.214,2.01,2.401,1.948c0.088-0.004,0.334-0.035,0.527-0.115c0.021-0.007,0.055-0.025,0.1-0.05
		c0.012-0.006,0.026-0.011,0.036-0.017l2.062-1.283l2.148,5.103c-2.042-0.637-3.966-1.046-5.663-1.046
		c-0.726,0-1.347,0.054-1.934,0.156C7.934,41.289,7.681,40.777,7.434,40.281 M11.144,54.67c-0.45,1.059-0.893,1.515-0.961,1.58
		c-0.009,0.007-0.013,0.012-0.017,0.014c-1.508,1.362-4.048,1.294-5.779,0.523c-0.986-0.438-1.598-1.051-1.601-1.6l0.009-0.154
		c0.235-1.131,2.969-4.007,7.899-4.066C10.984,51.9,11.516,53.795,11.144,54.67 M12.006,54.784c0.293-0.988-0.018-2.444-0.405-3.757
		c1.085,0.156,2.524,0.615,4.22,1.347C14.259,53.217,12.961,54.083,12.006,54.784 M58.831,52.374
		c1.696-0.732,3.135-1.191,4.219-1.347c-0.387,1.313-0.698,2.769-0.405,3.758C61.69,54.083,60.394,53.217,58.831,52.374
		 M70.264,56.787c-1.731,0.77-4.271,0.838-5.779-0.523c-0.004-0.002-0.007-0.005-0.013-0.01c-0.062-0.06-0.511-0.514-0.965-1.584
		c-0.372-0.876,0.16-2.772,0.449-3.703c4.931,0.059,7.664,2.935,7.899,4.066l0.011,0.154C71.863,55.736,71.25,56.349,70.264,56.787
		 M72.131,50.271c-0.243,0.901-0.314,2.073-0.321,3.047c-1.356-1.547-4.163-3.209-8.004-3.209c-1.614,0-4.165,0.844-7.378,2.442
		l-0.15,0.073c-1.344,0.638-6.086,2.841-10.672,4.398c-4.346,1.478-7.495,1.626-8.095,1.641h-0.199h-0.005h-0.161
		c-0.589-0.013-3.743-0.16-8.101-1.641c-4.586-1.557-9.328-3.76-10.672-4.398l-0.15-0.073c-3.213-1.598-5.764-2.442-7.378-2.442
		c-3.841,0-6.648,1.662-8.003,3.209c-0.008-0.974-0.079-2.147-0.322-3.047c-0.327-1.212-1.184-2.766-1.555-3.408
		c0.65-0.611,2.516-2.291,4.09-3.046c1.933-0.928,3.064-1.316,5.063-1.316c3.932,0,9.284,2.339,14.46,4.6
		c3.782,1.654,7.355,3.215,10.35,3.883l0.227,0.052c0.32,0.076,0.684,0.162,1.228,0.231c0.513,0.064,0.792,0.075,0.97,0.075
		c0.122,0,0.402-0.011,0.915-0.075c0.544-0.069,0.907-0.155,1.228-0.231l0.227-0.052c2.994-0.668,6.567-2.229,10.35-3.883
		c5.175-2.261,10.528-4.6,14.46-4.6c1.999,0,3.13,0.388,5.063,1.316c1.573,0.755,3.441,2.435,4.09,3.046
		C73.315,47.505,72.458,49.059,72.131,50.271"/>
	<path d="M37.375,47.791h-0.006c-1.405,0-3.52-0.397-8.553-3.327c-5.259-3.065-7.894-5.141-9.601-9.346
		c-1.682-4.142-2.307-9.175-2.307-18.573c0-9.03,0.37-16.071,0.373-16.14c0.007-0.116,0.06-0.224,0.147-0.3
		c0.087-0.076,0.201-0.115,0.317-0.103c9.477,0.846,15.493,0.972,18.236,0.972c0.913,0,1.372-0.014,1.377-0.015
		c0.033,0.001,0.492,0.015,1.405,0.015c2.744,0,8.76-0.126,18.237-0.972c0.113-0.012,0.229,0.027,0.316,0.103
		c0.088,0.076,0.141,0.184,0.147,0.3c0.003,0.069,0.374,7.11,0.374,16.14c0,9.398-0.626,14.431-2.308,18.573
		c-1.707,4.205-4.342,6.281-9.6,9.346C40.895,47.394,38.781,47.791,37.375,47.791 M18.11,0.89c-0.08,1.674-0.351,7.935-0.351,15.655
		c0,9.276,0.609,14.223,2.245,18.252c1.614,3.975,4.155,5.969,9.241,8.93c4.886,2.848,6.909,3.213,8.124,3.213h0.006
		c1.217,0,3.239-0.365,8.125-3.213c5.086-2.961,7.626-4.955,9.24-8.93c1.637-4.029,2.244-8.976,2.244-18.252
		c0-7.722-0.27-13.981-0.349-15.655c-9.256,0.813-15.158,0.936-17.872,0.936c-0.911,0-1.379-0.015-1.402-0.016
		c0,0-0.469,0.016-1.38,0.016C33.268,1.826,27.366,1.703,18.11,0.89"/>
	<path d="M52.308,30.155c-1.973,0-3.327,0.855-4.521,1.611c-0.986,0.621-1.839,1.16-2.947,1.16s-1.96-0.539-2.946-1.16
		c-1.195-0.756-2.548-1.611-4.524-1.611c-1.973,0-3.326,0.855-4.521,1.611c-0.986,0.621-1.838,1.16-2.947,1.16
		c-1.107,0-1.959-0.539-2.946-1.16c-1.195-0.756-2.548-1.611-4.523-1.611c-1.03,0-1.889,0.236-2.647,0.566
		c0.191,0.841,0.41,1.632,0.663,2.375c0.604-0.303,1.23-0.508,1.986-0.508c1.269,0,2.173,0.573,3.222,1.234
		c1.141,0.72,2.433,1.537,4.245,1.537c1.813,0,3.106-0.817,4.246-1.537c1.048-0.661,1.953-1.234,3.224-1.234
		c1.27,0,2.175,0.573,3.222,1.234c1.141,0.72,2.435,1.537,4.246,1.537c1.812,0,3.105-0.817,4.246-1.537
		c1.048-0.661,1.952-1.234,3.225-1.234c0.755,0,1.38,0.205,1.984,0.508c0.253-0.743,0.472-1.532,0.663-2.374
		C54.2,30.391,53.34,30.155,52.308,30.155"/>
	<path d="M25.656,28.348c1.141,0.72,2.434,1.537,4.246,1.537s3.105-0.817,4.245-1.537c1.048-0.662,1.954-1.234,3.225-1.234
		c1.269,0,2.174,0.572,3.222,1.234c1.141,0.72,2.434,1.537,4.246,1.537c1.811,0,3.104-0.817,4.245-1.537
		c0.056-0.036,0.108-0.068,0.163-0.102c-1.01-0.315-8.179-2.46-8.188-2.465c-1.853-0.523-3.286-0.886-3.708-0.886h-0.026
		c-0.981,0-7.38,1.951-11.839,3.347C25.543,28.276,25.599,28.312,25.656,28.348"/>
	<path d="M52.308,35.63c-1.973,0-3.327,0.854-4.521,1.61c-0.986,0.623-1.839,1.16-2.947,1.16s-1.96-0.537-2.946-1.16
		c-1.195-0.756-2.548-1.61-4.524-1.61c-1.973,0-3.326,0.854-4.521,1.61c-0.986,0.623-1.838,1.16-2.947,1.16
		c-1.107,0-1.959-0.537-2.946-1.16c-1.195-0.756-2.548-1.61-4.523-1.61c-0.304,0-0.588,0.026-0.863,0.061
		c0.508,0.93,1.103,1.738,1.808,2.486c0.816,0.197,1.509,0.633,2.279,1.119c1.141,0.72,2.433,1.537,4.245,1.537
		c1.813,0,3.106-0.817,4.246-1.537c1.048-0.662,1.953-1.233,3.224-1.233c1.27,0,2.175,0.571,3.222,1.233
		c1.141,0.72,2.435,1.537,4.246,1.537c1.812,0,3.105-0.817,4.246-1.537c0.769-0.486,1.464-0.922,2.28-1.119
		c0.705-0.748,1.299-1.556,1.808-2.485C52.898,35.656,52.612,35.63,52.308,35.63"/>
	<path d="M40.727,42.419c-0.958-0.646-1.95-1.315-3.358-1.315c-1.203,0-2.088,0.614-2.942,1.207
		c-0.815,0.566-1.654,1.143-2.946,1.409c1.252,0.662,2.25,1.108,3.058,1.407c0.482-0.274,0.904-0.56,1.275-0.817
		c0.712-0.494,1.134-0.774,1.558-0.774c0.631,0,1.143,0.325,1.994,0.9c0.298,0.201,0.624,0.42,0.989,0.636
		c0.791-0.302,1.759-0.744,2.954-1.377C42.258,43.442,41.504,42.943,40.727,42.419"/>
	<polygon points="45.906,3.882 46.294,5.257 47.677,4.977 46.831,6.128 47.926,7.046 46.5,7.097 46.464,8.53 45.529,7.458 
		44.391,8.312 44.64,6.919 43.27,6.556 44.51,5.884 43.945,4.584 45.253,5.132 	"/>
	<polygon points="39.986,8.654 38.778,7.909 39.134,9.283 37.804,9.753 39.1,10.325 38.638,11.66 39.894,10.995 40.65,12.2 
		40.91,10.791 42.327,10.963 41.388,9.887 42.404,8.881 40.994,8.941 40.825,7.523 	"/>
	<polygon points="50.132,9.445 48.853,8.833 49.351,10.161 48.079,10.767 49.427,11.2 49.106,12.579 50.288,11.784 51.164,12.904 
		51.275,11.476 52.703,11.5 51.656,10.526 52.562,9.421 51.165,9.627 50.849,8.235 	"/>
	<polygon points="45.699,12.107 44.348,12.16 45.421,12.99 45.037,14.281 46.148,13.516 47.267,14.281 46.884,12.976 47.955,12.16 
		46.609,12.128 46.151,10.849 	"/>
	<polygon points="43.333,16.103 41.974,15.698 42.674,16.931 41.509,17.728 42.91,17.946 42.81,19.357 43.851,18.389 44.893,19.357 
		44.778,17.928 46.192,17.728 45.007,16.931 45.728,15.698 44.381,16.121 43.851,14.795 	"/>
	<path d="M37.474,23.456c1.507,0,15.852,4.602,16.268,4.726c0.416,0.124,1.784,0.679,1.784-0.488c0-1.165-1.902-1.735-7.475-4.401
		c-5.572-2.664-9.209-4.554-10.559-4.554s-4.986,1.89-10.559,4.554c-5.573,2.666-7.475,3.236-7.475,4.401
		c0,1.167,1.368,0.612,1.784,0.488c0.415-0.124,14.701-4.726,16.207-4.726H37.474z"/>
	<path d="M5.35,46.964c-0.095-0.205-0.151-0.341-0.164-0.417c0.004-0.009,0.03-0.041,0.198-0.163l-0.113-0.159
		c-0.149,0.083-0.272,0.148-0.369,0.196c-0.099,0.05-0.209,0.099-0.349,0.192l0.113,0.159c0.135-0.065,0.202-0.072,0.224-0.078
		c0.004,0.002,0.021,0.01,0.051,0.058c0.065,0.103,0.252,0.468,0.556,1.084l0.134,0.202L5.7,48.179
		c-0.213-0.098-0.483-0.234-0.816-0.414c-0.488-0.264-0.909-0.499-1.293-0.712l-0.342,0.184c-0.059,0.029-0.152,0.07-0.296,0.164
		l0.112,0.161c0.136-0.055,0.178-0.066,0.21-0.069l0.037-0.024l0.023,0.063c0.018,0.024,0.047,0.076,0.088,0.157l0.53,1.056
		c0.075,0.153,0.135,0.278,0.178,0.375c0.074,0.171,0.119,0.281,0.135,0.326l0.03-0.009L4.27,49.524
		c-0.006,0.008-0.044,0.034-0.194,0.153l0.086,0.175l0.029-0.015c0.158-0.09,0.285-0.156,0.381-0.204l0.334-0.192l-0.069-0.14
		l-0.042-0.012l-0.028,0.014c-0.028,0.015-0.076,0.031-0.142,0.054l0.009,0.029l-0.072-0.038c-0.013-0.017-0.048-0.069-0.134-0.229
		c-0.102-0.192-0.198-0.376-0.286-0.555l-0.256-0.453l-0.172-0.348c0.969,0.534,1.723,0.936,2.259,1.194
		c0.092-0.028,0.182-0.055,0.273-0.078l0.029-0.07c-0.094-0.158-0.331-0.626-0.707-1.386C5.519,47.325,5.447,47.171,5.35,46.964
		 M5.259,46.267c-0.003,0.001-0.006,0.001-0.008,0.004c0.002-0.003,0.004-0.003,0.007-0.007L5.259,46.267z M4.594,46.626
		l0.003,0.008l-0.005-0.008H4.594z M5.722,48.223c-0.053-0.025-0.121-0.058-0.181-0.087c0.056,0.019,0.115,0.046,0.167,0.058
		L5.722,48.223z M2.994,47.415l0.004,0.008L2.994,47.415L2.994,47.415z M4.866,49.427H4.864H4.866z M4.782,49.329l0.001,0.001
		l-0.002,0.001H4.78C4.78,49.33,4.781,49.33,4.782,49.329 M3.69,47.716c0.191,0.105,0.366,0.202,0.54,0.296
		c-0.168-0.084-0.338-0.168-0.522-0.259L3.69,47.716z"/>
	<path d="M8.53,47.882c-0.052,0.012-0.085,0.013-0.085,0.013l-1.649-2.157l-0.245,0.093l-0.104,2.273
		c-0.013,0.18-0.02,0.284-0.025,0.312L6.381,48.5c-0.005,0.004-0.028,0.018-0.158,0.098l0.054,0.183l0.773-0.257l-0.081-0.176
		c-0.094,0.023-0.16,0.034-0.241-0.003c-0.008-0.026-0.017-0.105-0.013-0.331l-0.018-0.213l0.778-0.25l0.254,0.368
		c0.053,0.075,0.07,0.114,0.074,0.163c-0.005,0.004-0.033,0.024-0.214,0.116l0.083,0.175l1.011-0.327l-0.079-0.175L8.53,47.882z
		 M7.36,47.345c-0.005,0.002-0.013,0.004-0.018,0.005c0.005-0.003,0.01-0.005,0.016-0.008L7.36,47.345z M6.699,47.537l0.009-0.23
		l-0.001,0.229C6.704,47.536,6.702,47.537,6.699,47.537 M7.028,47.417c-0.108,0.031-0.199,0.06-0.264,0.102
		c-0.011,0.004-0.024,0.007-0.035,0.011l0.042-0.96l0.441,0.567l0.13,0.182C7.249,47.349,7.146,47.381,7.028,47.417 M7.012,48.502
		v-0.005l0.002,0.005H7.012z M7.691,48.334l0.015-0.004l-0.015,0.006V48.334z M8.645,48.026l-0.001-0.004L8.645,48.026L8.645,48.026
		z"/>
	<path d="M10.056,45.241L10,45.194c-0.049,0.013-0.098,0.024-0.147,0.031c-0.092,0.015-0.274,0.038-0.547,0.07l-0.658,0.077
		c-0.266,0.031-0.445,0.051-0.538,0.057c-0.058,0.005-0.111,0.007-0.162,0.007l-0.043,0.058c0.016,0.063,0.028,0.122,0.038,0.177
		c0.005,0.033,0.025,0.181,0.093,0.467l0.162-0.049c-0.01-0.11-0.014-0.208-0.01-0.299l0.048-0.063
		c0.087-0.019,0.189-0.035,0.305-0.049l0.2-0.052c0.007,0.036,0.029,0.211,0.066,0.522l0.134,1.148
		c0.04,0.34,0.044,0.456,0.04,0.492c-0.003,0.029-0.013,0.05-0.029,0.062c-0.008,0.007-0.046,0.025-0.239,0.086l0.022,0.189
		l0.031-0.005c0.199-0.036,0.375-0.061,0.528-0.08c0.144-0.017,0.322-0.032,0.561-0.078l-0.051-0.186
		c-0.148,0.013-0.215,0.003-0.221,0c-0.019-0.01-0.033-0.026-0.042-0.051c-0.012-0.036-0.035-0.151-0.075-0.491l-0.134-1.146
		c-0.036-0.306-0.055-0.48-0.084-0.493l0.233-0.028c0.123-0.014,0.23-0.023,0.352-0.024c0,0,0.008,0.013,0.023,0.068
		c0.022,0.087,0.04,0.179,0.087,0.304l0.162-0.048c-0.027-0.265-0.042-0.404-0.043-0.421C10.058,45.387,10.056,45.32,10.056,45.241
		 M9.821,47.935L9.82,47.928l0.004,0.007H9.821z"/>
	<path d="M12.526,45.605c0.007-0.004,0.027-0.014,0.089-0.014c0.025-0.002,0.054,0.002,0.119-0.024l-0.014-0.192l-0.409-0.02
		c-0.037-0.005-0.153-0.027-0.383-0.016l0.014,0.192c0.143,0.016,0.197,0.038,0.24,0.085c0.005,0.022,0.01,0.09-0.002,0.286
		c-0.006,0.074-0.023,0.279-0.052,0.617l-0.033,0.394c-0.023,0.267-0.056,0.449-0.102,0.54c-0.042,0.088-0.11,0.158-0.199,0.207
		c-0.09,0.051-0.21,0.069-0.352,0.057c-0.127-0.009-0.23-0.041-0.308-0.09c-0.075-0.049-0.13-0.109-0.164-0.182
		c-0.032-0.074-0.049-0.169-0.048-0.285c0-0.055,0.01-0.201,0.03-0.433l0.054-0.672c0.024-0.266,0.045-0.44,0.093-0.564
		c0.01-0.007,0.039-0.018,0.112-0.018c0.028-0.001,0.06,0.001,0.129-0.023l-0.016-0.192l-1.065-0.06l0.011,0.191l0.225,0.077
		c0.005,0.016,0.01,0.05,0.009,0.115c-0.008,0.144-0.018,0.305-0.033,0.485l-0.075,0.857c-0.017,0.206-0.024,0.331-0.022,0.379
		c0,0.077,0.016,0.156,0.045,0.243c0.029,0.088,0.076,0.17,0.139,0.242c0.063,0.074,0.149,0.136,0.254,0.185
		c0.143,0.066,0.301,0.106,0.468,0.119c0.045,0.005,0.088,0.008,0.13,0.008c0.093,0,0.18-0.011,0.258-0.029
		c0.115-0.029,0.217-0.075,0.305-0.142c0.086-0.065,0.157-0.143,0.209-0.229c0.052-0.086,0.092-0.193,0.117-0.318
		c0.025-0.123,0.042-0.243,0.052-0.359l0.038-0.453c0.012-0.134,0.031-0.315,0.058-0.545C12.482,45.73,12.497,45.66,12.526,45.605
		 M12.706,45.535v-0.001V45.535z M12.687,45.404h-0.008H12.687z M11.956,45.372v0.005V45.372L11.956,45.372z M11.293,45.286
		L11.293,45.286v-0.001V45.286z M10.287,45.231v0.003l-0.001-0.003H10.287z"/>
	<path d="M16.827,49.31c-0.061-0.029-0.074-0.039-0.076-0.041l-0.021,0.022L16.725,49.2l0.001-0.189l-0.005-2.457l-0.253-0.071
		l-1.123,1.374c-0.159,0.191-0.265,0.32-0.319,0.384c-0.117,0.137-0.186,0.214-0.207,0.236l0.022,0.02l-0.104,0.022
		c-0.004,0-0.029-0.003-0.118-0.011l0.004-0.032c-0.06-0.017-0.08-0.03-0.117-0.084c-0.013-0.026-0.041-0.112-0.088-0.253
		l-0.202-0.745c-0.003-0.014-0.014-0.056-0.033-0.124c-0.019-0.063-0.034-0.122-0.068-0.15c0-0.003-0.001-0.005-0.001-0.007
		c0.188-0.031,0.341-0.1,0.456-0.205c0.115-0.108,0.194-0.242,0.235-0.398c0.033-0.132,0.032-0.254-0.006-0.363
		c-0.036-0.109-0.097-0.192-0.178-0.245c-0.078-0.051-0.199-0.097-0.371-0.143c-0.086-0.022-0.197-0.046-0.331-0.073
		c-0.08-0.015-0.175-0.037-0.286-0.065c-0.13-0.034-0.23-0.06-0.31-0.085c-0.138-0.042-0.219-0.066-0.279-0.05l-0.02,0.19
		c0.167,0.055,0.204,0.082,0.218,0.11c0.002,0.016-0.004,0.074-0.052,0.275l-0.426,1.634c-0.028,0.095-0.051,0.167-0.112,0.255
		c-0.021,0-0.072-0.006-0.24-0.013l-0.019,0.201c0.143,0.028,0.296,0.064,0.461,0.106c0.185,0.047,0.366,0.1,0.583,0.133
		l0.021-0.201c-0.099-0.028-0.157-0.047-0.213-0.098c-0.002-0.011-0.002-0.043,0.017-0.132c0.007-0.033,0.041-0.18,0.103-0.438
		c0.051-0.211,0.1-0.41,0.148-0.596c0.031-0.118,0.095-0.353,0.192-0.703c0.043-0.157,0.072-0.256,0.057-0.28
		c0.048,0.003,0.098,0.01,0.148,0.024c0.11,0.029,0.185,0.057,0.22,0.084c0.056,0.043,0.097,0.107,0.122,0.189
		c0.025,0.082,0.023,0.179-0.004,0.288c-0.028,0.107-0.075,0.202-0.14,0.278c-0.064,0.075-0.13,0.121-0.197,0.14
		c-0.069,0.018-0.148,0.001-0.318-0.014l-0.033,0.089c0.023,0.034,0.045,0.08,0.063,0.141c0.04,0.124,0.083,0.294,0.132,0.508
		l0.17,0.747c0.008,0.045,0.012,0.082,0.035,0.139c0.084,0.018,0.168,0.036,0.253,0.058c0.064,0.017,0.169,0.045,0.303,0.085
		l-0.001,0.008l0.745,0.246l0.038-0.19c-0.155-0.065-0.187-0.094-0.192-0.146c0.01-0.026,0.05-0.095,0.188-0.274l0.113-0.181
		l0.773,0.267l-0.016,0.445c-0.002,0.091-0.011,0.134-0.039,0.175c-0.013,0-0.058-0.008-0.241-0.035l-0.037,0.189l0.542,0.187
		l0.452,0.185l0.052-0.217L16.827,49.31z M15.567,47.937l0.145-0.179l-0.138,0.183C15.572,47.94,15.569,47.94,15.567,47.937
		 M16.213,48.147c-0.092-0.031-0.195-0.067-0.31-0.11c-0.109-0.04-0.208-0.079-0.288-0.079c-0.006-0.003-0.013-0.007-0.018-0.008
		l0.607-0.745l0.013,0.711L16.213,48.147z M16.212,48.175v0.004c-0.005-0.002-0.013-0.005-0.019-0.006
		C16.2,48.174,16.206,48.175,16.212,48.175 M12.428,48.116c0.002,0,0.005,0,0.007,0.001C12.433,48.117,12.43,48.116,12.428,48.116
		 M13.416,48.339l0.001-0.005L13.416,48.339C13.417,48.34,13.416,48.34,13.416,48.339 M15.242,48.899v-0.004V48.899z M15.885,49.171
		l0.014,0.004L15.885,49.171z"/>
	<path d="M20.771,48.545l0.063-0.218l-0.452-0.187c-0.037-0.016-0.118-0.058-0.282-0.117c-0.073,0.08-0.136,0.147-0.188,0.198
		c-0.053,0.054-0.196,0.191-0.427,0.412l-0.416,0.4c-0.083,0.081-0.196,0.196-0.313,0.334c-0.035,0.032-0.067,0.06-0.106,0.097
		l0.059-2.089c-0.107-0.038-0.211-0.08-0.313-0.125c-0.078-0.035-0.217-0.103-0.46-0.188l-0.053,0.19
		c0.051,0.025,0.105,0.059,0.164,0.1l0.028,0.06c-0.003,0.021-0.023,0.091-0.125,0.329c-0.079,0.185-0.172,0.397-0.279,0.635
		c-0.119,0.265-0.204,0.451-0.257,0.56c-0.105,0.222-0.176,0.365-0.213,0.43c-0.019,0.03-0.031,0.043-0.062,0.054
		c-0.008,0-0.046-0.004-0.24-0.044l-0.05,0.192c0.093,0.032,0.216,0.082,0.367,0.149c0.117,0.052,0.229,0.108,0.378,0.151
		l0.053-0.19c-0.123-0.065-0.157-0.09-0.166-0.098l-0.053-0.029l0.037-0.058c0.008-0.028,0.054-0.141,0.139-0.34
		c0.086-0.2,0.16-0.373,0.225-0.516l0.172-0.457l0.156-0.35l-0.028,1.051c-0.005,0.171-0.015,0.43-0.032,0.775
		c-0.008,0.202-0.017,0.359-0.007,0.504l0.136,0.038c0.062-0.064,0.145-0.147,0.25-0.249c0.171-0.17,0.303-0.297,0.396-0.387
		l0.582-0.593l0.408-0.381l-0.546,1.215c-0.11,0.247-0.178,0.389-0.205,0.429c-0.029,0.044-0.049,0.051-0.056,0.054
		c-0.014,0-0.059-0.009-0.245-0.052l-0.05,0.19l0.472,0.197l0.5,0.24l0.068-0.217c-0.153-0.083-0.173-0.1-0.189-0.158
		c0.009-0.035,0.043-0.13,0.1-0.28c0.01-0.025,0.05-0.114,0.116-0.262l0.607-1.334c0.041-0.092,0.077-0.123,0.126-0.136
		c0.036,0,0.09,0.017,0.161,0.049L20.771,48.545z M20.794,48.343l-0.013-0.006L20.794,48.343L20.794,48.343z M18.619,49.49
		l0.017-0.549l0.004,0.531C18.632,49.48,18.627,49.485,18.619,49.49 M17.951,47.101l-0.001,0.004L17.951,47.101z M16.887,49.549
		c0.003,0.002,0.007,0.003,0.01,0.005c-0.003,0-0.008-0.002-0.01-0.002V49.549z M17.578,49.826l0.004-0.008l-0.001,0.01
		C17.58,49.829,17.579,49.829,17.578,49.826 M18.189,47.757l-0.014,0.532l-0.012-0.473L18.189,47.757z M19.919,48.534l-0.274,0.608
		l0.226-0.565L19.919,48.534z M18.799,50.407l0.013,0.005L18.799,50.407z"/>
	<path d="M22.955,50.493c0.108-0.091,0.195-0.205,0.258-0.339c0.065-0.137,0.09-0.264,0.074-0.378
		c-0.015-0.113-0.056-0.206-0.12-0.277c-0.064-0.072-0.163-0.138-0.295-0.201l-1.144-0.502l-0.056,0.184l0.192,0.139
		c0,0.009-0.004,0.028-0.02,0.071c-0.014,0.036-0.054,0.124-0.117,0.266l-0.439,0.946c-0.108,0.227-0.21,0.432-0.309,0.612
		c-0.046,0.085-0.064,0.107-0.091,0.121c-0.025,0-0.079-0.011-0.241-0.051l-0.057,0.194c0.131,0.052,0.267,0.111,0.406,0.176
		c0.128,0.063,0.316,0.155,0.565,0.283l0.029,0.015l0.073-0.221l-0.192-0.11l-0.016,0.027l-0.016-0.081
		c0.002-0.019,0.017-0.068,0.072-0.191c0.077-0.177,0.154-0.347,0.232-0.51l0.478-1.002c0.066-0.137,0.12-0.242,0.125-0.295
		c0.072,0.015,0.135,0.036,0.19,0.062c0.109,0.052,0.174,0.126,0.2,0.229c0.025,0.104,0.001,0.233-0.071,0.386
		c-0.069,0.146-0.151,0.242-0.243,0.289c-0.092,0.048-0.13,0.08-0.313-0.021c-0.016-0.012-0.032-0.027-0.084-0.05l-0.068,0.032
		l0.002,0.02c0.002,0.059,0,0.109,0.006,0.172c0.026,0.023,0.054,0.043,0.084,0.063c0.029,0.018,0.06,0.035,0.093,0.052
		c0.129,0.06,0.271,0.081,0.423,0.06C22.715,50.642,22.847,50.584,22.955,50.493 M21.743,48.836l-0.002,0.003L21.743,48.836
		L21.743,48.836z M20.63,51.262c0.002,0.001,0.003,0.002,0.005,0.003c-0.002,0-0.003-0.002-0.006-0.002L20.63,51.262z"/>
	<path d="M24.447,52.765c-0.007-0.027-0.021-0.115-0.042-0.263c-0.001-0.01-0.008-0.083-0.019-0.219l-0.047-0.551
		c0-0.014-0.004-0.056-0.01-0.128c-0.007-0.068-0.011-0.133-0.022-0.165c0.183,0,0.34-0.041,0.468-0.123
		c0.132-0.083,0.233-0.202,0.299-0.348c0.058-0.123,0.079-0.244,0.061-0.359c-0.018-0.114-0.061-0.205-0.132-0.272
		c-0.067-0.064-0.179-0.132-0.34-0.206c-0.081-0.036-0.185-0.08-0.313-0.132c-0.076-0.029-0.165-0.067-0.27-0.115
		c-0.121-0.055-0.215-0.1-0.28-0.133c-0.134-0.069-0.219-0.114-0.276-0.103l-0.053,0.182c0.158,0.087,0.188,0.119,0.196,0.146
		c-0.002,0.022-0.021,0.083-0.1,0.264l-0.71,1.53c-0.045,0.09-0.08,0.155-0.151,0.232c-0.011,0-0.052-0.01-0.239-0.055l-0.054,0.195
		c0.135,0.052,0.28,0.115,0.435,0.185c0.173,0.079,0.343,0.163,0.55,0.235l0.057-0.195c-0.035-0.017-0.141-0.069-0.194-0.134
		c0.001-0.014,0.009-0.046,0.041-0.126c0.013-0.033,0.072-0.172,0.179-0.414c0.087-0.197,0.172-0.383,0.252-0.559
		c0.051-0.112,0.156-0.331,0.314-0.659c0.07-0.145,0.117-0.239,0.105-0.264c0.049,0.012,0.096,0.029,0.142,0.05
		c0.128,0.058,0.181,0.098,0.202,0.122c0.047,0.051,0.076,0.121,0.086,0.206c0.011,0.085-0.008,0.18-0.055,0.284
		c-0.047,0.102-0.11,0.186-0.187,0.249c-0.077,0.062-0.15,0.097-0.237,0.102c-0.068,0-0.154-0.026-0.293-0.071l-0.047,0.083
		c0.017,0.036,0.029,0.087,0.036,0.149c0.018,0.131,0.031,0.305,0.04,0.524l0.035,0.763c0,0.047-0.003,0.085,0.009,0.147
		c0.08,0.031,0.159,0.064,0.238,0.101c0.069,0.031,0.178,0.085,0.329,0.159l0.028,0.013l0.07-0.223
		C24.491,52.842,24.475,52.827,24.447,52.765 M23.539,49.687L23.539,49.687L23.539,49.687z M22.452,52.125
		c0,0,0.002,0.002,0.004,0.003c-0.002,0-0.003-0.001-0.003-0.001L22.452,52.125z M23.383,52.522l0.003-0.007l-0.001,0.007H23.383z"
		/>
	<path d="M25.444,53.276l-0.009-0.085c0.006-0.037,0.033-0.116,0.086-0.235l0.447-1.039c0.01-0.023,0.08-0.177,0.21-0.466
		c0.037-0.084,0.064-0.14,0.079-0.17c0.032-0.065,0.051-0.091,0.114-0.115c0.023,0.002,0.137,0.047,0.219,0.048l0.05-0.198
		c-0.167-0.063-0.341-0.133-0.524-0.213c-0.163-0.071-0.306-0.138-0.47-0.185l-0.053,0.194c0.131,0.064,0.169,0.086,0.194,0.141
		c-0.01,0.041-0.044,0.135-0.103,0.285c-0.028,0.069-0.093,0.219-0.195,0.454l-0.322,0.741c-0.052,0.119-0.113,0.248-0.182,0.385
		c-0.046,0.092-0.074,0.144-0.129,0.168c-0.018-0.003-0.078-0.026-0.22-0.048l-0.051,0.196c0.129,0.046,0.275,0.104,0.436,0.174
		c0.185,0.082,0.357,0.16,0.517,0.24l0.028,0.014l0.066-0.225c-0.119-0.054-0.157-0.076-0.169-0.085L25.444,53.276z M26.601,51.034
		c-0.002-0.001-0.005-0.004-0.007-0.004c0.002,0,0.005,0.001,0.007,0.003V51.034z M25.661,50.658l-0.002,0.007l0.001-0.008
		L25.661,50.658z M24.624,53.116c0.002,0.001,0.005,0.001,0.007,0.003c-0.002,0-0.005-0.002-0.008-0.002L24.624,53.116z"/>
	<path d="M29.637,52.448l0.054-0.22l-0.463-0.165c-0.036-0.015-0.12-0.051-0.286-0.103c-0.07,0.086-0.129,0.156-0.178,0.211
		c-0.051,0.054-0.185,0.199-0.405,0.433l-0.395,0.42c-0.079,0.085-0.187,0.206-0.296,0.349c-0.033,0.035-0.063,0.065-0.1,0.101
		l-0.049-2.087c-0.108-0.034-0.214-0.069-0.319-0.109c-0.079-0.032-0.223-0.091-0.469-0.165l-0.043,0.193
		c0.051,0.022,0.108,0.055,0.169,0.091l0.016-0.024l0.016,0.081c-0.004,0.038-0.04,0.149-0.109,0.336
		c-0.07,0.19-0.152,0.406-0.246,0.648c-0.106,0.273-0.181,0.464-0.228,0.574c-0.094,0.228-0.157,0.374-0.191,0.44
		c-0.015,0.031-0.028,0.045-0.059,0.059c-0.011,0-0.053-0.006-0.241-0.033l-0.04,0.194c0.095,0.027,0.219,0.072,0.374,0.131
		c0.119,0.046,0.234,0.095,0.385,0.131l0.044-0.191c-0.128-0.061-0.162-0.083-0.171-0.092l-0.054-0.025l0.032-0.06
		c0.007-0.028,0.048-0.143,0.122-0.345c0.076-0.206,0.141-0.382,0.199-0.529l0.147-0.464l0.138-0.358l0.026,1.05
		c0.004,0.173,0.007,0.431,0.009,0.776c0.002,0.2,0.001,0.361,0.018,0.503l0.139,0.033c0.058-0.068,0.137-0.156,0.236-0.262
		c0.163-0.179,0.288-0.314,0.375-0.408l0.55-0.621l0.389-0.403l-0.482,1.244c-0.121,0.311-0.166,0.409-0.183,0.438
		c-0.027,0.044-0.046,0.053-0.055,0.056c-0.019,0-0.07-0.011-0.245-0.04l-0.041,0.192l0.482,0.173l0.513,0.215l0.055-0.222
		c-0.145-0.069-0.173-0.086-0.197-0.147c0.007-0.037,0.036-0.131,0.086-0.285c0.01-0.027,0.044-0.116,0.103-0.27l0.536-1.361
		c0.037-0.094,0.071-0.126,0.125-0.143c0.036,0,0.09,0.014,0.158,0.042L29.637,52.448z M29.651,52.246l-0.016-0.005L29.651,52.246
		L29.651,52.246z M27.539,53.505l-0.016-0.737l0.035,0.717C27.551,53.492,27.546,53.498,27.539,53.505 M26.748,51.153l-0.002,0.006
		L26.748,51.153L26.748,51.153z M25.812,53.653c0.003,0,0.008,0.003,0.011,0.003c-0.003,0.001-0.008-0.002-0.011-0.001V53.653z
		 M26.517,53.894l0.003-0.007l-0.001,0.009C26.519,53.896,26.517,53.895,26.517,53.894 M26.997,51.856l0.022-0.059l0.014,0.533
		L26.997,51.856z M28.787,52.482l-0.243,0.627l0.198-0.58L28.787,52.482z M27.766,54.409l0.015,0.007l-0.015-0.006V54.409z"/>
	<path d="M31.876,53.18l0.055-0.039c0.023,0,0.067,0.005,0.188,0.01l0.025-0.192l-0.395-0.104c-0.035-0.011-0.146-0.049-0.372-0.094
		l-0.026,0.192c0.137,0.046,0.186,0.077,0.218,0.132c0.001,0.018-0.006,0.079-0.061,0.278c-0.021,0.071-0.079,0.271-0.176,0.596
		l-0.113,0.377c-0.078,0.258-0.148,0.43-0.21,0.509c-0.06,0.078-0.14,0.131-0.238,0.161c-0.097,0.033-0.218,0.026-0.357-0.015
		c-0.121-0.036-0.216-0.088-0.281-0.151c-0.065-0.065-0.106-0.137-0.123-0.212c-0.018-0.08-0.016-0.174,0.009-0.289
		c0.013-0.056,0.052-0.193,0.118-0.419l0.192-0.646c0.077-0.258,0.135-0.423,0.17-0.492l0.068-0.046
		c0.039,0,0.098,0.011,0.211,0.014l0.046-0.154l-0.05-0.045l-1.002-0.269l-0.028,0.191l0.204,0.121
		c0.002,0.024-0.003,0.062-0.015,0.114c-0.036,0.141-0.08,0.294-0.131,0.467l-0.248,0.826c-0.059,0.196-0.093,0.318-0.101,0.363
		c-0.014,0.076-0.016,0.16-0.005,0.25c0.011,0.093,0.04,0.181,0.087,0.264c0.047,0.084,0.118,0.163,0.211,0.233
		c0.125,0.092,0.27,0.165,0.433,0.214c0.128,0.038,0.247,0.057,0.357,0.057l0.028-0.001c0.117-0.003,0.227-0.028,0.327-0.076
		c0.099-0.046,0.184-0.107,0.253-0.182c0.069-0.074,0.129-0.17,0.179-0.288c0.049-0.115,0.09-0.228,0.124-0.339l0.13-0.435
		c0.038-0.129,0.094-0.302,0.167-0.522C31.84,53.255,31.868,53.192,31.876,53.18 M32.106,52.98l-0.012-0.002l0.012,0.001V52.98z
		 M31.398,52.799l-0.002,0.007l0.001-0.007H31.398z M30.766,52.58l-0.013-0.004l0.013,0.002V52.58z M29.792,52.32v0.003V52.32z
		 M30.536,55.347c0.001,0,0.002,0.001,0.003,0.001l-0.003,0.004V55.347z"/>
	<path d="M34.47,53.44c-0.051,0.097-0.097,0.176-0.135,0.238c-0.039,0.063-0.144,0.23-0.317,0.502l-0.311,0.486
		c-0.062,0.097-0.144,0.236-0.226,0.398c-0.026,0.039-0.05,0.074-0.079,0.118l-0.435-2.042c-0.113-0.013-0.224-0.029-0.334-0.05
		c-0.084-0.015-0.236-0.047-0.491-0.074l-0.007,0.197c0.055,0.013,0.116,0.032,0.183,0.059l0.042,0.051
		c0.002,0.025-0.004,0.107-0.045,0.349c-0.033,0.2-0.074,0.427-0.121,0.684c-0.054,0.287-0.092,0.489-0.118,0.605
		c-0.049,0.242-0.085,0.397-0.106,0.467c-0.008,0.026-0.017,0.046-0.08,0.071c-0.036,0-0.096-0.004-0.211,0.012l-0.003,0.197
		c0.098,0.01,0.229,0.029,0.392,0.059c0.126,0.024,0.246,0.051,0.403,0.058l0.007-0.197c-0.14-0.036-0.176-0.052-0.185-0.058
		l-0.058-0.015l0.022-0.064c0.001-0.029,0.019-0.151,0.054-0.363c0.037-0.214,0.07-0.4,0.099-0.556l0.058-0.484l0.07-0.375
		l0.22,1.026c0.035,0.166,0.086,0.421,0.152,0.76c0.038,0.198,0.068,0.354,0.111,0.492l0.142,0.006
		c0.045-0.076,0.106-0.177,0.184-0.301c0.127-0.205,0.225-0.362,0.293-0.469l0.424-0.713l0.308-0.468l-0.243,1.311
		c-0.049,0.264-0.082,0.418-0.098,0.463c-0.018,0.05-0.035,0.063-0.068,0.068c-0.038,0-0.101-0.007-0.224,0.006l-0.004,0.195
		l1.048,0.197l0.014-0.229c-0.164-0.042-0.189-0.054-0.221-0.106c0-0.038,0.011-0.137,0.032-0.297
		c0.004-0.028,0.021-0.122,0.051-0.284l0.275-1.437c0.018-0.099,0.046-0.138,0.065-0.152c0.017-0.012,0.084-0.022,0.194-0.001
		l0.053,0.011l0.011-0.229l-0.485-0.074C34.733,53.481,34.644,53.46,34.47,53.44 M33.378,55.217l-0.254-1.21l0.27,1.186
		C33.388,55.203,33.384,55.208,33.378,55.217 M32.166,53.053l-0.001,0.004v-0.004H32.166z M31.709,55.681
		c0.002,0,0.006,0.001,0.008,0.001c-0.002,0.001-0.006,0-0.008,0.001V55.681z M32.446,55.79l0.002-0.01v0.011
		C32.448,55.791,32.447,55.791,32.446,55.79 M32.552,53.634l0.112,0.523l-0.124-0.458L32.552,53.634z M34.416,53.98l-0.122,0.658
		l0.086-0.604L34.416,53.98z M33.769,56.065l0.01,0.001L33.769,56.065z M35.221,53.589l-0.009-0.001L35.221,53.589L35.221,53.589z"
		/>
	<path d="M37.484,53.87L37.484,53.87c0.137,0.003,0.25,0.025,0.336,0.068c0.087,0.044,0.166,0.111,0.228,0.182
		c0.007,0.084,0.011,0.198,0.041,0.367l0.158-0.026c0.007-0.124,0.02-0.257,0.038-0.401c0.011-0.089,0.025-0.164,0.043-0.223
		l-0.025-0.061c-0.156-0.068-0.293-0.118-0.412-0.146c-0.12-0.027-0.256-0.042-0.439-0.045c-0.42,0-0.753,0.128-0.991,0.38
		c-0.244,0.257-0.371,0.597-0.378,1.008c-0.004,0.239,0.034,0.465,0.112,0.671c0.052,0.137,0.127,0.266,0.224,0.384
		c0.097,0.12,0.219,0.216,0.361,0.29c0.181,0.091,0.392,0.138,0.627,0.141l0.043,0.001c0.147,0,0.272-0.014,0.374-0.043
		c0.11-0.03,0.238-0.088,0.391-0.187l0.073-0.224l-0.057-0.065l-0.021,0.013c-0.116,0.069-0.224,0.117-0.321,0.145
		c-0.091,0.025-0.191,0.038-0.307,0.038h-0.001c-0.164-0.002-0.304-0.035-0.418-0.096c-0.082-0.045-0.167-0.118-0.248-0.217
		c-0.083-0.099-0.148-0.226-0.196-0.377c-0.049-0.15-0.072-0.33-0.069-0.533c0.006-0.334,0.085-0.595,0.237-0.778
		C37.034,53.96,37.23,53.87,37.484,53.87 M37.448,56.428c0.001,0,0.002-0.001,0.002-0.001v0.003L37.448,56.428z"/>
	<path d="M40.879,54.268c-0.039-0.117-0.088-0.224-0.148-0.318c-0.061-0.096-0.145-0.187-0.249-0.273
		c-0.107-0.085-0.226-0.149-0.353-0.185c-0.172-0.047-0.36-0.059-0.561-0.038c-0.201,0.024-0.386,0.08-0.55,0.17
		c-0.129,0.07-0.244,0.174-0.345,0.313c-0.101,0.136-0.172,0.298-0.214,0.482c-0.04,0.184-0.048,0.397-0.021,0.633
		c0.035,0.306,0.116,0.56,0.242,0.757c0.125,0.194,0.286,0.338,0.479,0.424c0.143,0.065,0.305,0.098,0.482,0.098
		c0.058,0,0.119-0.003,0.181-0.011c0.23-0.027,0.432-0.093,0.603-0.202c0.123-0.081,0.231-0.189,0.319-0.322
		c0.089-0.133,0.152-0.282,0.187-0.444c0.048-0.217,0.059-0.449,0.031-0.693C40.945,54.516,40.918,54.384,40.879,54.268
		 M40.394,55.483c-0.039,0.183-0.106,0.318-0.2,0.403c-0.094,0.084-0.208,0.134-0.338,0.149c-0.14,0.016-0.268-0.007-0.38-0.073
		c-0.112-0.065-0.214-0.189-0.303-0.371c-0.089-0.182-0.152-0.424-0.185-0.718c-0.024-0.203-0.02-0.395,0.011-0.568
		c0.029-0.169,0.093-0.304,0.189-0.399s0.222-0.153,0.373-0.17c0.034-0.003,0.066-0.006,0.097-0.006c0.09,0,0.167,0.016,0.23,0.048
		c0.086,0.044,0.165,0.113,0.236,0.205c0.072,0.092,0.132,0.213,0.181,0.353c0.049,0.143,0.084,0.305,0.105,0.481
		C40.439,55.074,40.434,55.298,40.394,55.483"/>
	<path d="M43.587,54.673c-0.015-0.072-0.011-0.088-0.009-0.09c0.005-0.016,0.027-0.042,0.106-0.111l-0.067-0.146l-0.978,0.271
		l0.072,0.175c0.148-0.025,0.244-0.037,0.332-0.03c0.005,0.008,0.022,0.043,0.061,0.2l0.038,0.175
		c0.022,0.096,0.035,0.161,0.05,0.168c-0.055,0.048-0.113,0.089-0.174,0.121c-0.061,0.033-0.127,0.058-0.193,0.074
		c-0.234,0.059-0.46,0-0.673-0.168c-0.215-0.173-0.369-0.444-0.458-0.805c-0.081-0.33-0.066-0.612,0.042-0.837
		c0.108-0.224,0.292-0.367,0.546-0.43c0.111-0.027,0.214-0.038,0.307-0.028c0.094,0.009,0.182,0.032,0.261,0.069
		c0.034,0.015,0.068,0.037,0.094,0.056c0.016,0.035,0.032,0.079,0.048,0.133c0.024,0.076,0.04,0.135,0.087,0.196l0.15-0.065
		c-0.047-0.282-0.071-0.481-0.072-0.596l-0.044-0.062c-0.101-0.024-0.232-0.037-0.403-0.039c-0.169,0-0.346,0.021-0.526,0.066
		c-0.148,0.037-0.282,0.085-0.4,0.146c-0.119,0.061-0.228,0.141-0.324,0.238c-0.099,0.098-0.179,0.216-0.242,0.349
		c-0.062,0.133-0.101,0.284-0.115,0.445c-0.014,0.159,0.004,0.343,0.053,0.54c0.058,0.236,0.149,0.443,0.273,0.617
		c0.08,0.114,0.181,0.214,0.3,0.299c0.12,0.086,0.256,0.147,0.404,0.185c0.098,0.023,0.199,0.035,0.303,0.035
		c0.122,0,0.25-0.016,0.381-0.048c0.148-0.036,0.294-0.092,0.434-0.164c0.139-0.071,0.3-0.175,0.488-0.343
		c-0.034-0.097-0.062-0.192-0.085-0.286C43.639,54.92,43.617,54.817,43.587,54.673 M43.596,54.364l-0.009,0.001L43.596,54.364
		L43.596,54.364z M42.676,54.62l0.001,0.002L42.676,54.62L42.676,54.62z"/>
	<path d="M45.731,52.603c-0.072-0.214-0.112-0.355-0.115-0.432c0.006-0.011,0.036-0.04,0.215-0.141l-0.096-0.169
		c-0.157,0.065-0.286,0.116-0.387,0.153c-0.105,0.038-0.221,0.074-0.369,0.15l0.093,0.17c0.128-0.043,0.188-0.05,0.232-0.05
		c0.004,0.002,0.02,0.012,0.044,0.062c0.052,0.108,0.198,0.491,0.432,1.141l0.11,0.216l0.053,0.146
		c-0.201-0.12-0.454-0.284-0.765-0.502c-0.455-0.317-0.846-0.6-1.206-0.851l-0.36,0.143c-0.061,0.022-0.158,0.052-0.311,0.129
		l0.092,0.173c0.145-0.04,0.187-0.046,0.203-0.046l0.052-0.018l0.018,0.067c0.015,0.023,0.037,0.079,0.069,0.164l0.408,1.108
		c0.058,0.161,0.103,0.292,0.135,0.393c0.055,0.178,0.088,0.291,0.099,0.339l0.029-0.006l-0.034,0.085
		c-0.007,0.005-0.042,0.025-0.211,0.128l0.067,0.186l0.029-0.014c0.167-0.069,0.301-0.123,0.401-0.159l0.206-0.07l0.148-0.083
		l-0.053-0.147l-0.041-0.016l-0.028,0.011c-0.03,0.01-0.079,0.023-0.148,0.037l-0.023,0.029h-0.005l-0.033-0.046
		c-0.017-0.024-0.053-0.106-0.108-0.243c-0.08-0.2-0.153-0.394-0.221-0.582l-0.204-0.475l-0.133-0.369
		c0.922,0.653,1.607,1.122,2.111,1.439c0.095-0.017,0.188-0.033,0.281-0.047l0.037-0.067c-0.075-0.165-0.259-0.654-0.548-1.455
		C45.859,52.98,45.804,52.82,45.731,52.603 M45.719,51.899c-0.004,0.002-0.007,0.003-0.01,0.003
		c0.002-0.001,0.006-0.002,0.009-0.005L45.719,51.899z M45.018,52.182l0.002,0.008l-0.004-0.007
		C45.016,52.183,45.017,52.182,45.018,52.182 M45.96,53.897c-0.049-0.029-0.112-0.071-0.168-0.107
		c0.052,0.027,0.107,0.057,0.157,0.078L45.96,53.897z M43.34,52.787l0.002,0.008l-0.004-0.008H43.34z M44.974,54.997l-0.001-0.002
		L44.974,54.997z M44.903,54.891h-0.002c-0.001,0-0.003,0.001-0.003,0.001c0.001-0.001,0.003-0.001,0.004-0.005L44.903,54.891z
		 M43.997,53.165c0.179,0.126,0.342,0.241,0.504,0.355c-0.156-0.102-0.316-0.206-0.49-0.317L43.997,53.165z"/>
	<path d="M48.317,51.699c-0.072-0.1-0.151-0.187-0.238-0.26c-0.084-0.072-0.192-0.135-0.318-0.185
		c-0.119-0.048-0.255-0.08-0.392-0.072c-0.177,0.005-0.361,0.05-0.546,0.132c-0.186,0.083-0.346,0.191-0.476,0.325
		c-0.102,0.105-0.18,0.24-0.235,0.402c-0.055,0.161-0.075,0.338-0.058,0.525c0.014,0.188,0.071,0.393,0.168,0.61
		c0.124,0.282,0.278,0.501,0.455,0.648c0.18,0.151,0.376,0.24,0.585,0.263c0.042,0.006,0.083,0.008,0.125,0.008
		c0.172,0,0.351-0.042,0.534-0.123c0.212-0.094,0.385-0.219,0.515-0.371c0.094-0.116,0.164-0.252,0.209-0.405
		c0.045-0.153,0.06-0.314,0.045-0.48c-0.018-0.222-0.079-0.447-0.177-0.668C48.454,51.915,48.388,51.798,48.317,51.699
		 M47.611,53.749c-0.042,0-0.085-0.005-0.127-0.015c-0.125-0.028-0.26-0.116-0.4-0.262c-0.139-0.149-0.272-0.36-0.391-0.631
		c-0.083-0.187-0.137-0.371-0.16-0.545c-0.022-0.171-0.001-0.32,0.063-0.439c0.062-0.119,0.165-0.211,0.304-0.272
		c0.094-0.042,0.182-0.065,0.259-0.065c0.023,0,0.044,0.004,0.065,0.006c0.096,0.017,0.193,0.059,0.287,0.127
		c0.095,0.066,0.189,0.162,0.279,0.282c0.09,0.122,0.171,0.265,0.243,0.427c0.104,0.236,0.167,0.452,0.184,0.641
		c0.018,0.186-0.006,0.334-0.071,0.444c-0.065,0.109-0.158,0.189-0.277,0.243C47.782,53.729,47.695,53.749,47.611,53.749"/>
	<path d="M50.307,51.454c-0.053-0.06-0.107-0.106-0.161-0.138c-0.054-0.033-0.117-0.054-0.186-0.065
		c-0.069-0.011-0.149-0.008-0.246,0.009c-0.034,0.005-0.108,0.023-0.221,0.052c-0.111,0.031-0.199,0.05-0.26,0.064
		c-0.081,0.013-0.147,0.016-0.198,0.007c-0.045-0.008-0.088-0.028-0.128-0.063c-0.041-0.034-0.079-0.087-0.117-0.159
		c-0.048-0.101-0.056-0.203-0.024-0.311c0.031-0.107,0.11-0.191,0.235-0.253c0.084-0.04,0.182-0.075,0.267-0.061
		c0.089,0.004,0.158,0.02,0.2,0.045c0.035,0.051,0.085,0.142,0.193,0.287l0.137-0.101c-0.054-0.118-0.095-0.214-0.124-0.291
		c-0.029-0.073-0.054-0.151-0.077-0.231l-0.034-0.042l-0.081-0.018c-0.08,0-0.166,0.011-0.254,0.032
		c-0.113,0.028-0.222,0.067-0.326,0.118c-0.103,0.051-0.197,0.115-0.281,0.188c-0.085,0.076-0.152,0.164-0.2,0.265
		c-0.047,0.101-0.068,0.221-0.061,0.358c0.008,0.135,0.045,0.272,0.11,0.404c0.046,0.093,0.104,0.177,0.171,0.247
		c0.068,0.072,0.144,0.124,0.227,0.156c0.084,0.033,0.179,0.045,0.282,0.032c0.067-0.008,0.2-0.033,0.4-0.077
		c0.108-0.021,0.189-0.03,0.298-0.029c0.058,0.006,0.109,0.028,0.153,0.064c0.046,0.04,0.086,0.093,0.12,0.161
		c0.04,0.082,0.06,0.165,0.061,0.243c0.001,0.078-0.025,0.152-0.075,0.222c-0.05,0.07-0.121,0.127-0.209,0.171
		c-0.086,0.041-0.175,0.061-0.32,0.061c-0.111-0.01-0.201-0.041-0.262-0.083c-0.073-0.116-0.128-0.215-0.209-0.313l-0.137,0.101
		c0.129,0.267,0.213,0.474,0.274,0.642c0.046,0.002,0.09,0.004,0.132,0.004c0.093,0,0.177-0.008,0.253-0.021
		c0.11-0.02,0.228-0.06,0.35-0.121c0.168-0.082,0.3-0.183,0.394-0.299c0.059-0.074,0.106-0.165,0.144-0.273
		c0.036-0.108,0.053-0.212,0.051-0.321c-0.003-0.143-0.042-0.29-0.116-0.441C50.409,51.591,50.361,51.517,50.307,51.454
		 M49.094,52.446h-0.002H49.094L49.094,52.446z"/>
	<path d="M52.745,51.026l-0.013,0.022c-0.071,0.114-0.143,0.207-0.215,0.276c-0.074,0.069-0.159,0.128-0.256,0.177
		c-0.143,0.073-0.281,0.11-0.414,0.11c-0.094,0-0.203-0.026-0.322-0.077c-0.117-0.048-0.234-0.128-0.348-0.241
		c-0.113-0.111-0.217-0.259-0.31-0.441c-0.151-0.297-0.202-0.565-0.153-0.797c0.049-0.23,0.186-0.403,0.405-0.514
		c0.121-0.062,0.231-0.094,0.337-0.096c0.094,0,0.192,0.021,0.278,0.054c0.046,0.071,0.101,0.169,0.208,0.307l0.128-0.098
		c-0.052-0.113-0.104-0.237-0.154-0.372c-0.033-0.085-0.054-0.157-0.066-0.217l-0.05-0.043c-0.171,0.011-0.315,0.033-0.433,0.064
		c-0.117,0.03-0.244,0.08-0.379,0.148c-0.389,0.197-0.635,0.471-0.731,0.813c-0.096,0.343-0.049,0.701,0.136,1.068
		c0.109,0.214,0.248,0.397,0.411,0.541c0.109,0.098,0.236,0.178,0.378,0.237c0.139,0.058,0.29,0.087,0.445,0.087h0.01
		c0.201-0.004,0.41-0.059,0.62-0.165c0.146-0.074,0.265-0.152,0.349-0.233c0.085-0.078,0.171-0.189,0.26-0.348l-0.041-0.234
		L52.745,51.026z M51.627,52.003L51.627,52.003L51.627,52.003z"/>
	<path d="M54.218,50.023c0.056,0.161,0.089,0.274,0.098,0.36c-0.004,0.009-0.027,0.038-0.137,0.103
		c-0.084,0.054-0.179,0.106-0.283,0.156c-0.108,0.054-0.203,0.096-0.248,0.141c-0.032-0.056-0.068-0.125-0.107-0.204l-0.371-0.688
		c0.057-0.038,0.134-0.08,0.229-0.127c0.104-0.054,0.194-0.089,0.325-0.103c0.019,0.014,0.057,0.063,0.177,0.24l0.133-0.101
		l-0.418-0.773l-0.133,0.101c0.048,0.1,0.077,0.174,0.087,0.247c0,0-0.012,0.014-0.075,0.046c-0.138,0.075-0.217,0.116-0.239,0.128
		c-0.072,0.035-0.142,0.067-0.173,0.108l-0.176-0.358c-0.101-0.2-0.175-0.369-0.24-0.47c0.087-0.052,0.173-0.101,0.259-0.144
		c0.092-0.045,0.188-0.085,0.291-0.12c0.072-0.027,0.1-0.029,0.131-0.014c0.015,0.018,0.05,0.073,0.176,0.251l0.128-0.095
		l-0.204-0.518l-0.054-0.037l-0.062,0.016c-0.11,0.05-0.184,0.083-0.22,0.102l-0.293,0.156c-0.164,0.084-0.311,0.16-0.445,0.227
		l-0.548,0.31l0.106,0.147c0.138-0.058,0.191-0.072,0.229-0.065c0.015,0.014,0.05,0.065,0.132,0.221l0.558,1.113
		c0.045,0.088,0.112,0.235,0.203,0.436c0.049,0.11,0.083,0.189,0.101,0.22c-0.02,0.052-0.05,0.108-0.093,0.195l0.061,0.122
		l0.027-0.015c0.299-0.159,0.46-0.243,0.484-0.255c0.088-0.044,0.25-0.121,0.484-0.234l0.241-0.11
		c0.116-0.058,0.206-0.108,0.264-0.146l0.019-0.071c-0.073-0.149-0.155-0.34-0.288-0.595L54.218,50.023z M54.34,49.967l-0.008,0.005
		l0.006-0.008C54.34,49.966,54.34,49.967,54.34,49.967 M53.915,49.859h0.002l-0.002,0.002V49.859z M53.992,49.787l-0.003-0.006
		L53.992,49.787z M53.603,49.069H53.6l0.002-0.001L53.603,49.069z"/>
	<path d="M56.739,49.363l-0.003,0.031l-0.056-0.049c-0.026-0.012-0.102-0.059-0.227-0.14l-0.625-0.454
		c-0.012-0.01-0.047-0.035-0.104-0.076c-0.053-0.037-0.104-0.077-0.147-0.075c-0.001-0.002-0.003-0.002-0.005-0.004
		c0.128-0.142,0.203-0.291,0.227-0.446c0.022-0.155,0-0.308-0.067-0.456c-0.056-0.124-0.134-0.219-0.232-0.28
		c-0.085-0.054-0.169-0.074-0.293-0.079c-0.092,0.01-0.217,0.05-0.378,0.123c-0.081,0.036-0.182,0.087-0.304,0.149
		c-0.072,0.04-0.16,0.082-0.264,0.129c-0.121,0.057-0.217,0.098-0.284,0.126c-0.139,0.056-0.222,0.089-0.259,0.14l0.103,0.16
		c0.143-0.052,0.197-0.063,0.24-0.052c0.011,0.013,0.044,0.061,0.132,0.248l0.693,1.538c0.038,0.092,0.065,0.162,0.078,0.265
		c-0.009,0.009-0.043,0.035-0.199,0.145l0.083,0.184l0.029-0.014c0.128-0.069,0.27-0.138,0.425-0.208
		c0.173-0.079,0.347-0.154,0.537-0.263l-0.11-0.17c-0.094,0.04-0.157,0.056-0.228,0.059c-0.009-0.01-0.029-0.037-0.069-0.114
		c-0.017-0.032-0.082-0.167-0.195-0.406c-0.092-0.196-0.178-0.381-0.259-0.557c-0.05-0.11-0.148-0.335-0.292-0.667
		c-0.065-0.149-0.104-0.246-0.131-0.254c0.041-0.029,0.085-0.054,0.131-0.075c0.128-0.059,0.192-0.073,0.229-0.073
		c0.069,0,0.139,0.024,0.208,0.071c0.071,0.048,0.13,0.124,0.177,0.227c0.047,0.102,0.069,0.205,0.067,0.305
		c-0.004,0.099-0.026,0.176-0.067,0.231c-0.041,0.056-0.122,0.108-0.257,0.189l0.032,0.09c0.038,0.011,0.083,0.035,0.137,0.07
		c0.109,0.073,0.25,0.178,0.423,0.313l0.6,0.475c0.035,0.03,0.061,0.056,0.115,0.087c0.076-0.041,0.153-0.078,0.232-0.114
		c0.069-0.031,0.181-0.079,0.352-0.184l-0.109-0.17C56.771,49.361,56.748,49.363,56.739,49.363 M55.799,49.989l-0.003-0.005
		L55.799,49.989L55.799,49.989z M56.894,49.493l-0.002-0.003L56.894,49.493C56.895,49.492,56.894,49.492,56.894,49.493"/>
	<path d="M58.319,48.262L58.319,48.262c-0.005-0.011-0.007-0.018-0.011-0.028l-0.144,0.084c0.041,0.166,0.064,0.28,0.065,0.366
		c-0.007,0.012-0.035,0.037-0.146,0.093c-0.089,0.044-0.188,0.086-0.297,0.128c-0.113,0.044-0.21,0.077-0.26,0.117
		c-0.026-0.058-0.056-0.13-0.087-0.213l-0.306-0.718c0.06-0.033,0.14-0.069,0.239-0.107c0.109-0.042,0.201-0.07,0.334-0.071
		c0.014,0.012,0.047,0.06,0.153,0.253l0.142-0.087l-0.344-0.808l-0.142,0.087c0.038,0.106,0.06,0.183,0.063,0.255
		c-0.002,0.002-0.014,0.013-0.079,0.04l-0.251,0.105c-0.074,0.028-0.146,0.054-0.179,0.091l-0.145-0.371
		c-0.081-0.21-0.14-0.385-0.195-0.491c0.091-0.046,0.181-0.085,0.271-0.119c0.095-0.037,0.196-0.068,0.301-0.094
		c0.063-0.016,0.093-0.02,0.133-0.002c0.019,0.028,0.056,0.113,0.151,0.267l0.137-0.084l-0.156-0.534l-0.051-0.041l-0.062,0.009
		c-0.116,0.039-0.191,0.067-0.229,0.081l-0.307,0.128c-0.169,0.071-0.325,0.132-0.464,0.186l-0.573,0.258l0.091,0.156
		c0.135-0.042,0.192-0.05,0.235-0.044c0.011,0.014,0.042,0.062,0.111,0.232l0.454,1.161c0.036,0.092,0.09,0.244,0.161,0.453
		c0.039,0.114,0.066,0.196,0.081,0.229c-0.024,0.046-0.058,0.097-0.112,0.185l0.05,0.127l0.029-0.013
		c0.312-0.13,0.48-0.2,0.505-0.209c0.092-0.035,0.26-0.099,0.504-0.188l0.25-0.089c0.122-0.047,0.214-0.087,0.277-0.121l0.024-0.07
		C58.484,48.706,58.421,48.512,58.319,48.262 M58.291,48.274l-0.009,0.002l0.008-0.005C58.29,48.272,58.29,48.272,58.291,48.274
		 M57.877,48.127L57.877,48.127L57.877,48.127z M57.961,48.062l-0.003-0.007l0.003,0.006V48.062z M57.639,47.311L57.639,47.311z"/>
	<path d="M61.544,47.849l-0.022,0.028l-0.045-0.058c-0.023-0.016-0.089-0.077-0.198-0.18c-0.008-0.008-0.058-0.06-0.151-0.158
		l-0.378-0.403c-0.009-0.012-0.039-0.042-0.088-0.095c-0.045-0.046-0.088-0.091-0.13-0.1c-0.001-0.001-0.003-0.002-0.005-0.004
		c0.151-0.116,0.254-0.25,0.306-0.396c0.05-0.15,0.057-0.306,0.018-0.461c-0.032-0.134-0.091-0.24-0.176-0.318
		c-0.085-0.08-0.176-0.124-0.321-0.134c-0.088,0-0.202,0.016-0.346,0.051c-0.087,0.021-0.196,0.051-0.326,0.091
		c-0.077,0.025-0.173,0.052-0.283,0.079c-0.13,0.032-0.231,0.055-0.303,0.068c-0.147,0.031-0.234,0.049-0.28,0.092l0.072,0.176
		c0.092-0.015,0.159-0.023,0.245-0.008c0.009,0.015,0.032,0.07,0.083,0.269l0.397,1.64c0.02,0.097,0.033,0.173,0.026,0.276
		c-0.016,0.012-0.084,0.035-0.222,0.105l0.048,0.197l0.03-0.011c0.139-0.042,0.291-0.085,0.456-0.124
		c0.185-0.046,0.37-0.087,0.578-0.159l-0.077-0.188c-0.099,0.022-0.16,0.034-0.235,0.015c-0.008-0.01-0.023-0.039-0.047-0.124
		c-0.01-0.034-0.05-0.179-0.116-0.434c-0.055-0.21-0.105-0.408-0.151-0.597c-0.029-0.118-0.084-0.355-0.164-0.71
		c-0.035-0.158-0.057-0.259-0.082-0.273c0.046-0.02,0.094-0.036,0.143-0.049c0.088-0.023,0.149-0.029,0.233-0.029
		c0.07,0.01,0.136,0.048,0.197,0.107c0.061,0.061,0.106,0.146,0.133,0.256c0.026,0.112,0.029,0.214,0.008,0.311
		c-0.021,0.097-0.058,0.17-0.108,0.216c-0.053,0.049-0.141,0.085-0.287,0.139l0.013,0.095c0.037,0.018,0.079,0.05,0.122,0.094
		c0.094,0.091,0.213,0.219,0.357,0.386l0.502,0.578c0.035,0.043,0.052,0.073,0.097,0.106c0.083-0.025,0.166-0.048,0.25-0.068
		c0.074-0.019,0.193-0.045,0.379-0.116l-0.076-0.188C61.58,47.848,61.557,47.849,61.544,47.849 M58.852,45.973L58.852,45.973z
		 M60.491,48.29l-0.001-0.006l0.003,0.006H60.491z M61.66,48.003l-0.001-0.002L61.66,48.003z"/>
	<path d="M63.355,47.169L63.355,47.169c-0.001-0.012-0.002-0.019-0.003-0.03l-0.16,0.047c-0.002,0.17-0.007,0.287-0.027,0.371
		c-0.008,0.006-0.038,0.025-0.164,0.053c-0.097,0.021-0.205,0.037-0.32,0.051c-0.12,0.015-0.223,0.022-0.28,0.049
		c-0.011-0.063-0.023-0.14-0.034-0.229l-0.119-0.769c0.067-0.018,0.153-0.032,0.258-0.046c0.088-0.01,0.163-0.014,0.228-0.014
		l0.114,0.027c0.01,0.015,0.031,0.069,0.086,0.284l0.159-0.05l-0.135-0.868l-0.159,0.049c0.011,0.111,0.013,0.191-0.002,0.263
		c-0.002,0.001-0.017,0.01-0.086,0.019c-0.154,0.023-0.243,0.037-0.268,0.04c-0.079,0.01-0.156,0.015-0.198,0.045l-0.047-0.396
		c-0.028-0.223-0.043-0.407-0.069-0.524c0.099-0.021,0.195-0.037,0.292-0.049c0.093-0.011,0.18-0.02,0.314-0.017
		c0.097,0.002,0.116,0.011,0.129,0.031c0.008,0.022,0.023,0.087,0.081,0.298l0.153-0.047l-0.019-0.558l-0.035-0.046l-0.063-0.014
		l-0.004,0.001c-0.121,0.01-0.201,0.017-0.241,0.022l-0.329,0.049c-0.182,0.026-0.347,0.048-0.496,0.065l-0.619,0.11l0.05,0.174
		c0.144-0.009,0.207-0.005,0.238,0.016c0.01,0.018,0.027,0.078,0.051,0.252l0.154,1.235c0.012,0.099,0.027,0.258,0.045,0.48
		c0.01,0.119,0.015,0.206,0.022,0.24c-0.035,0.041-0.081,0.084-0.153,0.153l0.016,0.134l0.169-0.024
		c0.246-0.037,0.382-0.055,0.403-0.059c0.098-0.01,0.276-0.03,0.534-0.057l0.265-0.025c0.13-0.015,0.23-0.033,0.298-0.049
		l0.041-0.061c-0.019-0.157-0.033-0.358-0.07-0.623V47.169z M63.325,47.173l-0.009,0.001l0.009-0.004V47.173z M63.058,46.886
		l-0.001-0.008L63.058,46.886L63.058,46.886z M62.931,46.079h-0.002H62.931z"/>
	<path d="M65.665,47.601c-0.019-0.022-0.067-0.099-0.145-0.226l-0.365-0.68c-0.007-0.013-0.027-0.051-0.061-0.112
		c-0.031-0.058-0.06-0.112-0.099-0.133c-0.002-0.001-0.003-0.003-0.004-0.005c0.177-0.073,0.311-0.175,0.398-0.304
		c0.088-0.13,0.135-0.277,0.137-0.439c0.004-0.137-0.025-0.255-0.086-0.353c-0.062-0.099-0.139-0.164-0.229-0.199
		c-0.09-0.031-0.222-0.05-0.395-0.053l-0.1-0.001c-0.069,0-0.149,0.001-0.239,0.004c-0.046,0.002-0.098,0.003-0.155,0.003
		l-0.138-0.001c-0.134-0.003-0.238-0.007-0.344-0.013c-0.131-0.01-0.208-0.014-0.261,0.016l0.024,0.189
		c0.175,0.019,0.218,0.034,0.238,0.057c0.007,0.019,0.014,0.084,0.012,0.281l-0.043,1.686c-0.006,0.1-0.013,0.175-0.047,0.274
		c-0.007,0.002-0.045,0.01-0.241,0.043l0.027,0.2c0.09-0.003,0.184-0.004,0.282-0.004l0.191,0.001
		c0.191,0.007,0.38,0.014,0.598-0.002l-0.025-0.201c-0.043-0.003-0.158-0.008-0.231-0.046c-0.004-0.013-0.01-0.045-0.013-0.132
		C64.35,47.415,64.35,47.266,64.352,47c0.002-0.216,0.005-0.421,0.009-0.614c0.002-0.122,0.012-0.365,0.026-0.729
		c0.007-0.161,0.012-0.265-0.008-0.283c0.045-0.009,0.081-0.011,0.15-0.013c0.115,0.003,0.193,0.014,0.234,0.032
		c0.064,0.03,0.118,0.083,0.161,0.157c0.043,0.074,0.064,0.169,0.061,0.282c-0.002,0.11-0.026,0.213-0.073,0.303
		c-0.044,0.087-0.099,0.148-0.16,0.18c-0.049,0.026-0.121,0.039-0.211,0.039l-0.101,0.019l-0.011,0.096
		c0.029,0.027,0.061,0.067,0.092,0.121c0.067,0.113,0.149,0.268,0.245,0.465l0.335,0.688c0.018,0.043,0.031,0.079,0.066,0.129
		l0.164-0.002l0.096,0.001c0.074,0.001,0.196,0.006,0.364,0.015l0.031,0.003v-0.032l-0.024-0.201
		C65.735,47.653,65.713,47.644,65.665,47.601 M63.578,47.806h0.003H63.578L63.578,47.806z M64.59,47.799l0.001-0.005l0.001,0.005
		H64.59z"/>
	<path d="M67.89,47.267l0.099-0.443c0.03-0.13,0.073-0.308,0.131-0.531c0.072-0.277,0.098-0.354,0.107-0.37L68.2,45.908l0.091-0.026
		c0.032,0,0.079,0.006,0.177-0.005l0.011-0.191l-0.402-0.077c-0.036-0.007-0.149-0.038-0.376-0.067l-0.013,0.193
		c0.145,0.037,0.193,0.066,0.225,0.117c0.004,0.021-0.002,0.089-0.041,0.281c-0.015,0.074-0.06,0.275-0.134,0.606l-0.087,0.385
		c-0.059,0.262-0.117,0.438-0.174,0.52c-0.054,0.083-0.131,0.144-0.226,0.18c-0.096,0.038-0.216,0.04-0.357,0.009
		c-0.126-0.029-0.221-0.072-0.29-0.132c-0.07-0.059-0.116-0.127-0.138-0.203c-0.024-0.076-0.027-0.174-0.011-0.289
		c0.007-0.055,0.037-0.196,0.089-0.425l0.146-0.657c0.058-0.263,0.104-0.431,0.136-0.505l0.082-0.05c0.038,0,0.09,0.008,0.194-0.001
		l0.035-0.156l-0.054-0.041l-1.017-0.198l-0.016,0.19l0.212,0.108c0.004,0.017,0.004,0.051-0.007,0.115
		c-0.025,0.141-0.058,0.299-0.098,0.476l-0.19,0.839c-0.045,0.2-0.07,0.324-0.075,0.37c-0.009,0.078-0.005,0.161,0.012,0.25
		c0.017,0.09,0.053,0.177,0.106,0.257c0.053,0.082,0.129,0.155,0.226,0.218c0.131,0.084,0.282,0.146,0.447,0.183
		c0.103,0.024,0.202,0.034,0.294,0.034c0.032,0,0.063-0.001,0.095-0.004c0.117-0.012,0.225-0.046,0.32-0.098
		c0.096-0.054,0.177-0.122,0.239-0.201c0.063-0.075,0.116-0.176,0.158-0.298C67.831,47.497,67.865,47.38,67.89,47.267 M68.444,45.71
		l-0.01-0.003l0.01,0.002V45.71z M67.724,45.578l-0.002,0.006v-0.006H67.724z M67.078,45.536l0.001-0.002L67.078,45.536
		L67.078,45.536z M67.078,45.404L67.062,45.4l0.016,0.002V45.404z M66.089,45.211l-0.001,0.003v-0.003H66.089z"/>
	<path d="M71.206,46.912c-0.035-0.016-0.115-0.06-0.277-0.123c-0.075,0.08-0.14,0.145-0.193,0.196
		c-0.054,0.052-0.198,0.185-0.434,0.404l-0.425,0.391c-0.084,0.079-0.199,0.191-0.319,0.327c-0.035,0.031-0.068,0.061-0.108,0.094
		l0.1-2.085c-0.105-0.041-0.209-0.085-0.31-0.132c-0.077-0.037-0.216-0.107-0.456-0.198l-0.057,0.188
		c0.05,0.027,0.105,0.062,0.162,0.105l0.019-0.026l0.008,0.085c-0.003,0.025-0.03,0.102-0.132,0.327
		c-0.082,0.184-0.18,0.392-0.291,0.629c-0.125,0.264-0.214,0.449-0.268,0.557c-0.11,0.219-0.184,0.36-0.222,0.422
		c-0.018,0.032-0.031,0.044-0.063,0.055c-0.007,0-0.047-0.004-0.239-0.048l-0.053,0.19c0.092,0.033,0.213,0.087,0.364,0.157
		c0.115,0.055,0.225,0.112,0.374,0.158l0.057-0.188c-0.122-0.068-0.155-0.094-0.163-0.103l-0.053-0.029l0.037-0.057
		c0.009-0.028,0.057-0.14,0.146-0.337c0.089-0.199,0.168-0.37,0.236-0.512l0.181-0.456l0.162-0.342l-0.048,1.048
		c-0.009,0.171-0.025,0.429-0.048,0.773c-0.013,0.202-0.024,0.36-0.017,0.504l0.135,0.043c0.063-0.063,0.149-0.144,0.254-0.245
		c0.176-0.166,0.312-0.291,0.405-0.377l0.59-0.581l0.418-0.376l-0.57,1.205c-0.113,0.243-0.186,0.386-0.212,0.424
		c-0.031,0.045-0.051,0.052-0.058,0.053c-0.013,0-0.057-0.01-0.242-0.057l-0.056,0.189l0.964,0.456l0.072-0.216
		c-0.039-0.023-0.158-0.088-0.186-0.161c0.01-0.036,0.045-0.128,0.106-0.278c0.011-0.025,0.052-0.113,0.121-0.261l0.633-1.319
		c0.044-0.093,0.079-0.123,0.127-0.136c0.036,0,0.091,0.019,0.163,0.054l0.048,0.023l0.068-0.216L71.206,46.912z M71.615,47.125
		l-0.011-0.006l0.013,0.005L71.615,47.125z M69.418,48.229l0.063-1.246l-0.041,1.228C69.432,48.218,69.427,48.223,69.418,48.229
		 M68.799,45.827l-0.002,0.004l0.001-0.005C68.798,45.826,68.798,45.827,68.799,45.827 M67.686,48.253
		c0.003,0.001,0.006,0.003,0.009,0.003c-0.002,0-0.007-0.002-0.009-0.002V48.253z M68.372,48.544l0.003-0.007l-0.001,0.008
		C68.373,48.544,68.372,48.544,68.372,48.544 M69.023,46.489l-0.025,0.534l-0.002-0.476L69.023,46.489z M70.736,47.298l-0.284,0.601
		l0.236-0.558L70.736,47.298z M69.581,49.148l0.012,0.006l-0.013-0.005L69.581,49.148z"/>
</g>
</svg>
