<?xml version="1.0" encoding="utf-8"?>
<!-- Generator: Adobe Illustrator 23.1.1, SVG Export Plug-In . SVG Version: 6.00 Build 0)  -->
<svg version="1.1" id="Layer_1" xmlns="http://www.w3.org/2000/svg" xmlns:xlink="http://www.w3.org/1999/xlink" x="0px" y="0px"
	 viewBox="0 0 1200 800" enable-background="new 0 0 1200 800" xml:space="preserve">
<g>
	<path d="M583.86,212.632h30.877c3.509,0,6.316-2.807,6.316-6.316c0-3.509-2.807-6.316-6.316-6.316H583.86V212.632z M583.86,242.105
		h31.579c4.211,0,7.018-2.807,7.018-7.018c0-4.211-2.807-7.018-7.018-7.018H583.86V242.105z M633.684,219.649
		c4.211,4.211,7.018,9.825,7.018,16.14c0,12.632-9.825,22.456-22.456,22.456h-51.228v-73.684h50.526
		c11.93,0,21.754,9.825,21.754,21.754C638.596,211.228,636.491,216.14,633.684,219.649z M645.614,345.965h-18.947l-5.614-12.632
		h-41.404l-5.614,12.632h-18.947l36.491-73.684h16.842L645.614,345.965z M600,291.228l-12.632,26.667h25.263L600,291.228z
		 M625.263,362.105h21.053l-37.193,47.719v25.965h-17.544v-25.965l-37.193-47.719h21.053l25.263,33.684L625.263,362.105z
		 M722.807,362.105v16.14h-49.123v12.632h47.719v16.14h-47.719v14.035h49.123v16.14H656.14v-75.088H722.807z M776.842,407.719
		h-13.333v28.07h-17.544v-73.684h44.912c12.632,0,22.456,10.526,22.456,23.158c0,10.526-7.018,18.947-16.14,21.754l21.754,28.772
		h-21.053L776.842,407.719z M789.474,377.544h-25.263v14.035h25.263c4.211,0,7.018-3.509,7.018-7.018
		C796.491,381.053,792.982,377.544,789.474,377.544z M562.105,435.789h-18.947l-5.614-12.632H496.14l-5.614,12.632h-18.947
		l37.193-73.684h16.842L562.105,435.789z M516.491,381.053l-12.632,26.667h25.965L516.491,381.053z M404.912,390.175h30.877
		c3.509,0,6.316-2.807,6.316-6.316s-2.807-6.316-6.316-6.316h-30.877V390.175z M404.912,419.649h31.579
		c4.211,0,7.018-2.807,7.018-7.018s-2.807-7.018-7.018-7.018h-31.579V419.649z M454.737,397.193
		c4.211,4.211,7.018,9.825,7.018,16.14c0,12.632-9.825,22.456-22.456,22.456h-51.93v-73.684h50.526
		c11.93,0,21.754,9.825,21.754,21.754C459.649,388.772,457.544,393.684,454.737,397.193z M633.684,451.228v16.14h-49.123V480h47.719
		v16.14h-47.719v14.035h49.123v16.14h-66.667v-75.088H633.684z M621.053,565.614c0-4.211-2.807-7.018-7.018-7.018H583.86v14.035
		h30.175C618.246,572.632,621.053,569.825,621.053,565.614z M566.316,616.842v-73.684h49.123c12.632,0,22.456,10.526,22.456,23.158
		c0,9.825-5.614,17.544-14.035,21.053l22.456,29.474h-21.053l-21.053-28.07H583.86v28.07L566.316,616.842z"/>
	<path d="M865.965,383.158C857.544,244.211,741.754,133.333,600,133.333S342.456,244.211,334.035,383.158
		c0,5.614,0.702,11.228,1.404,16.842c5.614,46.316,23.158,89.123,49.825,124.912C433.684,590.877,511.579,633.684,600,633.684
		c-123.509,0-224.561-96.14-232.982-216.842c-0.702-5.614-0.702-11.228-0.702-16.842s0-11.228,0.702-16.842
		C375.439,262.456,476.491,166.316,600,166.316c88.421,0,166.316,42.807,214.737,108.772
		c26.667,35.789,44.211,78.596,49.825,124.912c0.702,5.614,1.404,11.228,1.404,16.14c0-5.614,0.702-11.228,0.702-16.842
		C866.667,394.386,866.667,388.772,865.965,383.158"/>
	<path d="M334.035,416.842C342.456,555.789,458.246,666.667,600,666.667s257.544-110.877,265.965-249.825
		c0-5.614-0.702-11.228-1.404-16.842c-5.614-46.316-23.158-89.123-49.825-124.912C766.316,209.123,688.421,166.316,600,166.316
		c123.509,0,224.561,96.14,232.982,216.842c0.702,5.614,0.702,11.228,0.702,16.842c0,5.614,0,11.228-0.702,16.842
		C824.561,538.246,723.509,633.684,600,633.684c-88.421,0-166.316-42.807-214.737-108.772
		c-26.667-35.789-44.211-78.597-49.825-124.912c-0.702-5.614-1.404-11.228-1.404-16.14c0,5.614-0.702,11.228-0.702,16.842
		C333.333,405.614,333.333,411.228,334.035,416.842"/>
</g>
</svg>
