<?xml version="1.0" encoding="utf-8"?>
<!-- Generator: Adobe Illustrator 23.1.1, SVG Export Plug-In . SVG Version: 6.00 Build 0)  -->
<svg version="1.1" id="Layer_1" xmlns="http://www.w3.org/2000/svg" xmlns:xlink="http://www.w3.org/1999/xlink" x="0px" y="0px"
	 viewBox="0 0 174.22 43.812" enable-background="new 0 0 174.22 43.812" xml:space="preserve">
<polyline points="53.287,43.625 49.279,43.625 49.279,43.026 50.366,43.026 50.366,34.779 49.279,34.779 49.279,34.179 
	53.287,34.179 53.287,34.779 52.213,34.779 52.213,43.026 53.287,43.026 53.287,43.625 "/>
<polyline points="68.906,43.784 67.904,43.784 62.921,36.769 62.921,43.026 64.053,43.026 64.053,43.625 60.818,43.625 
	60.818,43.026 62.006,43.026 62.006,35.51 61.548,34.779 60.517,34.779 60.517,34.179 63.366,34.179 68.004,40.778 68.004,34.779 
	66.873,34.779 66.873,34.179 70.109,34.179 70.109,34.779 68.906,34.779 68.906,43.784 "/>
<path d="M78.728,43.755H77.94v-2.576h0.787v1.06c0.644,0.515,1.13,0.701,1.832,0.701c0.887,0,1.532-0.53,1.532-1.274
	c0-0.645-0.416-1.103-1.748-1.962c-1.403-0.888-1.575-1.031-1.945-1.461c-0.359-0.416-0.545-0.987-0.545-1.617
	c0-1.573,1.16-2.619,2.907-2.619c0.558,0,1.001,0.085,1.545,0.314v-0.43h0.774v2.448h-0.774v-0.987
	c-0.602-0.387-0.987-0.531-1.518-0.531c-0.744,0-1.316,0.531-1.316,1.204c0,0.571,0.329,0.931,1.704,1.802
	c0.657,0.43,1.073,0.69,1.231,0.805c0.329,0.227,0.63,0.543,0.873,0.931c0.272,0.441,0.401,0.916,0.401,1.474
	c0,1.633-1.188,2.776-2.863,2.776c-0.83,0-1.431-0.173-2.09-0.558V43.755"/>
<polyline points="97.439,43.625 92.83,43.625 92.83,43.026 94.218,43.026 94.218,35.024 91.742,35.024 91.742,36.211 90.955,36.211 
	90.955,33.778 91.742,33.778 91.742,34.179 98.527,34.179 98.527,33.778 99.314,33.778 99.314,36.211 98.527,36.211 98.527,35.024 
	96.064,35.024 96.064,43.026 97.439,43.026 97.439,43.625 "/>
<polyline points="109.501,43.625 105.494,43.625 105.494,43.026 106.581,43.026 106.581,34.779 105.494,34.779 105.494,34.179 
	109.501,34.179 109.501,34.779 108.427,34.779 108.427,43.026 109.501,43.026 109.501,43.625 "/>
<polyline points="121.894,43.625 117.285,43.625 117.285,43.026 118.673,43.026 118.673,35.024 116.197,35.024 116.197,36.211 
	115.408,36.211 115.408,33.778 116.197,33.778 116.197,34.179 122.982,34.179 122.982,33.778 123.771,33.778 123.771,36.211 
	122.982,36.211 122.982,35.024 120.519,35.024 120.519,43.026 121.894,43.026 121.894,43.625 "/>
<path d="M140.664,34.779h-1.203v5.383c0,1.619-0.559,2.635-1.775,3.206c-0.629,0.286-1.33,0.444-2.076,0.444
	c-2.318,0-3.822-1.275-3.822-3.249v-5.784h-1.088v-0.6h4.008v0.6h-1.074v5.34c0,1.447,0.26,2.104,0.99,2.491
	c0.342,0.17,0.758,0.272,1.188,0.272c1.717,0,2.719-1.016,2.719-2.763v-5.326h-1.188v-0.613h3.322V34.779"/>
<polyline points="153.847,43.625 149.238,43.625 149.238,43.026 150.626,43.026 150.626,35.024 148.15,35.024 148.15,36.211 
	147.363,36.211 147.363,33.778 148.15,33.778 148.15,34.179 154.937,34.179 154.937,33.778 155.724,33.778 155.724,36.211 
	154.937,36.211 154.937,35.024 152.472,35.024 152.472,43.026 153.847,43.026 153.847,43.625 "/>
<polyline points="169.468,43.625 162.654,43.625 162.654,43.026 163.742,43.026 163.742,34.779 162.654,34.779 162.654,34.179 
	168.55,34.179 168.55,33.778 169.324,33.778 169.324,36.053 168.566,36.053 168.566,35.024 165.587,35.024 165.587,38.401 
	167.878,38.401 167.878,37.427 168.652,37.414 168.652,40.233 167.878,40.249 167.878,39.246 165.587,39.246 165.587,42.78 
	168.695,42.78 168.695,41.722 169.468,41.722 169.468,43.625 "/>
<path d="M47.648,27.067v-1.471h2.982V2.305h-2.982V0.834h12.083c3.617,0,6.558,2.902,6.558,6.52c0,2.981-2.623,5.604-5.843,5.883
	c1.629,0.198,2.225,0.357,3.22,0.834c2.464,1.153,3.895,3.457,3.895,6.161c0,3.896-3.02,6.836-7.074,6.836H47.648L47.648,27.067z
	 M54.127,12.56h4.053c2.583,0,4.414-2.106,4.414-5.048c0-2.782-1.71-4.849-4.055-4.849h-4.412V12.56L54.127,12.56z M54.127,25.279
	h4.451c3.339,0,5.366-1.987,5.366-5.246c0-3.299-2.266-5.684-5.366-5.684h-4.451V25.279"/>
<path d="M94.589,27.067H91.21c-2.344,0-2.782-0.237-4.094-2.345l-5.922-9.419h-3.1v10.294h2.98v1.471h-9.46v-1.471h2.981V2.305
	h-2.981V0.834h11.05c3.854,0,6.041,1.074,7.235,3.538c0.515,1.073,0.792,2.266,0.792,3.537c0,3.856-2.146,6.321-5.961,6.876
	l5.725,8.824c0.953,1.471,1.588,1.947,2.584,1.947h1.549V27.067L94.589,27.067z M78.095,13.475h3.815
	c3.02,0,5.128-2.226,5.128-5.486c0-3.418-1.868-5.326-5.206-5.326h-3.736V13.475"/>
<path d="M95.662,13.991c0-7.473,5.803-13.633,12.838-13.633c6.916,0,12.721,6.2,12.721,13.594c0,7.393-5.805,13.632-12.721,13.632
	C101.503,27.583,95.662,21.384,95.662,13.991L95.662,13.991z M99.597,13.952c0,6.717,3.736,11.567,8.902,11.567
	c5.088,0,8.785-4.89,8.785-11.567c0-6.678-3.697-11.526-8.744-11.526C103.334,2.425,99.597,7.194,99.597,13.952"/>
<path d="M146.994,27.067h-9.061v-1.471h3.178l-2.781-7.153l-10.174-0.04l-2.904,7.154h3.299v1.51h-7.59v-1.51h2.066L133.361,0h1.43
	l9.938,25.557h2.266V27.067L146.994,27.067z M137.654,16.535l-4.252-11.168l-4.492,11.168H137.654"/>
<path d="M149.497,27.067v-1.471h2.98V2.305h-2.98V0.834h11.727c7.154,0,12.996,5.883,12.996,13.077
	c0,7.354-5.725,13.156-13.037,13.156H149.497L149.497,27.067z M155.976,25.08h4.77c5.445,0,9.578-4.81,9.539-11.129
	c0-6.121-4.211-11.09-9.459-11.09h-4.85V25.08"/>
<g>
	<path d="M18.996,16.721c6.448-3.797,13.374-6.807,20.654-8.928V0.784h-0.033c-9.884,2.592-19.108,6.667-27.381,11.969
		C14.424,14.163,16.679,15.487,18.996,16.721z"/>
	<path d="M39.65,27.28c-3.724-1.088-7.355-2.409-10.875-3.953c-2.806,1.102-5.544,2.327-8.204,3.672
		c5.993,3.048,12.385,5.486,19.079,7.245V27.28z"/>
	<path d="M5.534,17.46c1.904,1.481,3.875,2.889,5.902,4.225c2.024-1.475,4.107-2.866,6.244-4.173
		c-2.146-1.319-4.238-2.723-6.27-4.212C9.396,14.621,7.427,15.998,5.534,17.46z"/>
	<path d="M10.696,22.228c-1.897-1.419-3.74-2.912-5.528-4.472C3.386,19.147,1.667,20.605,0,22.115v0.128
		c1.674,1.527,3.406,2.998,5.198,4.405C6.977,25.106,8.81,23.63,10.696,22.228z"/>
	<path d="M19.064,27.802c-2.308,1.22-4.562,2.519-6.744,3.914c8.251,5.306,17.46,9.388,27.329,11.982v-6.976
		C32.393,34.602,25.489,31.595,19.064,27.802z"/>
	<path d="M39.65,24.79v-4.986c-2.74,0.719-5.431,1.548-8.064,2.489C34.218,23.237,36.909,24.069,39.65,24.79z"/>
	<path d="M12.278,22.234c2.19,1.41,4.448,2.734,6.768,3.968c2.41-1.418,4.883-2.73,7.419-3.924
		c-2.548-1.204-5.032-2.529-7.451-3.959C16.708,19.539,14.457,20.839,12.278,22.234z"/>
	<path d="M28.767,21.235c3.523-1.54,7.156-2.858,10.883-3.943v-7.011c-6.713,1.755-13.124,4.19-19.136,7.235
		C23.189,18.878,25.943,20.12,28.767,21.235z"/>
	<path d="M11.395,12.205c6.416-4.68,13.424-8.528,20.875-11.421H0V3.32C3.542,6.552,7.344,9.532,11.395,12.205z"/>
	<path d="M11.491,32.267C7.412,34.936,3.572,37.902,0,41.133v2.592h32.414C24.941,40.829,17.916,36.966,11.491,32.267z"/>
	<path d="M0,3.419v9.353c1.667,1.52,3.381,2.994,5.164,4.395c1.778-1.543,3.61-3.018,5.495-4.421C6.882,9.918,3.326,6.792,0,3.419z"
		/>
	<path d="M17.725,26.995c-2.148-1.318-4.241-2.723-6.275-4.211c-2.015,1.32-3.986,2.696-5.882,4.158
		c1.906,1.481,3.879,2.888,5.908,4.224C13.502,29.692,15.587,28.3,17.725,26.995z"/>
	<path d="M4.832,17.459C3.167,15.991,1.563,14.453,0,12.871V22C1.56,20.43,3.17,18.913,4.832,17.459z"/>
	<path d="M0,22.34v9.184c1.573-1.581,3.188-3.118,4.863-4.583C3.19,25.467,1.569,23.932,0,22.34z"/>
	<path d="M10.732,31.71c-1.899-1.418-3.743-2.911-5.532-4.471C3.407,28.638,1.679,30.107,0,31.624v9.408
		C3.351,37.66,6.931,34.534,10.732,31.71z"/>
</g>
</svg>
