<?xml version="1.0" encoding="utf-8"?>
<!-- Generator: Adobe Illustrator 23.1.1, SVG Export Plug-In . SVG Version: 6.00 Build 0)  -->
<svg version="1.1" id="Layer_1" xmlns="http://www.w3.org/2000/svg" xmlns:xlink="http://www.w3.org/1999/xlink" x="0px" y="0px"
	 viewBox="0 0 448.345 297.432" enable-background="new 0 0 448.345 297.432" xml:space="preserve">
<g>
	<path d="M120.087,56.67h-1.251c-0.07,1.458-0.836,2.085-2.293,2.085c-2.875,0-7.494-3.429-12.407-3.544h-0.455
		c-14.135,0.133-22.676,14.103-22.676,26.425c0,12.449,8.204,24.758,21.976,24.758c8.346,0,11.475-3.964,13.699-3.964
		c1.46,0,2.295,1.81,2.571,2.853h1.045v-17.04h-1.045l-0.414,2.364c-0.973,5.632-6.19,14.534-15.158,14.534
		c-7.932,0-10.988-7.438-10.988-24.339c0-17.736,4.173-24.341,11.194-24.341c7.93,0,13.84,9.527,14.952,16.621h1.251L120.087,56.67
		L120.087,56.67z"/>
	<path d="M158.033,99.383h-1.234c0,1.784-0.755,3.841-2.398,3.841c-1.238,0-1.58-1.302-1.58-3.429V84.018
		c0-7.818-7.34-9.737-14.401-9.737c-6.86,0-11.868,3.356-11.868,7.2c0,2.398,1.373,4.458,4.46,4.458
		c2.606,0,4.182-1.714,4.182-4.113c0-3.296-3.427-3.091-3.497-4.256c-0.071-1.51,3.909-2.055,6.241-2.055
		c5.144,0,5.83,2.536,5.83,6.65v5.761l-6.722,0.548c-6.245,0.479-13.034,2.129-13.034,9.26c0,5.971,5.351,8.369,10.632,8.369
		c2.677,0,7.41-1.026,9.193-4.321c1.234,2.883,3.772,4.321,6.86,4.321C155.153,106.103,158.033,103.431,158.033,99.383
		L158.033,99.383z M143.768,97.118c-0.137,3.637-2.193,6.931-5.421,6.931c-4.661,0-4.868-4.254-4.868-7.823
		c0-3.636,0.413-6.035,4.868-6.515l5.421-0.551V97.118L143.768,97.118z"/>
	<path d="M158.446,105.281h20.511v-1.233h-6.312V86.556c0-5.281,1.643-8.987,5.969-10.904h0.276
		c-1.169,1.231-1.651,2.33-1.651,4.046c0,2.673,1.993,4.459,4.665,4.459c3.294,0,5.214-2.403,5.214-5.008
		c0-3.294-2.196-5.283-5.417-5.283c-4.389,0-7.752,3.017-9.056,6.45h-0.136v-6.999c-1.441,1.786-6.518,1.786-9.327,1.786h-4.736
		v1.232h4.736v27.713h-4.736L158.446,105.281L158.446,105.281z"/>
	<path d="M188.213,105.281h18.247v-1.233h-4.045V85.251c0-3.497,3.427-8.504,7.27-8.504c1.989,0,4.048,0.822,4.048,5.624v21.677
		h-3.915v1.233h18.111v-1.233h-4.731v-19.14c0-7.406-3.157-10.63-9.674-10.63c-4.595,0-9.12,2.403-10.973,6.381h-0.136v-7.342
		c-1.441,1.786-6.519,1.786-9.327,1.786h-4.875v1.232h4.736v27.713h-4.736L188.213,105.281L188.213,105.281z"/>
	<path d="M290.967,77.364c0-2.399-2.607-3.633-4.664-3.633c-2.268,0-3.98,1.507-5.281,3.017c-1.992-1.44-4.734-2.469-8.577-2.469
		c-5.76,0-11.935,3.77-11.935,10.015c0,3.77,2.057,6.72,5.693,8.368v0.136c-2.672,0.343-6.857,2.193-6.857,7.889
		c0,3.428,1.575,6.034,4.46,6.858v0.138c-2.746,0.754-5.903,3.499-5.903,6.789c0,5.078,5.97,8.986,13.584,8.986
		c9.535,0,15.776-6.447,15.776-14.815c0-6.652-3.291-9.669-10.015-9.533H265.86c-1.712,0-4.044-0.069-4.044-1.923
		c0-1.714,2.95-3.568,5.552-3.568c0.756,0,1.507,0.208,2.263,0.413c0.828,0.274,1.72,0.414,2.814,0.414
		c5.9,0,12.209-3.361,12.209-9.88c0-2.194-1.031-5.28-2.949-6.926c1.236-1.237,1.851-2.744,4.527-3.087v0.138
		c-1.437,0.753-1.851,1.645-1.851,3.018c0,1.577,1.095,3.153,3.157,3.153C289.731,80.862,290.967,79.217,290.967,77.364
		L290.967,77.364z M264.902,107.752h10.768c6.86,0,9.125,0.615,9.125,4.802c0,5.006-6.178,9.671-13.101,9.671
		c-6.174,0-9.537-4.186-9.676-7.477C262.018,111.73,263.052,109.741,264.902,107.752L264.902,107.752z M276.834,84.294
		c-0.067,8.434-1.853,8.916-4.321,8.916c-2.745,0-4.185-0.891-4.185-9.123c0-5.559,0.618-8.572,4.185-8.572
		C275.738,75.515,276.767,76.403,276.834,84.294L276.834,84.294z"/>
	<path d="M292.066,105.281h18.929v-1.233h-4.735V73.317c-1.44,1.786-6.515,1.786-9.326,1.786h-4.868v1.232h4.729v27.713h-4.729
		V105.281L292.066,105.281z"/>
	<path d="M296.64,64.45c0,2.717,2.174,4.887,4.887,4.887c2.719,0,4.89-2.17,4.89-4.887c0-2.717-2.171-4.89-4.89-4.89
		C298.814,59.56,296.64,61.733,296.64,64.45L296.64,64.45z"/>
	<path d="M321.102,88.681h18.928c-0.068-7.406-6.928-14.539-14.125-14.403c-8.098,0-15.093,6.997-15.093,16.256
		c0,8.917,6.516,15.571,15.297,15.571c8.433,0,12.618-5.213,14.128-12.004h-1.235c-1.508,6.379-5.486,10.359-10.838,10.359
		c-6.376,0-7.062-5.352-7.062-10.016V88.681L321.102,88.681z M321.249,87.447l-0.147-5.899c0-4.595,1.986-6.035,4.321-6.035
		c3.29,0,4.322,2.263,4.322,6.035v5.899L321.249,87.447L321.249,87.447z"/>
	<path d="M80.31,165.6h13.302v-1.234h-0.959c-3.701,0-5.143-0.964-5.143-6.515v-38.893h0.139L104.04,165.6h1.852l15.98-45.82h0.137
		v44.586h-5.897v1.234h21.745v-1.234h-5.147v-45.821h5.147v-1.233h-16.534l-11.592,33.127h-0.133L98.21,117.312H80.652v1.233h5.214
		v39.921c0,2.947-0.685,5.9-5.283,5.9H80.31V165.6L80.31,165.6z"/>
	<path d="M147.475,149.001h18.933c-0.066-7.409-6.928-14.54-14.132-14.403c-8.091,0-15.089,6.994-15.089,16.254
		c0,8.92,6.516,15.572,15.295,15.572c8.438,0,12.624-5.215,14.131-12.002h-1.234c-1.508,6.375-5.49,10.356-10.842,10.356
		c-6.375,0-7.063-5.355-7.063-10.013v-5.764H147.475z M147.475,147.767v-5.9c0-4.594,1.989-6.035,4.321-6.035
		c3.294,0,4.323,2.264,4.323,6.035v5.9H147.475L147.475,147.767z"/>
	<path d="M166.614,165.6h18.931v-1.234h-4.735v-49.112c-1.234,2.058-5.006,2.058-9.877,2.058h-4.319v1.233h4.733v45.821h-4.733
		V165.6L166.614,165.6z"/>
	<path d="M186.779,165.6h18.93v-1.234h-4.731v-49.112c-1.235,2.058-5.008,2.058-9.879,2.058h-4.32v1.233h4.734v45.821h-4.734V165.6
		L186.779,165.6z"/>
	<path d="M237.733,150.51c0-9.397-7.268-15.911-16.323-15.911c-9.053,0-16.327,6.514-16.327,15.911
		c0,9.396,7.274,15.911,16.327,15.911C230.465,166.421,237.733,159.906,237.733,150.51L237.733,150.51z M227.033,157.919
		c0,5.143-2.125,7.27-5.623,7.27c-3.501,0-5.623-2.127-5.623-7.27v-14.816c0-5.143,2.122-7.27,5.623-7.27
		c3.498,0,5.623,2.127,5.623,7.27V157.919L227.033,157.919z"/>
	<path d="M237.472,165.6h18.243v-1.234h-4.047v-18.794c0-3.499,3.433-8.504,7.269-8.504c1.992,0,4.049,0.822,4.049,5.621v21.677
		h-3.913v1.234h18.112v-1.234h-4.731V145.23c0-7.409-3.16-10.634-9.674-10.634c-4.596,0-9.122,2.403-10.976,6.379h-0.136v-7.338
		c-1.44,1.784-6.517,1.784-9.326,1.784h-4.87v1.232h4.729v27.713h-4.729L237.472,165.6L237.472,165.6z"/>
	<path d="M80.447,177.586h5.35v31.077c0,10.632,7.339,17.078,18.52,17.078c12.622,0,18.106-6.653,18.106-16.735V183.35
		c0-3.976,1.098-5.764,3.569-5.764h1.786v-1.232h-13.586v1.232h1.992c3.496,0,4.594,1.788,4.594,5.764v26.067
		c0,9.331-5.626,13.854-12.279,13.854c-10.013,0-12.002-6.722-12.002-15.5v-30.185h5.554v-1.232H80.447V177.586L80.447,177.586z"/>
	<path d="M125.076,224.642h18.247v-1.235h-4.047v-18.793c0-3.496,3.43-8.508,7.269-8.508c1.989,0,4.049,0.827,4.049,5.629v21.672
		h-3.914v1.235h18.111v-1.235h-4.731v-19.136c0-7.407-3.159-10.635-9.673-10.635c-4.598,0-9.12,2.405-10.976,6.385h-0.136v-7.343
		c-1.441,1.785-6.516,1.785-9.327,1.785h-4.872v1.235h4.732v27.709h-4.732L125.076,224.642L125.076,224.642z"/>
	<path d="M165.82,224.642h18.931v-1.235h-4.733v-30.729c-1.441,1.785-6.517,1.785-9.33,1.785h-4.868v1.235h4.732v27.709h-4.732
		V224.642L165.82,224.642z"/>
	<path d="M170.394,183.812c0,2.716,2.174,4.888,4.889,4.888c2.72,0,4.889-2.172,4.889-4.888c0-2.715-2.168-4.887-4.889-4.887
		C172.568,178.925,170.394,181.097,170.394,183.812L170.394,183.812z"/>
	<path d="M198.676,225.464h1.849l10.154-24.006c1.714-3.843,3.152-5.694,4.73-5.762h0.617v-1.233h-10.699v1.233h1.304
		c1.99,0,3.154,0.755,3.154,2.54c0,1.099-0.343,2.607-1.164,4.525l-4.662,10.98l-8.028-18.045h4.115v-1.233h-17.215v1.233h2.947
		L198.676,225.464L198.676,225.464z"/>
	<path d="M224.125,208.043h18.93c-0.068-7.407-6.928-14.541-14.133-14.402c-8.091,0-15.089,6.995-15.089,16.258
		c0,8.914,6.519,15.565,15.295,15.565c8.439,0,12.624-5.209,14.131-12.001h-1.232c-1.508,6.379-5.486,10.357-10.839,10.357
		c-6.381,0-7.063-5.35-7.063-10.013L224.125,208.043L224.125,208.043z M224.125,206.808v-5.897c0-4.598,1.987-6.037,4.318-6.037
		c3.292,0,4.324,2.263,4.324,6.037v5.897H224.125L224.125,206.808z"/>
	<path d="M243.183,224.642h20.511v-1.235h-6.313V205.92c0-5.284,1.649-8.987,5.97-10.907h0.272c-1.167,1.232-1.646,2.33-1.646,4.05
		c0,2.672,1.992,4.455,4.664,4.455c3.295,0,5.213-2.4,5.213-5.01c0-3.294-2.19-5.28-5.417-5.28c-4.392,0-7.747,3.017-9.056,6.45
		h-0.136v-7c-1.44,1.785-6.516,1.785-9.33,1.785h-4.732v1.235h4.732v27.709h-4.732L243.183,224.642L243.183,224.642z"/>
	<path d="M273.479,225.464h1.236c0.34-1.097,1.436-1.644,2.808-1.644c1.785,0,3.913,1.644,7.754,1.644
		c6.517,0,10.974-5.622,10.974-11.244c0-8.37-5.76-8.991-13.101-10.019c-3.842-0.55-6.242-1.165-6.242-4.18
		c0-3.228,2.814-5.147,6.514-5.147c5.145,0,7.89,4.047,9.605,8.505h1.096l-0.408-9.738h-1.031c0,0.822-0.822,1.508-2.123,1.508
		c-2.198,0-3.981-1.508-7.139-1.508c-6.86,0-10.22,5.83-10.22,10.217c0,8.849,6.724,9.605,11.939,10.221
		c4.939,0.62,6.996,1.099,6.996,4.255c0,3.636-3.015,5.9-6.722,5.9c-5.214,0-9.468-5.285-10.7-10.292h-1.236L273.479,225.464
		L273.479,225.464z"/>
	<path d="M297.329,224.642h18.932v-1.235h-4.733v-30.729c-1.437,1.785-6.517,1.785-9.328,1.785h-4.871v1.235h4.734v27.709h-4.734
		V224.642L297.329,224.642z"/>
	<path d="M301.909,183.812c0,2.716,2.168,4.888,4.887,4.888c2.713,0,4.889-2.172,4.889-4.888c0-2.715-2.176-4.887-4.889-4.887
		C304.077,178.925,301.909,181.097,301.909,183.812L301.909,183.812z"/>
	<path d="M319.54,195.698v21.95c0,6.515,5.622,7.816,7.543,7.816c4.185,0,6.999-1.712,9.122-5.279l-0.893-0.479
		c-0.822,1.235-1.919,2.879-3.63,2.879c-1.785,0-2.678-1.301-2.678-3.565v-23.322h6.308v-1.235h-6.308v-14.749h-1.235
		c0,7.268-4.936,14.749-11.867,14.749v1.235L319.54,195.698L319.54,195.698z"/>
	<path d="M335.108,195.698h2.882l13.171,30.522l-0.413,2.744c-0.272,1.99-1.644,9.813-3.909,10.496v-0.204
		c0.273-0.961,0.344-1.72,0.344-2.335c0-2.332-1.65-4.114-4.529-4.114c-3.018,0-4.529,2.057-4.529,4.661
		c0,2.817,2.607,4.803,5.628,4.803c5.419,0,6.79-5.965,7.408-8.847l1.851-8.368l3.567-8.915l6.79-15.298
		c1.507-3.5,2.881-5.145,4.391-5.145h0.55v-1.235h-10.705v1.235h1.442c2.196,0,3.157,1.235,3.157,2.399
		c0,1.374-0.893,3.638-1.989,6.245l-3.979,9.393l-8.022-18.037h4.523v-1.235h-17.629L335.108,195.698L335.108,195.698z"/>
	<path d="M238.767,88.681h18.93c-0.066-7.406-6.93-14.539-14.127-14.403c-8.096,0-15.089,6.997-15.089,16.256
		c0,8.917,6.514,15.571,15.293,15.571c8.435,0,12.622-5.213,14.129-12.004h-1.232c-1.51,6.379-5.49,10.359-10.84,10.359
		c-6.378,0-7.064-5.352-7.064-10.016V88.681L238.767,88.681z M238.916,87.447l-0.149-5.899c0-4.595,1.989-6.035,4.321-6.035
		c3.293,0,4.321,2.263,4.321,6.035v5.899L238.916,87.447L238.916,87.447z"/>
</g>
</svg>
