<?xml version="1.0" encoding="utf-8"?>
<!-- Generator: Adobe Illustrator 23.1.1, SVG Export Plug-In . SVG Version: 6.00 Build 0)  -->
<svg version="1.1"
	 id="svg2" inkscape:version="0.48.5 r10040" sodipodi:docname="20120921_Expedia_Logos Usage_Rev.pdf" xmlns:cc="http://creativecommons.org/ns#" xmlns:dc="http://purl.org/dc/elements/1.1/" xmlns:inkscape="http://www.inkscape.org/namespaces/inkscape" xmlns:rdf="http://www.w3.org/1999/02/22-rdf-syntax-ns#" xmlns:sodipodi="http://sodipodi.sourceforge.net/DTD/sodipodi-0.dtd" xmlns:svg="http://www.w3.org/2000/svg"
	 xmlns="http://www.w3.org/2000/svg" xmlns:xlink="http://www.w3.org/1999/xlink" x="0px" y="0px" viewBox="0 0 1866.839 557.596"
	 enable-background="new 0 0 1866.839 557.596" xml:space="preserve">
<sodipodi:namedview  bordercolor="#666666" borderopacity="1" fit-margin-bottom="1" fit-margin-left="1" fit-margin-right="1" fit-margin-top="1" gridtolerance="10" guidetolerance="10" id="namedview4" inkscape:current-layer="g14" inkscape:cx="72.424167" inkscape:cy="33.919588" inkscape:pageopacity="0" inkscape:pageshadow="2" inkscape:window-height="1017" inkscape:window-maximized="1" inkscape:window-width="1920" inkscape:window-x="-8" inkscape:window-y="-8" inkscape:zoom="6.9804842" objecttolerance="10" pagecolor="#ffffff" showgrid="false">
	</sodipodi:namedview>
<g>
	<path id="path22" inkscape:connector-curvature="0" d="M909.087,383.364h-40.601c-0.182,0-0.291-0.036-0.4-0.164l-34.983-42.729
		L798.083,383.2c-0.073,0.127-0.2,0.164-0.382,0.164h-32.51c-0.2,0-0.345-0.091-0.491-0.309c-0.055-0.127-0.055-0.364,0.073-0.509
		l51.529-63.293l-50.929-62.693c-0.145-0.218-0.145-0.4-0.091-0.6c0.091-0.109,0.291-0.291,0.455-0.291h40.619
		c0.127,0,0.273,0.073,0.382,0.255l30.692,38.038l31.237-38.056c0.091-0.164,0.236-0.236,0.382-0.236h33.11
		c0.2,0,0.4,0.182,0.473,0.291c0.091,0.2,0.055,0.418-0.073,0.6l-48.347,58.056l55.22,67.929c0.145,0.145,0.2,0.382,0.091,0.509
		C909.432,383.273,909.25,383.364,909.087,383.364"/>
	<path id="path26" inkscape:connector-curvature="0" d="M1128.837,278.182c-17.982,0-30.255,10.909-33.765,29.874h61.166v-1.218
		C1156.238,291.655,1145.056,278.182,1128.837,278.182 M1187.784,327.511c-0.091,0.145-0.273,0.236-0.436,0.236h-92.93
		c1.927,21.637,15.982,33.965,38.728,33.965c14,0,28.874-4.782,49.893-15.964c0.382-0.218,0.764,0.109,0.764,0.509l-0.036,28.583
		c-0.036,0.236-0.146,0.382-0.309,0.436c-19.546,8.237-39.183,13.855-54.62,13.855c-40.019,0-69.02-29.165-69.02-69.329
		s29.001-69.329,69.02-69.329c36.51,0,59.966,24.601,59.966,58.438C1188.802,314.383,1187.857,327.111,1187.784,327.511"/>
	<path id="path30" inkscape:connector-curvature="0" d="M1376.565,229.308c-11.4,0-20.673-9.128-20.673-20.364
		c0-11.564,9.273-20.928,20.673-20.928c11.4,0,20.692,9.364,20.692,20.928C1397.256,220.181,1387.965,229.308,1376.565,229.308
		 M1359.873,383.368c-0.327,0-0.527-0.2-0.527-0.527V256.2c0-0.255,0.182-0.455,0.4-0.509h33.565
		c0.273,0.055,0.418,0.255,0.418,0.509v126.64c0,0.327-0.218,0.527-0.491,0.527C1393.238,383.368,1359.873,383.368,1359.873,383.368
		z"/>
	<path id="path34" inkscape:connector-curvature="0" d="M970.474,364.294c-6.055,0-12.255-0.855-19.382-2.764l0.073-81.239
		c8.346-2.655,15.6-3.909,22.783-3.909c23.273,0,38.892,17.164,38.892,42.656C1012.839,346.53,996.202,364.294,970.474,364.294
		 M979.602,250.49c-9.473,0-19.037,1.727-29.074,5.182h-33.401c-0.273,0-0.473,0.236-0.473,0.527v207.679
		c10.091-1.382,22.455-4.982,34.456-13.528l-0.018-63.166c8.237,1.164,15.037,1.946,21.601,1.946
		c45.747,0,75.348-27.419,75.348-69.875C1048.04,278.782,1019.876,250.49,979.602,250.49"/>
	<path id="path38" inkscape:connector-curvature="0" d="M1298.755,353.777c-10.455,5.491-19.801,8.091-28.583,8.091
		c-20.71,0-33.128-14.637-33.128-39.147c0-28.365,15.855-46.711,40.365-46.711c6.764,0,13.346,1.655,21.346,5.273V353.777z
		 M1298.755,188.627v66.293c-9.8-2.8-18.437-4.091-27.146-4.091c-39.801,0-69.857,30.001-69.857,69.857
		c0,39.674,26.51,68.439,62.984,68.439c12.637,0,24.455-3.164,38.365-10.328l-0.018,11.437c9.182-1.745,19.728-5.418,30.128-12.782
		V175.063C1322.992,176.426,1310.883,179.844,1298.755,188.627"/>
	<path id="path42" inkscape:connector-curvature="0" d="M1510.018,353.526c-10.109,5.837-18.782,8.637-26.528,8.637
		c-22.182,0-35.474-14.582-35.474-39.183c0-27.946,15.655-46.692,38.929-46.692c6.236,0,13.8,2.382,23.073,7.291V353.526z
		 M1544.51,254.141c0-0.782-0.673-1.4-1.436-1.4l-27.128,0.036c-0.8,0-1.473,0.691-1.473,1.455v4.618h-0.691
		c-12.528-5.491-23.201-8.018-33.728-8.018c-37.528,0-66.948,31.11-66.948,70.984c0,40.31,26.328,67.329,65.511,67.329
		c10.491,0,23.928-0.727,36.51-15.2v16.291c8.891-1.891,19.382-5.673,29.346-12.837C1544.474,377.4,1544.51,254.141,1544.51,254.141
		z"/>
	<path id="path46" inkscape:connector-curvature="0" d="M672.326,351.675l84.257-0.036c-1.273,9.418-4.455,20.437-11.764,31.674
		h-72.293h-14.4h-0.964c-10.728,0-19.546-8.309-20.601-18.819c-0.055-0.164-0.109-0.309-0.127-0.455v-86.294v-79.875
		c0.018-0.127,0.073-0.309,0.127-0.418c1.055-10.528,9.873-18.873,20.601-18.873c0.345,0,0.673,0.036,0.964,0.036l98.276-0.018
		c-1.291,9.4-4.473,20.71-11.764,31.91h-72.311v45.238h71.584c0.291,0,0.509,0.2,0.509,0.491v31.383
		c0,0.255-0.218,0.491-0.509,0.491h-71.584v63.529V351.675z"/>
	<path id="path50" inkscape:connector-curvature="0" d="M566.854,385.951c-8.328,0-13.473-6.509-13.473-14.473
		c0-8.528,5.891-14.473,13.473-14.473c7.509,0,13.382,5.946,13.382,14.473C580.236,380.024,574.364,385.951,566.854,385.951
		 M566.854,355.368c-8.528,0-15.819,6.418-15.819,16.11c0,9.164,6.582,16.055,15.819,16.055c8.418,0,15.746-6.382,15.746-16.055
		C582.6,361.787,575.273,355.368,566.854,355.368"/>
	<path id="path54" inkscape:connector-curvature="0" d="M563.074,370.154v-5.873h3.964c2,0,4.364,0.309,4.364,2.746
		c0,2.891-2.182,3.127-4.673,3.127H563.074z M574.329,367.408c0-3.836-2.364-5.473-6.946-5.473h-7.218v19.037h3.146v-8.146h2.909
		l4.927,8.146h3.546l-5.346-8.364C572.238,372.263,574.329,370.863,574.329,367.408"/>
	<path id="path58" inkscape:connector-curvature="0" d="M1572.215,276.753c-8.328,0-13.51-6.509-13.51-14.473
		c0-8.528,5.909-14.473,13.51-14.473c7.491,0,13.382,5.946,13.382,14.473C1585.597,270.825,1579.706,276.753,1572.215,276.753
		 M1572.215,246.17c-8.528,0-15.819,6.418-15.819,16.11c0,9.164,6.564,16.055,15.819,16.055c8.4,0,15.71-6.4,15.71-16.055
		C1587.924,252.588,1580.615,246.17,1572.215,246.17"/>
	<path id="path62" inkscape:connector-curvature="0" d="M1568.418,260.947v-5.855h3.964c2,0,4.364,0.291,4.364,2.727
		c0,2.909-2.2,3.127-4.655,3.127H1568.418z M1579.673,258.202c0-3.836-2.364-5.473-6.946-5.473h-7.218v19.037h3.109v-8.128h2.946
		l4.927,8.128h3.527l-5.327-8.364C1577.564,263.074,1579.673,261.656,1579.673,258.202"/>
	<path id="path66" inkscape:connector-curvature="0" d="M458.169,210.353l-6.109-17.291l-51.82-69.257l9.309-2.309l89.348,77.239
		l52.583-15.037c6.182-1.6,13.2-1.946,18.546-1.909c-16.528-35.637-46.765-64.893-86.694-79.112
		c-78.93-28.128-165.714,13.109-193.788,92.076c-8.691,24.419-10.764,49.62-7.109,73.584l125.968-43.765L458.169,210.353z"/>
	<path id="path70" inkscape:connector-curvature="0" d="M575.561,195.438c-4.618,3-11.4,6.927-18.128,9.091l-52.693,15.037
		l-35.165,112.876l-9.128,2.964l7.418-86.203l-4.146-17.91l-49.383,14.091l-130.513,30.728
		c10.328,50.238,45.892,93.985,97.73,112.458c78.948,28.128,165.696-13.128,193.77-92.039
		C587.435,262.512,586.653,227.02,575.561,195.438"/>
</g>
</svg>
