<?xml version="1.0" encoding="utf-8"?>
<!-- Generator: Adobe Illustrator 23.1.1, SVG Export Plug-In . SVG Version: 6.00 Build 0)  -->
<svg version="1.1" id="Layer_1" xmlns="http://www.w3.org/2000/svg" xmlns:xlink="http://www.w3.org/1999/xlink" x="0px" y="0px"
	 viewBox="0 0 104.5 30.58" enable-background="new 0 0 104.5 30.58" xml:space="preserve">
<g>
	<g id="Layer_1-2">
		<path d="M67.53,11.43L67.53,11.43c0.352-1.191,1.448-2.006,2.69-2c1.245-0.002,2.345,0.81,2.71,2l0,0H67.53z M74.53,12.3v-0.11
			c0.011-2.386-1.914-4.329-4.3-4.34c-2.386-0.011-4.329,1.914-4.34,4.3s1.914,4.329,4.3,4.34c1.363,0.006,2.649-0.631,3.47-1.72
			L72.41,14c-0.528,0.642-1.319,1.01-2.15,1c-1.244-0.001-2.342-0.812-2.71-2l0,0h7c0,0,0-0.13,0-0.66 M79.55,7.94
			c-1.955-0.006-3.544,1.575-3.55,3.53c0,0,0,0,0,0v5h1.69v-5c0-1.027,0.833-1.86,1.86-1.86s1.86,0.833,1.86,1.86v5h1.7v-5
			c0.011-1.953-1.557-3.548-3.51-3.57 M84.88,16.42h1.7V8h-1.7V16.42z M100.94,7.9c-0.656-0.001-1.3,0.179-1.86,0.52V0h-1.69v16.42
			h1.69v-5c0-1.027,0.833-1.86,1.86-1.86s1.86,0.833,1.86,1.86v9.21h1.69v-9.2C104.484,9.475,102.895,7.894,100.94,7.9
			C100.94,7.9,100.94,7.9,100.94,7.9 M84.88,5.9h1.7V3.78h-1.7V5.9z M92.49,15c-1.53-0.002-2.768-1.244-2.766-2.774
			s1.244-2.768,2.774-2.766c0.932,0.001,1.8,0.471,2.311,1.25l1.34-0.88c-1.306-2.03-4.01-2.616-6.04-1.31s-2.616,4.01-1.31,6.04
			s4.01,2.616,6.04,1.31c0.525-0.338,0.972-0.785,1.31-1.31l-1.36-0.85C94.289,14.499,93.425,14.984,92.49,15 M42,5.88h1.7v-2.1H42
			V5.88z M61,7.9c-1.044-0.006-2.037,0.452-2.71,1.25c-1.266-1.497-3.506-1.683-5.003-0.417c-0.794,0.672-1.253,1.657-1.257,2.697v5
			h1.69v-5c0-1.027,0.833-1.86,1.86-1.86s1.86,0.833,1.86,1.86v5h1.7v-5c0-1.027,0.833-1.86,1.86-1.86s1.86,0.833,1.86,1.86v5h1.69
			v-5C64.544,9.475,62.955,7.894,61,7.9C61,7.9,61,7.9,61,7.9 M36.23,1.68h16.2V0H27.21v1.68h7.32V8h-4.26v1.67h4.26v11h1.7v-11H42
			v6.75h1.7V8h-7.47V1.68z M45.75,11.43v5h1.69v-5c-0.001-1.027,0.83-1.861,1.857-1.863c0.637-0.001,1.231,0.325,1.573,0.863
			c0.155-0.592,0.446-1.14,0.85-1.6c-0.663-0.6-1.526-0.931-2.42-0.93C47.345,7.894,45.756,9.475,45.75,11.43
			C45.75,11.43,45.75,11.43,45.75,11.43"/>
		<path d="M35.26,26v3h-0.74v-3h-0.41v-0.57h0.41v-0.57c0-0.552,0.448-1,1-1H36v0.64h-0.32c-0.28,0-0.4,0.16-0.4,0.43v0.53H36V26
			H35.26z"/>
		<path d="M39.17,26.18c-0.302-0.278-0.768-0.278-1.07,0c-0.202,0.292-0.291,0.647-0.25,1c-0.04,0.353,0.049,0.708,0.25,1
			c0.302,0.278,0.768,0.278,1.07,0c0.201-0.292,0.29-0.647,0.25-1C39.461,26.827,39.372,26.472,39.17,26.18 M39.72,28.65
			c-0.605,0.585-1.565,0.585-2.17,0c-0.33-0.411-0.485-0.936-0.43-1.46c-0.049-0.518,0.105-1.034,0.43-1.44
			c0.605-0.585,1.565-0.585,2.17,0c0.333,0.402,0.488,0.922,0.43,1.44C40.212,27.715,40.056,28.242,39.72,28.65"/>
		<path d="M43.79,26.22c-0.134-0.165-0.338-0.257-0.55-0.25c-0.414,0.014-0.738,0.361-0.724,0.775
			c0.001,0.018,0.002,0.037,0.004,0.055V29h-0.73v-3.65h0.71v0.4c0.244-0.297,0.616-0.461,1-0.44c0.328-0.019,0.647,0.109,0.87,0.35
			L43.79,26.22z"/>
		<path d="M49.25,26c-0.66,0-0.75,0.58-0.75,1.16s0.09,1.16,0.75,1.16s0.74-0.58,0.74-1.16S49.91,26,49.25,26 M49.16,30.61
			c-0.478,0.03-0.945-0.149-1.28-0.49l0.47-0.47c0.201,0.223,0.491,0.344,0.79,0.33c0.458,0.024,0.848-0.327,0.873-0.785
			C50.016,29.13,50.012,29.064,50,29v-0.48c-0.226,0.287-0.576,0.447-0.94,0.43c-0.322,0.01-0.636-0.108-0.87-0.33
			c-0.333-0.424-0.481-0.965-0.41-1.5c-0.071-0.535,0.077-1.076,0.41-1.5c0.24-0.219,0.556-0.334,0.88-0.32
			c0.371-0.023,0.728,0.142,0.95,0.44v-0.4h0.71V29c0.051,0.81-0.564,1.509-1.374,1.56c-0.062,0.004-0.124,0.004-0.186,0"/>
		<path d="M54.41,26.18c-0.145-0.14-0.339-0.215-0.54-0.21c-0.199-0.01-0.392,0.067-0.53,0.21c-0.202,0.292-0.291,0.647-0.25,1
			c-0.04,0.353,0.049,0.708,0.25,1c0.141,0.139,0.332,0.215,0.53,0.21c0.2,0.001,0.393-0.074,0.54-0.21
			c0.201-0.292,0.29-0.647,0.25-1C54.701,26.827,54.612,26.472,54.41,26.18 M55,28.65c-0.286,0.292-0.681,0.451-1.09,0.44
			c-0.407,0.016-0.8-0.144-1.08-0.44c-0.336-0.408-0.492-0.935-0.43-1.46c-0.058-0.518,0.097-1.038,0.43-1.44
			c0.28-0.296,0.673-0.456,1.08-0.44c0.409-0.011,0.804,0.148,1.09,0.44c0.325,0.406,0.479,0.922,0.43,1.44
			C55.485,27.714,55.33,28.239,55,28.65"/>
		<path d="M58.9,26.18c-0.302-0.278-0.768-0.278-1.07,0c-0.202,0.292-0.291,0.647-0.25,1c-0.04,0.353,0.049,0.708,0.25,1
			c0.302,0.278,0.768,0.278,1.07,0c0.201-0.292,0.29-0.647,0.25-1C59.191,26.827,59.102,26.472,58.9,26.18 M59.45,28.65
			c-0.605,0.585-1.565,0.585-2.17,0c-0.33-0.411-0.485-0.936-0.43-1.46c-0.049-0.518,0.105-1.034,0.43-1.44
			c0.605-0.585,1.565-0.585,2.17,0c0.333,0.402,0.488,0.922,0.43,1.44C59.942,27.715,59.786,28.242,59.45,28.65"/>
		<path d="M62.84,26c-0.66,0-0.76,0.57-0.76,1.22s0.1,1.23,0.76,1.23s0.75-0.57,0.75-1.23S63.5,26,62.84,26 M63.61,29v-0.39
			c-0.234,0.31-0.613,0.477-1,0.44c-0.325,0.009-0.641-0.11-0.88-0.33c-0.33-0.453-0.476-1.014-0.41-1.57
			c-0.065-0.55,0.081-1.104,0.41-1.55c0.236-0.226,0.554-0.345,0.88-0.33c0.382-0.046,0.76,0.109,1,0.41v-1.82h0.73V29H63.61z"/>
		<polygon points="66.11,28.2 66.11,30.17 66.94,29.48 66.94,28.2 		"/>
		<path d="M73.31,29v-2.21c0.056-0.394-0.219-0.758-0.612-0.813c-0.042-0.006-0.085-0.008-0.128-0.007
			c-0.403-0.014-0.741,0.301-0.755,0.704c-0.001,0.039,0,0.078,0.005,0.116V29h-0.73v-3.65h0.72v0.37
			c0.259-0.274,0.623-0.424,1-0.41c0.329-0.014,0.649,0.105,0.89,0.33c0.239,0.294,0.347,0.674,0.3,1.05V29H73.31z"/>
		<path d="M77.75,27.41H76.9c-0.43,0-0.66,0.2-0.66,0.53s0.21,0.53,0.67,0.53c0.246,0.033,0.495-0.044,0.68-0.21
			c0.124-0.155,0.182-0.353,0.16-0.55V27.41z M77.75,29.04v-0.33c-0.255,0.276-0.626,0.417-1,0.38c-0.367,0.037-0.732-0.087-1-0.34
			c-0.189-0.219-0.289-0.501-0.28-0.79c0-0.62,0.42-1.06,1.25-1.06h1v-0.27c0-0.46-0.23-0.69-0.79-0.69
			c-0.313-0.038-0.621,0.101-0.8,0.36l-0.48-0.46c0.314-0.387,0.805-0.587,1.3-0.53c1,0,1.5,0.43,1.5,1.27V29L77.75,29.04z"/>
		<path d="M81.34,29c-0.552,0-1-0.448-1-1v-2h-0.42v-0.57h0.42V24.3h0.73v1.12h0.7V26h-0.7v2c0,0.27,0.13,0.43,0.4,0.43h0.3V29
			H81.34z"/>
		<path d="M85.54,29v-0.37c-0.254,0.282-0.621,0.437-1,0.42c-0.333,0.011-0.657-0.111-0.9-0.34c-0.255-0.268-0.389-0.63-0.37-1
			v-2.36h0.74v2.25c0,0.58,0.32,0.82,0.73,0.82c0.397,0.02,0.736-0.285,0.756-0.682c0.002-0.046,0-0.092-0.006-0.138v-2.25h0.73V29
			H85.54z"/>
		<path d="M90.07,26.22c-0.133-0.166-0.337-0.259-0.55-0.25c-0.414,0.014-0.738,0.361-0.724,0.775
			c0.001,0.018,0.002,0.037,0.004,0.055V29h-0.73v-3.65h0.72v0.4c0.242-0.3,0.615-0.464,1-0.44c0.328-0.02,0.648,0.108,0.87,0.35
			L90.07,26.22z"/>
		<path d="M93.73,27.41h-0.85c-0.43,0-0.65,0.2-0.65,0.53s0.21,0.53,0.66,0.53c0.249,0.032,0.501-0.045,0.69-0.21
			c0.116-0.159,0.169-0.354,0.15-0.55L93.73,27.41z M93.73,29.04v-0.33c-0.255,0.276-0.626,0.417-1,0.38
			c-0.367,0.036-0.731-0.088-1-0.34c-0.189-0.219-0.289-0.501-0.28-0.79c0-0.62,0.42-1.06,1.25-1.06h1v-0.27
			c0-0.46-0.23-0.69-0.79-0.69c-0.312-0.035-0.619,0.103-0.8,0.36l-0.48-0.46c0.329-0.409,0.851-0.611,1.37-0.53
			c1,0,1.49,0.43,1.49,1.27V29L93.73,29.04z"/>
		<path d="M97.21,29c-0.512,0.04-0.96-0.342-1-0.854c-0.004-0.048-0.004-0.097,0-0.146v-4.14H97V28c0,0.28,0.1,0.43,0.39,0.43h0.32
			V29H97.21z"/>
		<path d="M100.09,29c-0.512,0.04-0.96-0.342-1-0.854c-0.004-0.048-0.004-0.097,0-0.146v-4.14h0.73V28c0,0.28,0.1,0.43,0.39,0.43
			h0.33V29H100.09z"/>
		<path d="M102.89,29.78c-0.054,0.172-0.146,0.329-0.27,0.46c-0.199,0.187-0.467,0.285-0.74,0.27h-0.3v-0.67h0.19
			c0.31,0,0.42-0.1,0.52-0.4l0.2-0.57l-1.26-3.52H102l0.87,2.6l0.84-2.6h0.79L102.89,29.78z"/>
		<path d="M7.94,5.43c2.177-3.094,6.45-3.837,9.544-1.66c0.691,0.486,1.287,1.097,1.756,1.8c0.704-0.427,1.443-0.792,2.21-1.09
			c-2.693-4.367-8.416-5.725-12.783-3.032C7.147,2.384,5.93,3.739,5.16,5.35C6.09,5.35,7.02,5.35,7.94,5.43"/>
		<path d="M18.32,6.17c-1.772-2.635-5.345-3.335-7.98-1.564C9.934,4.879,9.564,5.203,9.24,5.57c2.521,0.339,4.978,1.05,7.29,2.11
			C17.087,7.131,17.685,6.626,18.32,6.17"/>
		<path d="M16.78,9c-0.425,0.462-0.813,0.957-1.16,1.48c-0.345,0.507-0.659,1.035-0.94,1.58c2.899,1.345,5.459,3.323,7.49,5.79
			c0.883-0.902,1.621-1.934,2.19-3.06C22.229,12.39,19.656,10.424,16.78,9"/>
		<path d="M13.93,22.51c0.267,0.762,0.602,1.498,1,2.2c1.649-0.14,3.259-0.581,4.75-1.3L18,21.74c-1.3,0.471-2.668,0.731-4.05,0.77"
			/>
		<path d="M13.25,17.78c-0.037,1.246,0.101,2.492,0.41,3.7c1.205-0.014,2.401-0.206,3.55-0.57c-1.153-1.256-2.504-2.313-4-3.13"/>
		<path d="M23.35,18.11h2.1c0.545-0.904,0.984-1.866,1.31-2.87H25.3C24.78,16.279,24.124,17.244,23.35,18.11"/>
		<path d="M25.79,14.14h1.27c0.215-0.959,0.329-1.937,0.34-2.92c0.007-0.521-0.017-1.042-0.07-1.56h-0.65
			C26.648,11.194,26.347,12.71,25.79,14.14"/>
		<path d="M25.56,7.92c-0.131-1.097-0.413-2.171-0.84-3.19c-0.887,0.14-1.758,0.368-2.6,0.68C23.323,6.167,24.472,7.006,25.56,7.92"
			/>
		<path d="M19,21.32l1.6,1.58c1.63-0.95,3.046-2.227,4.16-3.75h-2.44C21.328,20.035,20.209,20.767,19,21.32"/>
		<path d="M17.59,8.19c2.728,1.391,5.187,3.256,7.26,5.51c0.526-1.38,0.797-2.843,0.8-4.32C24.216,8.073,22.659,6.907,21,5.9
			c-1.229,0.589-2.362,1.361-3.36,2.29"/>
		<path d="M26.66,8.62h0.52c-0.254-1.397-0.723-2.746-1.39-4C26.288,5.9,26.581,7.249,26.66,8.62"/>
		<path d="M14.25,13c-0.477,1.165-0.79,2.39-0.93,3.64c1.879,0.962,3.553,2.28,4.93,3.88c1.15-0.501,2.216-1.175,3.16-2
			C19.469,16.165,17.022,14.278,14.25,13"/>
		<path d="M14.71,9.86l0.16-0.23c-3.973,1.94-6.948,5.46-8.2,9.7c1.732,1.202,3.749,1.926,5.85,2.1
			C11.587,17.437,12.382,13.236,14.71,9.86"/>
		<path d="M14,8.83c-4.335,0.269-8.477,1.892-11.84,4.64c0.716,2.004,1.951,3.781,3.58,5.15C7.097,14.397,10.065,10.879,14,8.83"/>
		<path d="M12.83,22.57v-0.08C5.867,22.108,0.415,16.353,0.41,9.38C0.407,8.581,0.481,7.784,0.63,7l0,0
			c-2.252,7.217,1.772,14.894,8.99,17.147c0.003,0.001,0.007,0.002,0.01,0.003c1.265,0.4,2.583,0.609,3.91,0.62h0.21
			c-0.354-0.709-0.651-1.444-0.89-2.2H12.83z"/>
		<path d="M1.81,12.33c3.421-2.679,7.565-4.274,11.9-4.58c-3.858-1.31-7.978-1.653-12-1c-0.185,0.854-0.279,1.726-0.28,2.6
			c0,0.995,0.124,1.986,0.37,2.95"/>
	</g>
</g>
</svg>
