<?xml version="1.0" encoding="utf-8"?>
<!-- Generator: Adobe Illustrator 23.1.1, SVG Export Plug-In . SVG Version: 6.00 Build 0)  -->
<svg version="1.1" id="svg2" xmlns:svg="http://www.w3.org/2000/svg"
	 xmlns="http://www.w3.org/2000/svg" xmlns:xlink="http://www.w3.org/1999/xlink" x="0px" y="0px" viewBox="0 0 125 44"
	 enable-background="new 0 0 125 44" xml:space="preserve">
<g>
	<path d="M10.462,18.478c0,1.854,1.079,3.306,3.052,3.306c1.733,0,2.629-1.178,2.629-2.83c0-1.813-1.038-3.254-2.972-3.254
		C11.478,15.7,10.462,16.827,10.462,18.478 M27.183,24.403c0-1.33-1.411-1.974-2.942-2.7c-1.691-0.806-3.505-1.69-3.505-3.745
		c0-2.498,2.417-3.586,4.593-3.586c1.169,0,2.337,0.282,3.344,0.845v1.813c-0.967-0.766-2.136-1.208-3.384-1.208
		c-1.21,0-2.377,0.482-2.377,1.569c0,1.289,1.531,2.017,3.142,2.822c1.693,0.847,3.465,1.812,3.465,3.665
		c0,2.7-2.698,3.627-4.954,3.627c-1.412,0-2.66-0.281-3.95-0.806v-1.853c1.331,0.724,2.981,1.167,4.029,1.167
		C25.771,26.014,27.183,25.732,27.183,24.403 M31.332,23.921V12.76c0-1.813-0.121-2.619-0.485-3.104l2.781-0.726v10.799l3.666-3.426
		c0,0,0.725-0.644,1.37-1.49h3.183c-0.16,0.04-0.724,0.162-2.739,2.055l-3.426,3.223c0,0,2.056,2.419,3.991,4.553
		c1.489,1.613,2.618,2.095,3.303,2.095c0.12,0,0.281-0.039,0.402-0.08c-0.604,0.444-1.49,0.685-2.458,0.685
		c-1.247,0-2.296-0.685-3.585-2.215c-2.054-2.458-3.707-4.432-3.707-4.432v3.225c0,2.254,0.121,2.617,0.323,3.141H30.97
		C31.212,26.418,31.332,26.175,31.332,23.921 M4.136,13c-0.685,1.371-1.088,3.304-1.088,4.916c0,2.456,0.364,4.673,1.411,7.011
		c1.773,3.949,4.956,6.205,9.306,6.205c1.209,0,2.297-0.122,2.982-0.363c0.685-0.284,1.37-0.807,1.37-1.773
		c0-0.482-0.362-1.006-0.887-1.208c-0.563-0.201-1.047-0.24-2.537-0.321c-1.491-0.082-2.016-0.123-3.062-0.203
		c-1.652-0.16-2.499-1.249-2.499-2.295c0-0.928,0.645-1.734,1.854-2.298c-1.612-0.605-2.726-2.132-2.726-3.859
		c0-2.503,1.951-4.439,5.108-4.439c0.685,0,1.486,0.16,2.17,0.361c0.566,0.161,1.17,0.281,1.814,0.281
		c0.765,0,1.652-0.038,2.377-0.24v1.611c-0.403-0.081-1.692-0.162-2.377-0.162c0.644,0.727,1.007,1.734,1.007,2.7
		c0,2.256-1.773,4.149-4.915,4.149c-0.27,0-0.562-0.014-0.902-0.053c-0.328,0.066-0.624,0.207-0.855,0.396
		c-0.342,0.276-0.499,0.634-0.499,0.945c0,0.524,0.282,0.928,1.57,1.009l2.78,0.161c2.701,0.161,4.151,1.25,4.111,3.182
		c-0.081,2.216-1.854,3.829-6.125,3.829c-1.128,0-2.619-0.202-3.948-0.605c-0.967-0.28-1.894-0.805-2.699-1.409
		c3.625,6.203,10.072,11.563,17.526,11.563c3.625,0,6.729-1.289,9.63-3.423c6.929-5.158,15.713-16.723,15.713-25.706
		c0-6.729-4.876-9.711-11-10.678c-2.216-0.362-4.23-0.402-6.447-0.402C23.033,1.881,8.729,3.493,4.136,13"/>
	<path id="path2411" d="M122.221,32.22h-2.618c0.08-0.683,0.363-1.529,1.369-1.529C121.858,30.691,122.221,31.375,122.221,32.22
		 M123.289,32.986c0.012-0.08,0.015-0.197,0.015-0.291c0-1.626-0.569-2.809-2.332-2.809c-1.53,0-2.456,1.167-2.456,2.779
		c0,1.812,0.806,2.978,2.739,2.978c0.925,0,1.248-0.2,1.611-0.359v-1.009c-0.243,0.202-0.886,0.564-1.571,0.564
		c-0.967,0-1.692-0.768-1.692-1.854L123.289,32.986L123.289,32.986z"/>
	<path id="path2413" d="M117.549,35.525v-3.264c0-1.489-0.603-2.375-2.013-2.375c-0.766,0-1.449,0.361-1.731,1.007h-0.041v-0.886
		h-0.967v5.518h1.008v-2.539c0-1.369,0.442-2.335,1.61-2.295c0.887,0.041,1.128,0.685,1.128,1.975v2.859H117.549z"/>
	<path id="path2415" d="M111.41,28.196c0-0.321-0.241-0.604-0.563-0.604c-0.322,0-0.604,0.283-0.604,0.604
		c0,0.319,0.282,0.563,0.604,0.563C111.169,28.759,111.41,28.515,111.41,28.196 M111.33,30.007h-1.008v5.518h1.008V30.007z"/>
	<path id="path2417" d="M109.326,35.483c-0.402-0.121-0.483-0.402-0.483-0.765v-6.845h-1.047v6.966c0,0.522,0.242,0.804,0.805,0.804
		C108.962,35.643,109.164,35.563,109.326,35.483"/>
	<polygon id="polygon2419" points="107.154,35.526 103.987,31.572 106.882,27.997 105.642,27.997 102.985,31.34 102.985,27.997 
		101.928,27.997 101.928,35.526 102.985,35.526 102.985,31.862 105.763,35.526 	"/>
	<path id="path2421" d="M100.414,35.525v-3.264c0-1.489-0.604-2.375-2.015-2.375c-0.763,0-1.328,0.323-1.69,0.927h-0.04v-2.939
		h-1.007v7.651h1.007v-2.539c0-1.369,0.443-2.335,1.611-2.295c0.886,0.041,1.127,0.685,1.127,1.975v2.859H100.414z"/>
	<path id="path2423" d="M94.717,35.483v-0.845c-0.161,0.08-0.362,0.201-0.685,0.201c-0.483,0-0.846-0.362-0.846-1.007v-3.021h1.37
		v-0.805h-1.37v-1.611l-1.006,0.321v1.29h-0.968v0.805h0.968v3.223c0,1.127,0.645,1.608,1.691,1.608
		C94.193,35.643,94.515,35.563,94.717,35.483"/>
	<path id="path2425" d="M90.423,28.196c0-0.321-0.282-0.604-0.604-0.604c-0.323,0-0.563,0.283-0.563,0.604
		c0,0.319,0.24,0.563,0.563,0.563C90.141,28.759,90.423,28.515,90.423,28.196 M90.302,30.007h-1.007v5.518h1.007V30.007z"/>
	<path id="path2427" d="M87.93,35.525V31.98c0-1.208-0.523-2.094-1.932-2.094c-0.484,0-1.329,0.28-1.691,1.047
		c-0.282-0.724-0.926-1.047-1.571-1.047c-0.805,0-1.369,0.28-1.772,0.927v-0.806h-0.967v5.518h1.008v-2.779
		c0-1.048,0.443-2.055,1.449-2.055c0.846,0,1.006,0.846,1.006,1.53v3.304h1.008v-2.779c0-1.048,0.402-2.055,1.449-2.055
		c0.806,0,0.966,0.846,0.966,1.53v3.304H87.93L87.93,35.525z"/>
	<path id="path2429" d="M79.123,33.429c0-1.529-1.289-1.974-2.417-2.496c-0.201-0.08-0.402-0.161-0.563-0.282
		c-0.323-0.201-0.564-0.484-0.564-0.887c0-0.805,0.804-1.047,1.49-1.047c0.535,0,1.118,0.167,1.529,0.324l0.163-0.887
		c-0.565-0.201-1.209-0.322-1.733-0.322c-1.53,0-2.658,0.725-2.658,2.053c0,1.45,1.41,1.813,2.417,2.297
		c0.563,0.24,1.208,0.604,1.208,1.288c0,0.967-1.007,1.288-1.651,1.288c-0.604,0-1.345-0.189-1.773-0.362l-0.08,0.966
		c0.44,0.14,1.172,0.282,1.671,0.282C77.812,35.644,79.123,35,79.123,33.429"/>
	<polygon id="polygon2431" points="67.974,35.525 66.203,32.622 67.814,30.007 66.644,30.007 65.598,31.98 64.551,30.007 
		63.304,30.007 64.913,32.622 63.101,35.525 64.309,35.525 65.518,33.349 66.724,35.525 	"/>
	<path id="path2433" d="M57.081,35.483c-0.403-0.121-0.484-0.402-0.484-0.765v-6.845h-1.046v6.966c0,0.522,0.24,0.804,0.805,0.804
		C56.718,35.643,56.959,35.563,57.081,35.483"/>
	<path id="path2435" d="M54.305,35.322v-3.288h-1.088v2.523c-0.282,0.081-0.483,0.122-1.207,0.122c-1.571,0-2.86-1.169-2.86-2.941
		c0-1.691,1.168-2.938,2.899-2.938c0.927,0,1.652,0.24,2.093,0.522l0.082-1.088c-0.645-0.241-1.128-0.403-2.214-0.403
		c-2.297,0-3.987,1.57-3.987,3.866c0,2.417,1.57,3.946,3.946,3.946C53.176,35.644,53.861,35.443,54.305,35.322"/>
	<path id="path2437" d="M73.591,32.745c0-1.652-0.967-2.86-2.618-2.86c-1.691,0-2.657,1.208-2.657,2.86
		c0,1.611,0.966,2.898,2.657,2.898C72.624,35.644,73.591,34.357,73.591,32.745 M72.503,32.745c0,1.006-0.362,2.093-1.53,2.093
		c-1.208,0-1.57-1.087-1.57-2.093c0-1.048,0.443-2.055,1.57-2.055C72.02,30.691,72.503,31.698,72.503,32.745"/>
	<path id="path2439" d="M62.347,35.525c-0.04-0.163-0.04-0.444-0.04-1.089v-2.294c0-1.491-0.564-2.256-2.135-2.256
		c-0.725,0-1.248,0.2-1.771,0.523l0.08,0.845c0.403-0.321,0.926-0.563,1.531-0.563c1.006,0,1.248,0.482,1.248,1.451
		C60.857,32.1,60.615,32.1,60.212,32.1c-1.046,0-2.416,0.443-2.416,1.812c0,1.209,0.766,1.732,1.933,1.732
		c0.927,0,1.409-0.523,1.611-0.846h0.041v0.727H62.347z M61.26,33.388c0,0.807-0.443,1.45-1.45,1.45
		c-0.444,0-0.926-0.321-0.926-0.927c0-0.965,1.249-1.046,1.772-1.046c0.241,0,0.402,0.042,0.604,0.042V33.388L61.26,33.388z"/>
</g>
</svg>
