<?xml version="1.0" encoding="utf-8"?>
<!-- Generator: Adobe Illustrator 23.1.1, SVG Export Plug-In . SVG Version: 6.00 Build 0)  -->
<svg version="1.1" id="Layer_1" xmlns="http://www.w3.org/2000/svg" xmlns:xlink="http://www.w3.org/1999/xlink" x="0px" y="0px"
	 viewBox="0 0 1200 800" enable-background="new 0 0 1200 800" xml:space="preserve">
<path fill="#231F20" d="M576.374,332.639h41.74v134.711h-30.932v-90.593l-39.568,90.589l-41.645-90.703v90.703H477.11V332.636
	h41.253l29.745,69.726L576.374,332.639z M633.494,332.639v134.711h77.729v-22.837h-47.596v-34.275h45.627v-23.052h-45.627v-30.906
	h47.596v-23.642H633.494z M827.151,400.019c0,50.143,52.334,90.271,107.475,63.431v-28.86c-42.43,29.724-79.364-0.068-78.759-33.419
	c0.413-22.166,15.309-43.246,44.122-44.889c14.17-0.804,23.768,2.717,34.639,13.124v-30.013
	C894.782,315.783,827.151,341.769,827.151,400.019 M947.343,467.349h28.651V333.935h-28.651V467.349z M1011.946,395.111
	l43.294-60.882h-33.462l-42.893,60.768l49.797,72.352h32.857L1011.946,395.111z"/>
<path fill="#231F20" d="M724.616,332.636v134.711h30.238v-72.372l49.984,72.372h32.232l-39.57-56.563
	c18.338-6.935,24.288-22.312,24.288-37.682c0-15.355-12.891-40.464-44.122-40.464L724.616,332.636z M754.853,355.055h13.199
	c22.315,0,23.506,14.587,23.506,20.035c0,10.407-8.831,19.27-20.227,19.27h-16.478V355.055z"/>
<path fill="#231F20" d="M205.817,332.641c0-37.205,30.163-67.361,67.361-67.361c37.211,0,67.362,30.156,67.362,67.361H205.817z
	 M205.817,467.359c0-37.2,30.163-67.362,67.361-67.362c-37.198,0-67.361-30.149-67.361-67.356c-37.2,0-67.356,30.158-67.356,67.356
	C138.462,437.208,168.618,467.359,205.817,467.359 M205.817,467.359c0,37.211,30.163,67.361,67.361,67.361
	c37.211,0,67.362-30.149,67.362-67.361H205.817z M273.178,399.997c37.211,0,67.362,30.163,67.362,67.362
	c37.205,0,67.368-30.149,67.368-67.362c0-37.198-30.163-67.356-67.368-67.356C340.54,369.847,310.391,399.997,273.178,399.997"/>
</svg>
