<?xml version="1.0" encoding="utf-8"?>
<!-- Generator: Adobe Illustrator 23.1.1, SVG Export Plug-In . SVG Version: 6.00 Build 0)  -->
<svg version="1.1" id="Layer_1" xmlns="http://www.w3.org/2000/svg" xmlns:xlink="http://www.w3.org/1999/xlink" x="0px" y="0px"
	 viewBox="0 0 1200 800" enable-background="new 0 0 1200 800" xml:space="preserve">
<g>
	<path d="M579.885,589.106c-10.837,0-18.238,2.123-22.214,3.413c-4.832,1.548-6.416,3.39-6.416,5.829v63.452
		c0,2.44,0.715,2.709,2.721,2.709h6.967c1.97,0,2.991-0.27,2.991-2.838v-58.338c0-3.296,5.383-6.533,15.376-6.533
		c16.619,0,16.619,10.65,16.619,17.347v47.524c0,2.569,0.844,2.838,3.143,2.838h7.835c1.548-0.27,1.689-1.572,1.689-2.838v-49.119
		C608.597,604.189,608.445,589.106,579.885,589.106z"/>
	<path d="M716.125,589.106c-7.682,0-12.526,1.267-16.221,2.252c-4.856,1.314-6.568,3.413-6.568,5.841v64.894
		c0,2.299,0.868,2.416,2.862,2.416h7.248c1.712,0,2.58-0.117,2.58-2.416v-59.464c0-3.859,2.979-6.427,7.248-6.427
		c9.113,0,10.509,6.72,15.376,6.72c3.284,0,5.958-2.31,5.958-6.427v0C734.609,591.358,725.941,589.106,716.125,589.106z"/>
	<path d="M670.242,594.384c-5.137-3.565-11.975-5.278-18.531-5.278c-6.509,0-13.359,1.712-18.473,5.278
		c-8.245,5.536-13.64,16.49-13.64,33.567c0,16.936,5.395,27.879,13.64,33.426c5.125,3.554,11.975,5.29,18.473,5.29
		c6.556,0,13.406-1.736,18.531-5.29c8.245-5.548,13.676-16.49,13.676-33.426C683.918,610.874,678.487,599.92,670.242,594.384z
		 M664.12,653.707c-3.847,3.706-7.412,4.691-12.409,4.691c-4.961,0-8.538-0.985-12.35-4.691c-4.011-3.73-6.697-12.374-6.697-25.756
		c0-13.535,2.686-22.179,6.697-25.932c3.812-3.671,7.389-4.668,12.35-4.668c4.996,0,8.55,0.997,12.409,4.668
		c3.964,3.753,6.674,12.397,6.674,25.932C670.794,641.333,668.084,649.977,664.12,653.707z"/>
	<path d="M495.991,594.384c-5.114-3.565-11.928-5.278-18.496-5.278c-6.545,0-13.371,1.712-18.496,5.278
		c-8.222,5.536-13.652,16.49-13.652,33.567c0,16.936,5.43,27.879,13.652,33.426c5.137,3.554,11.963,5.29,18.496,5.29
		c6.58,0,13.394-1.736,18.496-5.29c8.269-5.548,13.664-16.49,13.664-33.426C509.655,610.874,504.26,599.919,495.991,594.384z
		 M489.88,653.707c-3.859,3.706-7.412,4.691-12.397,4.691c-4.961,0-8.527-0.985-12.385-4.691c-3.976-3.73-6.674-12.374-6.674-25.756
		c0-13.535,2.698-22.179,6.674-25.932c3.859-3.671,7.424-4.668,12.385-4.668c4.985,0,8.538,0.997,12.397,4.668
		c3.999,3.753,6.697,12.397,6.697,25.932C496.577,641.333,493.88,649.977,489.88,653.707z"/>
	<path d="M275.646,589.106c-10.814,0-18.214,2.123-22.202,3.413c-4.832,1.548-6.369,3.39-6.369,5.829v63.452
		c0,2.44,0.692,2.709,2.686,2.709h6.967c1.994,0,3.026-0.27,3.026-2.838v-58.338c0-3.296,5.395-6.533,15.341-6.533
		c16.619,0,16.619,10.65,16.619,17.347v47.524c0,2.569,0.891,2.838,3.167,2.838h7.835c1.525-0.27,1.677-1.572,1.677-2.838v0v-49.119
		C304.393,604.189,304.241,589.106,275.646,589.106z"/>
	<path d="M481.26,248.426c31.784,0,57.54-25.768,57.54-57.54c0-31.784-25.756-57.552-57.54-57.552
		c-31.773,0-57.54,25.768-57.54,57.552C423.72,222.658,449.487,248.426,481.26,248.426z M483.535,145.367
		c21.37,0,38.716,17.347,38.716,38.739c0,21.393-17.347,38.74-38.716,38.74c-21.405,0-38.763-17.347-38.763-38.74
		C444.772,162.714,462.119,145.367,483.535,145.367z"/>
	<path d="M366.038,594.384c-5.137-3.565-11.963-5.278-18.531-5.278c-6.533,0-13.347,1.712-18.472,5.278
		c-8.257,5.536-13.64,16.49-13.64,33.567c0,16.936,5.383,27.879,13.64,33.426c5.137,3.554,11.951,5.29,18.472,5.29
		c6.58,0,13.406-1.736,18.531-5.29c8.233-5.548,13.652-16.49,13.652-33.426C379.691,610.874,374.272,599.919,366.038,594.384z
		 M359.904,653.707c-3.847,3.706-7.401,4.691-12.409,4.691c-4.949,0-8.515-0.985-12.374-4.691
		c-3.964-3.73-6.662-12.374-6.662-25.756c0-13.535,2.698-22.179,6.662-25.932c3.859-3.671,7.424-4.668,12.374-4.668
		c5.008,0,8.55,0.997,12.409,4.668c3.988,3.753,6.685,12.397,6.685,25.932C366.59,641.333,363.892,649.977,359.904,653.707z"/>
	<polygon points="444.174,592.261 444.174,592.261 444.174,592.261 	"/>
	<path d="M442.321,590.806h-7.096c-1.009,0.129-1.29,0.551-1.712,1.994l-18.496,54.198l-19.235-53.905
		c-0.704-2.006-0.985-2.287-3.12-2.287h-8.667c-0.586,0-1.994,0-1.994,1.712c0,0.575,0.246,1.278,0.563,1.994l25.744,67.733
		c0.715,1.701,1.009,2.146,2.123,2.264h5.571c1.701,0,1.994-0.117,2.709-2.123l24.888-67.873c0.575-1.712,0.575-1.994,0.575-2.252
		C444.174,590.806,443.036,590.806,442.321,590.806z"/>
	<path d="M823.84,590.807h-7.401c-2.416,0-2.416,0.833-2.416,2.698v68.46c0,1.982,0,2.545,2.123,2.545h7.694
		c2.123,0,2.838-0.117,2.838-2.545h0v-68.46C826.678,591.229,826.103,590.807,823.84,590.807z"/>
	<path d="M820.556,563.174c-4.551,0-7.858,3.155-7.858,7.565c0,3.988,2.874,7.377,7.671,7.377c4.891,0,7.846-3.835,7.717-7.799h0
		C827.933,566.059,824.52,563.174,820.556,563.174z"/>
	<path d="M794.378,564.452h-7.002c-2.381,0-2.686,0.88-2.686,3.155v25.803c-4.433-2.322-8.832-3.882-15.529-3.882
		c-22.05,0-33.403,20.912-33.403,38.423c0,25.932,14.344,38.716,35.995,38.716c10.65,0,25.463-5.29,25.463-9.981v-89.348
		C797.216,564.769,796.5,564.452,794.378,564.452z M784.701,652.557c0,3.718-5.982,5.688-12.538,5.688
		c-13.781,0-23.598-11.517-23.598-31.28c0-17.241,9.383-28.77,22.472-28.77c7.424,0,10.954,2.264,13.664,4.562V652.557z"/>
	<path d="M740.755,553.017c0-1.536-0.117-4.199,5.571-4.199c3.237,0,7.049,0.082,8.116,0.082c1.853,0,11.975,0.164,15.505-0.223
		c3.87-0.434,4.246-4.398,4.316-9.582c0.082-7.694,0.504-95.435,0.082-106.226c-0.61-14.954,1.865-80.669-9.84-101.698
		c-14.004-25.158-42.152-22.671-55.101-21.592c-17.241,1.454-47.254,5.77-80.74,5.899c-46.117,0.176-94.603-16.713-101.781-18.742
		c-12.467-3.519-26.589-9.266-32.324-11.975c-6.826-3.225-3.343-4.633-0.34-6.134c14.919-7.448,27.398-15.353,35.174-27.961
		c5.946-9.641,3.706-12.702-2.897-7.342c-1.372,1.102-3.894,3.143-7.354,5.442l0,0c-10.814,7.87-30.483,16.514-60.367,8.527
		c-31.89-8.527-42.551-38.364-45.049-45.225c-2.486-6.838-6.028-7.342-6.028,2.698c0,25.31,11.212,40.663,14.942,45.014
		c3.765,4.363,5.501,8.679,3.436,11.177c-4.293,5.243-10.18,12.292-11.811,16.678c-0.493,1.36-0.223,4.199-0.422,5.536
		c-0.809,5.594-6.545,11.306-13.476,20.056c-3.941,4.985-1.536,10.286,1.794,13.957c4.011,4.41,8.327,10.18,9.993,11.107
		c5.993,3.39,10.544,1.02,15.88,2.686c5.348,1.689,13.453,3.988,19,13.91c8.011,14.379,16.772,36.828,32.394,55.5
		c6.967,8.304,6.932,23.281,6.955,28.324c0.434,43.572-22.46,83.941-37.004,110.084c-3.46,6.216-2.756,11.318,1.9,11.365
		c5.29,0.059,11.435-0.012,22.906-0.012c9.606,0,5.477-5.442,7.541-8.937c1.49-2.51,6.756,0.68,7.436-8.187
		c0.106-1.501,0.223-2.827,1.02-8.55c4.914-35.409,22.202-88.117,32.922-94.931c15.857,10.356,34.869,27.55,40.499,62.525
		c1.724,10.696,2.744,20.208,1.724,29.321c-1.102,9.875-1.947,14.543-2.838,17.347c-2.979,9.477-0.551,11.517,3.988,11.341
		c0,0,21.299,0.023,24.313,0c9.629-0.012,4.867-5.77,7.108-8.679c1.63-2.099,5.489-0.692,4.727-6.24
		c-6.052-30.846-21.698-57.071-28.7-87.636c-4.973-21.628,8.046-35.303,19.094-38.575c17.417-5.196,41.273,3.39,44.334,5.114
		c2.827,1.595,3.12,2.299,5.348,0.434c19.704-16.232,28.805-8.327,29.31-7.846c2.287,2.158,3.824,13.593,3.941,15.892
		c2.721,53.811-51.969,105.522-61.575,117.25c-4.246,5.219-1.853,10.427,2.381,10.403c3.612-0.012,21.639,0.035,25.345-0.082
		c9.219-0.305,4.387-5.594,6.638-8.491c1.36-1.794,4.363-0.27,5.899-4.34c7.272-19.458,22.284-56.825,53.518-82.077
		c2.733-2.193,5.29-7.682,7.588-20.138c0.88-4.727,1.982-8.187,3.202-12.385c17.569,22.859,19.716,63.745-10.051,117.497
		c-3.12,5.606-1.173,9.969,2.381,9.969c2.099,0,18.32,0.153,23.363,0C741.974,559.89,740.755,556.266,740.755,553.017z
		 M750.243,379.587c1.712-17.734,1.138-27.891,1.29-29.544v0c0.399-4.34,3.014-3.953,5.184,2.076
		c6.415,18.062,3.683,90.638,3.694,92.14c0.047,2.076-2.498,3.648-4.269,1.501c-1.994-2.533-6.462-29.697-8.104-38.212
		C746.349,399.044,749.152,390.6,750.243,379.587z M698.203,320.568c4.867-0.927,9.043,0.375,11.482,3.331
		c5.301,6.38,7.588,18.285,6.298,25.486c-0.868,4.844-7.87,6.838-8.714,1.677c-0.821-5.208-4.75-17.253-11.365-24.583h0
		C692.351,322.527,693.606,321.448,698.203,320.568z M602.428,323.278c11.635,0.551,17.335,1.161,24.454,1.079
		c8.656-0.094,18.684-0.328,22.495-0.657c6.885-0.61,11.283,1.443,13.535,6.849c2.182,5.231,9.969,26.765-2.885,32.781
		c-16.467,7.706-40.37,8.691-52.204,5.208c-4.41-1.29-11.506-2.967-11.4-11.799c0.047-3.038,0.281-14.52-1.044-24.853h0
		C594.699,326.655,593.772,322.844,602.428,323.278z M550.517,322.034c-0.469-5.524,0.645-5.829,7.635-4.68
		c7.307,1.173,7.096,3.096,7.178,7.389c0.352,17.616-4.211,29.087-10.239,32.418c-3.343,1.853-7.588,0.938-7.671-2.486
		C547.362,352.106,551.948,338.818,550.517,322.034z M462.846,362.357c-8.832-13.852-11.259-18.039-18.062-23.398
		c-13.488-10.673-25.533-4.07-30.846-10.427c-5.63-6.779-9.477-8.843-4.187-15.294c3.823-4.668,6.556-9.019,8.386-11.283
		c2.475-3.049,2.029-9.829,3.038-12.632c0.997-2.803,6.498-10.79,13.769-16.655c6.955-5.606,16.326,0.094,34.822,10.884
		c10.192,5.958,20.525,11.259,25.463,14.274h0c5.536,3.401,1.431,8.832-1.513,13.312c-8.773,13.429-20.326,38.012-23.715,46.797
		C467.584,364.269,465.79,366.99,462.846,362.357z M716.617,415.23c-12.245-7.682-25.991-13.441-44.733-15.13
		c-39.783-3.577-62.197-0.903-74.031,3.096c-3.542,1.173-33.38,9.617-33.931,40.299c-0.164,9.09-2.721,8.21-6.967,4.985
		c-14.696-11.306-29.873-21.885-50.222-33.966c-9.711-5.782-18.132-13.887-21.205-19.305c-4.949-8.656-11.658-21.944-4.082-42.434
		c3.741-10.122,11.506-26.037,17.393-34.74c9.629-14.215,8.656-14.391,27.292-8.386c16.701,5.395,15.834,7.436,16.068,15.646
		c0.293,10.743-1.067,20.49-3.307,30.389c-1.196,5.208,2.182,11.107,8.585,11.248c26.249,0.739,26.788-35.655,26.812-35.749
		c0.539-8.48-2.662-10.169,5.759-9.371c6.275,0.61,7.401,5.935,8.327,15.552c0.317,3.519,0.094,17.253,0.094,20.982
		c0,3.741,0.41,13.5,13.3,17.018c21.276,5.841,50.925,1.196,63.076-6.005c7.131-4.222,11.705-9.043,10.802-19.294
		c-0.692-7.612-2.803-17.147-4.257-20.713c-1.583-3.964-1.302-6.72,2.006-7.166c16.033-2.146,23.223,14.508,28.712,34.857
		c1.736,6.591,10.884,6.169,15.529,1.654c4.516-4.398,7.119-11.377,3.882-24.419c-1.067-4.269-2.569-7.624-3.812-9.758
		c-1.149-1.935-1.478-3.671,2.909-3.694c29.228-0.188,21.874,53.963,21.534,58.596c-0.434,5.771-2.85,18.226-4.14,23.985
		C732.85,427.216,720.499,417.681,716.617,415.23z"/>
	<path d="M906.796,564.03h-7.518c-1.572,0-2.428,0.293-2.428,2.299v95.916c0,1.994,0.434,2.264,2.428,2.264h7.518
		c2.006,0,2.698,0,2.698-2.123v-96.327C909.494,564.03,908.52,564.03,906.796,564.03z"/>
	<path d="M851.848,608.599c0-5.407,4.269-10.978,12.221-10.978c8.28,0,10.438,5.43,14.661,5.43c2.158,0,5.137-1.278,5.137-4.996
		c0-5.383-9.242-8.527-19.059-8.527c-12.96,0-24.313,6.967-24.313,20.197c0,12.233,8.667,17.511,19.047,21.909
		c8.269,3.448,15.927,6.556,15.927,14.391c0,5.841-4.703,12.514-14.637,12.514c-9.981,0-12.843-7.401-17.663-7.401
		c-2.404,0-5.43,0.997-5.43,4.691c0,5.841,11.424,10.837,22.929,10.837c12.808,0,26.202-6.826,26.202-22.061h0
		C886.869,620.679,851.848,624.397,851.848,608.599z"/>
	<path d="M951.916,661.072l-27.011-35.69l-0.152-0.152c9.418-6.955,19.329-18.05,25.357-30.013c0.68-1.419,0.786-1.994,0.786-2.85
		c0-1.278-0.715-1.56-2.545-1.56h-6.697c-2.533,0-3.671-0.129-4.41,2.135c-3.976,12.209-14.497,25.334-25.17,31.573
		c-0.41,0.305-0.563,0.715-0.563,0.868c0,0.293,0.152,0.563,0.281,0.727l25.334,36.276c1.431,2.123,1.994,2.123,4.234,2.123h9.676
		c0.481,0,1.888-0.117,1.888-1.572C952.924,662.245,952.502,661.799,951.916,661.072z"/>
	<path d="M431.918,295.211c5.524,9.383,16.584-6.228,15.611-9.113C446.567,283.201,426.406,285.84,431.918,295.211z"/>
</g>
</svg>
