<?xml version="1.0" encoding="utf-8"?>
<!-- Generator: Adobe Illustrator 23.1.1, SVG Export Plug-In . SVG Version: 6.00 Build 0)  -->
<svg version="1.1"
	 id="svg3135" inkscape:version="0.92.2 (5c3e80d, 2017-08-06)" sodipodi:docname="Pfizer_2009.svg" xmlns:cc="http://creativecommons.org/ns#" xmlns:dc="http://purl.org/dc/elements/1.1/" xmlns:inkscape="http://www.inkscape.org/namespaces/inkscape" xmlns:rdf="http://www.w3.org/1999/02/22-rdf-syntax-ns#" xmlns:sodipodi="http://sodipodi.sourceforge.net/DTD/sodipodi-0.dtd" xmlns:svg="http://www.w3.org/2000/svg"
	 xmlns="http://www.w3.org/2000/svg" xmlns:xlink="http://www.w3.org/1999/xlink" x="0px" y="0px" viewBox="0 0 1000 598.8"
	 enable-background="new 0 0 1000 598.8" xml:space="preserve">
<g id="g3143" transform="matrix(1.25,0,0,-1.25,-974.4755,633.86755)" inkscape:groupmode="layer" inkscape:label="Get_Old_Survey-Final">
	<path id="path3237" inkscape:connector-curvature="0" fill-rule="evenodd" clip-rule="evenodd" d="M1376.927,299.425
		c1.368-0.034,2.955,0,4.509-0.338c5.184-1.148,7.532-4.408,6.738-9.676c-0.929-6.012-3.496-11.264-7.397-15.874
		c-5.522-6.485-12.446-10.842-20.298-13.864c-7.126-2.736-14.574-4.137-22.156-4.88c-0.473-0.034-0.996-0.034-1.469-0.051
		c-3.327-0.034-3.749,0.405-2.922,3.529c1.148,4.391,2.685,8.663,4.728,12.716c3.631,7.211,8.444,13.527,14.472,18.931
		C1359.888,295.963,1368.383,299.408,1376.927,299.425 M941.323,359.834c5.961,0.084,11.821-0.54,17.613-1.824
		c3.783-0.861,7.38-2.128,10.723-4.154c6.062-3.631,9.17-9.068,9.558-16.06c0.186-3.462,0-6.907-0.675-10.318
		c-1.722-8.41-3.901-16.701-7.414-24.588c-4.999-11.162-12.294-20.146-23.777-25.213c-5.184-2.28-10.622-3.614-16.195-4.56
		c-6.535-1.115-13.155-1.115-19.741-1.587c-0.591-0.017-1.182,0-1.773,0.084c-1.03,0.186-1.554,0.827-1.317,1.908
		c0.186,0.963,0.405,1.925,0.675,2.888c7.16,26.564,14.354,53.11,21.548,79.657c0.963,3.58,1.182,3.715,4.864,3.766
		C937.371,359.851,939.364,359.834,941.323,359.834 M1486.397,292.119c-0.288,1.604,0.236,2.685,0.557,3.817
		c1.756,6.164,3.53,12.311,5.269,18.475c0.743,2.634,0.405,3.141-2.128,3.141c-12.041,0.051-24.064,0.051-36.105,0
		c-2.567,0-2.955-0.355-3.698-2.921c-0.777-2.668-1.436-5.336-2.162-8.021c-10.673-39.601-21.379-79.201-32.086-118.819
		c-0.083-0.388-0.237-0.76-0.288-1.148c-0.27-1.604-0.017-1.959,1.537-2.128c0.506-0.068,0.996-0.033,1.485-0.033
		c12.041,0,24.081,0,36.105,0.017c3.563,0,3.664,0.117,4.627,3.614c3.85,14.185,7.65,28.371,11.551,42.539
		c2.601,9.508,4.847,19.133,8.781,28.219c3.85,8.798,8.173,17.326,14.27,24.807c3.58,4.408,7.633,8.258,12.953,10.538
		c3.361,1.435,6.806,2.043,10.386,1.047c2.28-0.642,3.816-2.06,4.407-4.357c0.304-1.334,0.726-2.685,0.777-4.053
		c0.574-10.217,14.962-17.073,23.929-12.665c3.614,1.773,6.671,4.12,9.001,7.43c3.563,5.066,4.441,10.723,3.682,16.651
		c-1.115,8.781-5.522,15.486-13.746,18.931c-8.258,3.462-16.853,3.918-25.381,0.625c-3.512-1.334-6.839-3.057-9.997-5.1
		c-7.853-5.083-14.675-11.298-20.906-18.221C1488.458,293.657,1487.816,292.593,1486.397,292.119 M1216.91,184.447v0.016
		c17.36,0,34.737-0.016,52.097,0c3.462,0.016,3.631,0.152,4.526,3.377c1.706,6.282,3.411,12.564,5.083,18.863
		c1.115,4.154,1.115,4.171-3.09,4.171h-58.633c-0.979,0-1.959-0.016-2.938,0.016c-2.482,0.152-2.854,0.726-1.621,2.905
		c1.824,3.175,3.969,6.147,6.231,9.001c7.582,9.524,16.414,17.85,25.23,26.209c11.027,10.453,22.274,20.67,32.407,32.035
		c6.62,7.481,12.699,15.367,17.478,24.166c1.739,3.225,3.276,6.518,4.425,10.014c0.541,1.706,0.169,2.162-1.553,2.33
		c-1.098,0.101-2.178,0.051-3.276,0.051h-97.102c-0.979,0-1.959,0.017-2.938,0c-2.786-0.101-3.158-0.321-3.918-3.04
		c-1.284-4.475-2.432-8.967-3.648-13.442c-1.267-4.728-1.216-4.796,3.698-4.796c17.073,0,34.163,0.017,51.219-0.033
		c1.3,0,3.124,0.709,3.732-0.861c0.473-1.216-0.979-2.229-1.756-3.192c-4.948-6.063-10.656-11.382-16.279-16.769
		c-12.53-12.057-25.246-23.879-36.831-36.848c-6.839-7.667-13.256-15.671-18.508-24.537c-4.593-7.768-8.359-15.891-9.44-25.027
		c-0.541-4.526-0.541-4.61,4.205-4.61L1216.91,184.447L1216.91,184.447z M1344.274,180.242c7.515-0.186,14.743,0.709,21.886,2.432
		c16.381,3.969,30.296,12.176,41.897,24.318c2.111,2.229,2.111,2.466,0.338,5.032c-2.854,4.036-5.674,8.072-8.562,12.091
		c-1.722,2.415-2.145,2.466-4.407,0.574c-3.158-2.651-6.265-5.421-9.491-8.005c-4.729-3.749-9.845-6.958-15.452-9.254
		c-8.342-3.428-16.803-4.239-25.348-0.709c-8.832,3.631-15.266,12.311-15.063,21.801c0.05,2.178-0.017,4.357,0.05,6.535
		c0.099,3.361,0.457,3.749,3.8,3.817c4.729,0.117,9.457,0.219,14.202,0.54c12.682,0.861,25.01,3.344,36.966,7.582
		c9.187,3.276,17.174,8.461,23.693,15.705c5.894,6.502,10.099,13.932,11.618,22.629c1.284,7.363,0.827,14.557-3.816,20.94
		c-4.661,6.468-11.146,10.2-18.61,12.378c-9.474,2.77-19.116,2.803-28.742,1.267c-33.318-5.404-57.873-23.034-72.885-53.347
		c-6.67-13.51-9.524-28.05-7.363-43.147c2.752-19.285,13.476-32.424,31.647-39.398
		C1328.298,181.086,1336.268,179.938,1344.274,180.242 M862.531,184.447c5.911,0,11.838-0.016,17.732,0
		c3.783,0.016,3.867,0.101,4.864,3.732c3.462,12.834,6.941,25.702,10.419,38.57c1.689,6.282,3.378,12.564,5.134,18.846
		c0.726,2.634,1.03,2.77,3.681,2.921c2.263,0.117,4.526,0.338,6.789,0.372c10.875,0.068,21.666,1.013,32.423,2.55
		c12.159,1.706,24.031,4.526,35.345,9.406c14.81,6.417,26.428,16.364,33.876,30.853c4.762,9.254,8.021,19.116,9.913,29.35
		c2.263,12.125-0.354,23.338-7.616,33.352c-5.049,6.974-11.855,11.804-19.522,15.452c-12.986,6.181-26.851,8.68-41.019,9.17
		c-19.252,0.692-38.486,0.203-57.721,0.236c-3.141,0-3.479-0.338-4.323-3.293c-0.132-0.388-0.22-0.76-0.321-1.148
		c-8.815-32.559-17.613-65.134-26.429-97.693c-7.903-29.13-15.79-58.278-23.642-87.425c-0.321-1.131-0.609-2.28-0.827-3.445
		c-0.237-1.081,0.27-1.689,1.401-1.739c0.794-0.051,1.588-0.068,2.364-0.068L862.531,184.447L862.531,184.447z M1230.2,507.094
		h47.385c1.216-0.439,2.516-0.405,3.783-0.439c2.584-0.068,5.134-0.051,7.684-0.236c15.367-1.047,30.684-2.33,45.933-4.424
		c32.339-4.441,64.053-11.517,94.839-22.443c27.661-9.828,53.921-22.409,77.867-39.533c19.859-14.185,37.135-30.87,50.375-51.54
		c10.065-15.722,16.87-32.711,20.096-51.135c0.625-3.614,0.726-7.262,1.419-10.842v-23.085c-0.693-2.212-0.389-4.526-0.693-6.738
		c-2.246-16.583-7.194-32.339-14.253-47.453c-10.571-22.646-25.078-42.623-41.948-60.946c-14.388-15.654-30.245-29.722-47.166-42.59
		c-30.144-22.899-62.719-41.695-97.135-57.383c-48.872-22.342-99.905-37.946-152.627-47.994c-17.85-3.377-35.784-6.113-53.837-8.055
		c-9.322-0.979-18.66-1.79-27.982-2.466c-9.035-0.642-18.12-1.148-27.172-1.317c-0.878-0.034-1.756-0.27-2.618-0.422h-27.83
		c-1.047,0.405-2.128,0.422-3.225,0.456c-10.234,0.304-20.484,0.895-30.718,1.689c-13.966,1.098-27.864,2.786-41.711,4.88
		c-0.591,0.084-1.164,0.236-1.756,0.372c-1.199,0.22-1.621,0.979-1.368,2.162c0.203,0.946,0.456,1.908,0.71,2.871
		c2.229,8.376,4.492,16.786,6.738,25.162c19.336,71.737,38.672,143.474,58.008,215.228c1.098,4.087,2.196,8.19,3.344,12.294
		c0.811,2.82,1.148,3.057,4.137,3.141c0.405,0.017,0.794,0.017,1.183,0.017h34.636c0.794,0,1.588-0.017,2.381-0.084
		c1.199-0.101,1.79-0.76,1.537-1.976c-0.185-1.081-0.473-2.111-0.759-3.175c-9.102-33.926-18.204-67.853-27.29-101.796
		c-0.22-0.844-0.438-1.706-0.642-2.567c-0.304-1.334,0.202-2.111,1.604-2.212c0.59-0.033,1.183-0.068,1.756-0.068h35.547
		c3.377,0.016,3.546,0.136,4.458,3.462c1.959,7.262,3.867,14.506,5.792,21.751c9.221,34.399,18.441,68.816,27.661,103.215
		c1.267,4.728,1.317,4.728-3.597,4.728h-75.503c-0.979,0-1.976-0.017-2.955,0.033c-2.584,0.136-2.922,0.557-2.33,3.107
		c0.93,3.85,1.908,7.667,2.871,11.5c3.867,15.823,7.65,31.664,12.986,47.065c2.28,6.535,4.745,13.003,8.157,19.032
		c4.137,7.329,9.372,13.679,16.904,17.816c5.117,2.786,10.622,4.357,16.482,3.665c5.64-0.676,8.511-4.222,8.494-9.862
		c-0.016-2.584-0.93-4.847-1.993-7.076c-1.165-2.499-2.398-4.948-3.428-7.549c-3.614-9.153,2.196-22.173,12.294-25.55
		c15.857-5.319,32.457,3.31,36.713,19.505c0.811,3.057,1.3,6.164,0.895,9.372c-0.845,6.806-3.732,12.665-8.545,17.495
		c-6.012,6.012-13.071,10.453-21.345,12.767c-11.737,3.259-23.659,4.053-35.784,3.006c-19.505-1.689-35.632-10.132-49.108-24.064
		c-10.014-10.369-17.09-22.629-22.882-35.7c-5.742-13.037-9.795-26.665-13.544-40.377c-8.241-30.279-16.397-60.575-24.554-90.887
		c-13.493-50.02-26.969-100.04-40.445-150.06c-3.867-14.388-7.734-28.776-11.635-43.164c-0.827-3.073-1.131-3.175-4.12-2.466
		c-0.49,0.101-0.963,0.253-1.419,0.372c-7.633,2.043-15.215,4.272-22.696,6.755c-30.819,10.166-60.034,23.676-86.429,42.758
		c-20.028,14.472-37.338,31.596-50.442,52.671c-11.365,18.204-18.492,37.895-20.771,59.274c-0.149,1.402-0.438,2.719-1.03,3.985
		v22.511c0.693,1.334,0.911,2.786,1.08,4.256c0.27,2.466,0.557,4.914,0.963,7.346c4.171,25.145,14.05,48.01,27.763,69.305
		c16.448,25.55,37.101,47.301,60.287,66.738c24.689,20.704,51.574,38.098,80.029,53.144c37.388,19.758,76.567,35.075,117.231,46.609
		c52.452,14.861,105.866,23.693,160.361,25.719c0.979,0.051,1.959,0.084,2.905,0.439"/>
</g>
</svg>
