<?xml version="1.0" encoding="utf-8"?>
<!-- Generator: Adobe Illustrator 23.1.1, SVG Export Plug-In . SVG Version: 6.00 Build 0)  -->
<svg version="1.1" id="layer" xmlns="http://www.w3.org/2000/svg" xmlns:xlink="http://www.w3.org/1999/xlink" x="0px" y="0px"
	 viewBox="0 0 652 88.692" enable-background="new 0 0 652 88.692" xml:space="preserve">
<g>
	<path d="M59.55,34.146c-0.8-6.3-6.4-6.9-11.3-6.9c-5.1,0-8.4,2.4-8.4,5.7c0,2.6,2,4,5.2,4.5l15.4,2.6c8.2,1.4,14.5,4.7,14.5,13.5
		c0,9-5.7,16.2-23.5,16.2c-11,0-25.3-1.5-25.4-16.5h13.8c0.1,6.6,6.3,7.7,11.6,7.7c5.8,0,9.7-1.8,9.7-6c0-3.7-2.8-4.7-7.7-5.5
		l-11.2-1.8c-7.8-1.3-15.4-3.8-15.4-13.6c0-10.7,8.2-15.1,22.4-15.1c9.3,0,23.1,1.7,23.9,15.3L59.55,34.146"/>
	<path d="M112.05,20.246h-32.8v48.1h12.3v-17.6h15.2c3.8,0,6.5,1.7,6.5,8.4c0,5,0.1,7,1.2,9.2h13.4c-2.1-2.4-2.3-8.1-2.3-10.4
		c0-4.7-0.8-12-6.2-12.9v-0.2c5.1-2,7.3-5.7,7.3-11.6C126.65,28.346,124.55,20.246,112.05,20.246z M107.75,41.546h-16.2v-12.1h15.6
		c3,0,6.5,1.2,6.5,6C113.65,39.846,110.45,41.546,107.75,41.546z"/>
	<path d="M132.75,68.346h12.3v-48.1h-12.3V68.346z"/>
	<path d="M170.85,68.346h12.3v-48.1h-12.3V68.346z"/>
	<path d="M217.75,47.846c0-5-2.5-7.4-7.5-7.4c-5.2,0-9.6,2.8-9.6,10.4v17.4h-11.1v-36.1h10.8v5.2h0.1c2-3,7.3-6.2,13.9-6.2
		c5.8,0,14.6,2.4,14.6,13v24h-11.1L217.75,47.846"/>
	<path d="M238.15,21.046h11.1v11.2h9v7.9h-9v16.8c0,2.8,0.8,3.8,3.7,3.8c2,0,3.7-0.1,5.4-0.3v7.9c-2.1,0.3-6.3,0.7-8.7,0.7
		c-10.6,0-11.6-4.2-11.6-10.7v-18.2h-7v-7.9h7L238.15,21.046"/>
	<path d="M282.75,69.646c10.2,0,17.9-3.6,21.1-12.1h-11.9c-1.6,3.1-4.7,4.7-9.2,4.7c-7.6,0-10.9-5.3-10.9-8.7v-0.1h32.6v-1.1
		c0-13.6-7.1-21.5-21.8-21.5c-13.4,0-22.4,5.8-22.4,19.4C260.35,63.846,269.35,69.646,282.75,69.646z M292.95,46.246v0.1h-21.1v-0.1
		c0-0.9,1.8-8,10.6-8C290.65,38.246,292.95,44.346,292.95,46.246z"/>
	<path d="M308.55,32.246h10.8v7.1h0.1c4-5.5,7.2-8,13.5-8c1.3,0,2.8,0.1,4,0.3v11.1c-2-0.6-4-1.1-6.1-1.1c-7.6,0-11.2,4.1-11.2,11.1
		v15.6h-11.1V32.246"/>
	<path d="M369.15,47.846c0-5-2.5-7.4-7.5-7.4c-5.2,0-9.6,2.8-9.6,10.4v17.4h-11.1v-36.1h10.8v5.2h0.1c2-3,7.3-6.2,13.9-6.2
		c5.8,0,14.6,2.4,14.6,13v24h-11.1L369.15,47.846"/>
	<path d="M406.75,30.846c-9.1,0-18.7,1.3-20.1,12.4h10.8c1.6-5,4-5.4,8.8-5.4c6.5,0,8.7,1.4,8.7,4.3s-1.1,3.5-4.6,3.8l-11.8,0.9
		c-6.8,0.5-14,2.4-14,11.1c0,8.4,6.2,11.7,15.1,11.7c5,0,12.1-1.1,15.9-5.2c0.1,1.3,0.4,2.6,0.8,3.8h11.1c-0.8-1.8-1.3-4.1-1.3-7.3
		v-17.9C426.05,36.346,422.65,30.846,406.75,30.846z M408.75,52.246c2.2-0.2,4.5-0.5,6.6-1.5v3c0,6.1-6.3,9-11.9,9c-4.2,0-7-1.8-7-5
		s2-4.4,5.9-4.7L408.75,52.246z"/>
	<path d="M435.65,21.046h11.1v11.2h9v7.9h-9v16.8c0,2.8,0.8,3.8,3.7,3.8c2,0,3.7-0.1,5.4-0.3v7.9c-2.1,0.3-6.3,0.7-8.7,0.7
		c-10.6,0-11.6-4.2-11.6-10.7v-18.2h-7v-7.9h7L435.65,21.046"/>
	<path d="M471.55,27.746h-11.1v-8.3h11.1V27.746z M471.55,68.346h-11.1v-36.1h11.1V68.346z"/>
	<path d="M520.05,50.246c0-13.6-9-19.4-22.4-19.4s-22.4,5.8-22.4,19.4s9,19.4,22.4,19.4S520.05,63.846,520.05,50.246z
		 M508.55,50.246c0,7.1-4,11-10.9,11s-10.9-4-10.9-11s4-11,10.9-11S508.55,43.146,508.55,50.246z"/>
	<path d="M551.65,47.846c0-5-2.5-7.4-7.5-7.4c-5.2,0-9.6,2.8-9.6,10.4v17.4h-11.1v-36.1h10.8v5.2h0.1c2-3,7.3-6.2,13.9-6.2
		c5.8,0,14.5,2.4,14.5,13v24h-11.1L551.65,47.846"/>
	<path d="M589.25,30.846c-9.1,0-18.7,1.3-20.1,12.4h10.8c1.6-5,4.1-5.4,8.8-5.4c6.5,0,8.7,1.4,8.7,4.3s-1.1,3.5-4.6,3.8l-11.8,0.9
		c-6.8,0.5-14,2.4-14,11.1c0,8.4,6.2,11.7,15.1,11.7c5,0,12.1-1.1,15.9-5.2c0.1,1.3,0.4,2.6,0.8,3.8h11.1c-0.8-1.8-1.3-4.1-1.3-7.3
		v-17.9C608.55,36.346,605.15,30.846,589.25,30.846z M591.25,52.246c2.2-0.2,4.5-0.5,6.6-1.5v3c0,6.1-6.3,9-11.9,9c-4.2,0-7-1.8-7-5
		s2-4.4,5.9-4.7L591.25,52.246z"/>
	<path d="M614.85,68.346h11.1v-48.9h-11.1V68.346z"/>
</g>
</svg>
