<?xml version="1.0" encoding="utf-8"?>
<!-- Generator: Adobe Illustrator 23.1.1, SVG Export Plug-In . SVG Version: 6.00 Build 0)  -->
<svg version="1.1"
	 id="svg2" inkscape:export-filename="C:\Users\alex\sites\stanford-university-logo-5.png" inkscape:export-xdpi="99.979874" inkscape:export-ydpi="99.979874" inkscape:version="0.92.3 (2405546, 2018-03-11)" sodipodi:docname="stanford-logo.svg" xmlns:cc="http://creativecommons.org/ns#" xmlns:dc="http://purl.org/dc/elements/1.1/" xmlns:inkscape="http://www.inkscape.org/namespaces/inkscape" xmlns:rdf="http://www.w3.org/1999/02/22-rdf-syntax-ns#" xmlns:sodipodi="http://sodipodi.sourceforge.net/DTD/sodipodi-0.dtd" xmlns:svg="http://www.w3.org/2000/svg"
	 xmlns="http://www.w3.org/2000/svg" xmlns:xlink="http://www.w3.org/1999/xlink" x="0px" y="0px" viewBox="0 0 700 700"
	 enable-background="new 0 0 700 700" xml:space="preserve">
<sodipodi:namedview  bordercolor="#666666" borderopacity="1" gridtolerance="10" guidetolerance="10" id="namedview17" inkscape:current-layer="svg2" inkscape:cx="1128.7633" inkscape:cy="275.93748" inkscape:pageopacity="0" inkscape:pageshadow="2" inkscape:window-height="838" inkscape:window-maximized="1" inkscape:window-width="1600" inkscape:window-x="-8" inkscape:window-y="-8" inkscape:zoom="0.31298628" objecttolerance="10" pagecolor="#ffffff" showgrid="false">
	</sodipodi:namedview>
<path id="path14-79" inkscape:connector-curvature="0" inkscape:export-filename="C:\Users\alex\sites\stanford-university-logo-4.png" inkscape:export-xdpi="99.979874" inkscape:export-ydpi="99.979874" fill="#FFFFFF" d="
	M99.688,282.607c0.771,0.491,1.584,0.977,2.385,1.45c0.01,0.003,0.019,0.011,0.03,0.015h21.209l25.01,24.997v71.108l-28.764,27.685
	H43.913l-28.759-27.726l0.015-37.942h38.049c0.023-0.107,0.033-0.209,0.062-0.313c0.133-0.443,0.361-0.816,0.631-1.154H13.947
	l-0.015,40.208l29.711,28.639h76.92l29.714-28.597v-72.439l-25.936-25.931H99.688"/>
<path id="path16-1" inkscape:connector-curvature="0" inkscape:export-filename="C:\Users\alex\sites\stanford-university-logo-4.png" inkscape:export-xdpi="99.979874" inkscape:export-ydpi="99.979874" fill="#FFFFFF" d="
	M120.566,205.489H43.646l-29.711,28.552v75.57l25.932,25.962h11.438c-0.041-0.658,0.151-1.259,0.321-1.713H40.159l-25.005-25.03
	v-74.235l28.766-27.638h75.638l28.764,27.681v41.442l-37.831-0.019c0.137,0.694,0.071,1.27-0.048,1.713h39.834v-43.689
	L120.566,205.489"/>
<path id="path18-9" inkscape:connector-curvature="0" inkscape:export-filename="C:\Users\alex\sites\stanford-university-logo-4.png" inkscape:export-xdpi="99.979874" inkscape:export-ydpi="99.979874" fill="#FFFFFF" d="
	M74.288,330.431H41.58l-22.993-23.023v-71.349l26.717-25.672h72.867l26.721,25.714v36.547h-58.32v14.855h35.321l22.999,22.987
	v68.226l-26.721,25.711H45.3l-26.714-25.754l0.015-33.032h37.655h17.952L74.288,330.431"/>
<path id="path20-3" inkscape:connector-curvature="0" inkscape:export-filename="C:\Users\alex\sites\stanford-university-logo-4.png" inkscape:export-xdpi="99.979874" inkscape:export-ydpi="99.979874" fill="#FFFFFF" d="
	M73.661,333.86H40.159l-25.005-25.03v-74.235l28.766-27.638h75.638l28.764,27.681v41.442h-61.75v7.99h36.74l25.01,24.997v71.108
	l-28.764,27.685H43.913l-28.759-27.726l0.015-37.942h59.059L73.661,333.86"/>
<path id="path22-5" inkscape:connector-curvature="0" inkscape:export-filename="C:\Users\alex\sites\stanford-university-logo-4.png" inkscape:export-xdpi="99.979874" inkscape:export-ydpi="99.979874" d="
	M92.145,311.019c1.004,1.128,6.576,4.771,8.524,5.668c4.238,1.935,6.437,5.071,7.748,9.056c1.243,3.765-0.107,2.939-1.118,2.474
	c-1.008-0.465-1.296-1.476-3.799-1.425c-2.508,0.06-3.923-0.121-5.709-1.503c-0.464-0.358-0.847-0.771-1.174-1.118
	c-0.021-0.008-0.033-0.018-0.058-0.037c-1.713-1.282-1.373,2.99-1.022,3.691c1.236,2.452,2.078,1.45,9.222,5.186
	c3.396,1.778,4.194,4.168,4.552,5.167c0.571,1.624,1.164,2.085-4.03,1.373c-1.662-0.226-4.655-1.266-6.072-2.208
	c-1.374-0.926-4.119-0.177-3.871,1.839c1.279,3.078,4.572,5.008,7.719,5.395c2.748,0.338,3.994,0.93,4.493,1.535
	c1.512,1.686-1.279,4.149-1.279,4.149c-1.394,1.582,0.112,3.453,1.142,4.003c1.675,0.835,4.919,2.743,6.008,5.493
	c5.629,14.243,0.181,10.169-2.495,8.53c-2.676-1.64-7.776-5.823-12.426-5.455c-4.651,0.362-6.202,0.602-8.954-1.546
	c-2.76-2.15-2.484,1.331-2.484,1.331s0,4.227,0,17.181c0.166,3.853,0.886,7.518,4.001,10.635c2.554,2.554,4.495,2.073,8.101,6.385
	c1.661,1.988,7.078,4.133,10.7,4.173l6.927,0.004l24.67-23.739v-65.343l-20.99-20.983l-13.663-0.003
	c1.156,1.872,1.821,4.315,2.306,7.888c0.016,2.148-2.88,1.103-3.815,0.547c-0.658-0.444-1.512-0.857-2.64-1.111
	c-2.099-0.498-7.127-2.658-8.495-3.145c-1.4-0.497-2.418,0.517-2.58,0.897l0.007,0.004c-0.35,0.65,0.381,1.967,0.381,1.967
	c1.977,4.385,5.602,4.156,9.6,6.954c5.479,3.846,2.543,4.65,1.418,4.071c-1.121-0.58-2.958-0.219-2.958-0.219
	c-4.429,1.193-5.759-0.608-8.348-1.287c-2.588-0.684-0.465,2.473,0.465,3.525"/>
<path id="path24-5" inkscape:connector-curvature="0" inkscape:export-filename="C:\Users\alex\sites\stanford-university-logo-4.png" inkscape:export-xdpi="99.979874" inkscape:export-ydpi="99.979874" d="
	M67.112,391.437c1.709-2.647,4.725-4.895,6.64-6.809c2.023-2.018,2.385-6.611,2.447-11.606c0-7.697,0-10.404,0-10.404l0.015,0.107
	c0-1.039,0-1.867,0-2.487l0.007-0.003v-1.659c0.007-0.065,0.007-0.212,0-0.39v-4.485c0-1.036-1.225-1.119-3.908,1.721
	c-2.688,2.835-7.205,2.608-9.819,2.835c-2.602,0.232-10.116,4.066-12.264,6.822c-1.332,1.718-3.218,0.307-2.45-3.062h-0.018
	c0.361-1.529,1.03-3.566,2.1-6.268c1.491-3.763,7.042-5.96,7.042-5.96s0.572-0.251,1.074-0.739h-4.706
	c0,0.004-0.007,0.004-0.007,0.004H22.03l-0.011,28.155l24.661,23.745l7.933,0.004C62.067,400.598,64.854,394.937,67.112,391.437"/>
<path id="path26-6" inkscape:connector-curvature="0" inkscape:export-filename="C:\Users\alex\sites\stanford-university-logo-4.png" inkscape:export-xdpi="99.979874" inkscape:export-ydpi="99.979874" d="
	M46.68,213.817l-24.661,23.701v68.472l20.986,21.011h19.709c3.381-1.447,4.09-1.328,5.023-3.18c0.14-0.282,0.277-1.129,0.284-1.968
	c0.045-0.237,0.473-2.737-0.767-2.121c-2.108,1.04-6.356-1.694-9.545-0.08c-3.185,1.617-0.856-2.125-0.406-2.774
	c0,0,1.706-2.206,4.274-3.663c0.096-0.05,0.176-0.107,0.251-0.157c0.251-0.133,0.509-0.259,0.775-0.38
	c1.948-0.894,7.525-4.536,8.526-5.67c0.594-0.663,1.653-2.17,1.705-3.011c0.174-0.724,0.311-1.875-0.399-2.329
	c-1.063-0.683-1.911,0.667-3.575,1.391c-1.665,0.723-2.913,1.023-4.396,1.071c-1.422,0.047-2.783-0.484-3.636-0.355
	c-0.86,0.134-1.358-0.501,0.211-2.045c0.708-0.701,1.011-1.012,1.343-1.251c3.724-2.34,7.061-2.374,8.924-6.511
	c0,0,1.458-3.731-1.343-2.144c-1.543,0.878-2.377,2.144-6.777,2.144c-4.391,0-6.105,2.027-6.849,2.92c0,0-2.979,4.097-2.237-1.639
	c0.749-5.735,1.875-8.647,4.628-10.873c2.369-1.919,8.264-4.496,10.386-7.327c1.096-1.066,3.831-4.129,2.236-6.738
	c-0.663-1.089-2.302,1.745-3.993,2.107H67.35c-1.915,0.506-4.369,1.122-6.241,0.753c-2.318-0.461-3.798,0.406-4.662,0.797
	c-0.859,0.384-2.502-0.837-0.502-3.078c2.68-3,9.157-6.92,13.52-9.26c0.598-0.24,2.059-0.872,3.398-1.706
	c0.025-0.014,0.056-0.026,0.078-0.036c0.332-0.144,0.819-0.439,1.1-0.797c0.956-0.779,1.602-1.661,1.38-2.546
	c-0.203-0.82-0.598-1.086-1.882-1.218c-1.026-0.102-2.706,1.062-4.13,0.951c-2.185-0.173-5.377,0.318-4.318-1.2
	c0.985-1.416,2.601-2.321,3.055-2.564c0.901-0.406,2.093-0.92,3.868-1.705c2.775-1.223,2.387-4.328,1.31-4.437
	c-1.68-0.173-6.194,1.244-3.016-2.318c0,0,1.517-1.491,3.027-2.458c1.203-0.683,2.192-0.948,3.377-1.368
	c0.753-0.263,2.679-1.953-1.916-2.126c0,0-2.58,0.063-2.078-1.093c0.399-0.772,2.653-2.167,2.653-2.167s1.824-1.218,2.559-1.952
	c0.712-0.663,1.21-1.204,1.177-1.804c-0.033-0.689-1.838-1.533-2.606-2.49c-0.55-0.689-0.085-0.93,0.225-1.018
	c0.162-0.029,0.354-0.052,0.598-0.051c1.86,0.005,2.399-1.82,3.48-6.587c0.329-1.435,0.351-1.738,0.827-1.742l0,0
	c0.007,0,0.007,0,0.007,0l0,0c0.038,0,0.067,0.009,0.096,0.009c0,0,0.465,2.421,1.136,5.114c0.561,1.484,1.2,2.116,2.293,2.113
	c0.236,0,0.428,0.019,0.594,0.056c0.302,0.081,0.778,0.322,0.225,1.013c-0.421,0.524-1.68,1.384-1.768,1.91
	c-0.374,1.485,1.062,2.015,2.532,2.119c2.078,0.141,1.211,1.407-1.026,3.043c-2.17,1.584,3.369,4.95,3.369,4.95
	c3.159,2.395,0.905,3.02,0.262,3.355c-0.642,0.332-2.413,1.399-0.631,2.08c1.784,0.673,4.239,3.098,4.239,3.098
	c3.176,3.56-1.338,2.145-3.014,2.318c-1.077,0.111-1.465,3.215,1.309,4.442c4.229,1.869,5.164,2.188,6.665,3.28
	c2.787,2.032,1.308,3.755-2.177,3.148c0,0-2.237-0.551-3.805-0.251c-0.971,0.188-1.651,0.406-2.109,0.635
	c-0.238,0.358-0.797,1.771,4.06,3.241c2.326,0.701,5.197,2.421,7.752,4.385l39.816-0.045v-31.654l-24.67-23.742L46.68,213.817"/>
<path id="path28-0" inkscape:connector-curvature="0" inkscape:export-filename="C:\Users\alex\sites\stanford-university-logo-4.png" inkscape:export-xdpi="99.979874" inkscape:export-ydpi="99.979874" d="
	M144.892,272.648l-39.421-0.004c0.828,0.857,1.519,1.68,1.987,2.411c1.768,2.126,0.232,3.277-0.612,2.924
	c0,0-0.653-0.311-1.074-0.473c-0.395-0.126-2.085-0.314-2.326-0.31c-2.092-0.066-7.739-0.431-11.168-2.377
	c-1.35-0.764-1.487,1.078-0.894,2.532c0.319,0.783,1.521,2.506,3.133,4.145c0.406,0.451,0.899,0.901,1.455,1.336
	c0.645,0.55,1.332,1.049,2.03,1.447c0.008,0.004,0.01,0.004,0.014,0.011c1.819,1.17,3.816,2.255,5.297,3.219l18.58-0.004
	l22.999,22.987v68.226l-26.721,25.711H45.3l-26.714-25.754l0.015-33.05h35.768c0,0.004,0.007,0.004,0.007,0.007h3.514
	c-0.406-0.472-0.978-0.978-1.776-1.521c0,0-3.118-2.641,4.105-3.535c3.149-0.388,6.437-2.318,7.721-5.395
	c0.244-2.016-2.502-2.77-3.875-1.838c-1.41,0.942-4.41,1.98-6.068,2.208c-5.196,0.712-4.606,0.249-4.03-1.375
	c0.266-0.748,0.779-2.272,2.443-3.738l-14.83-0.005l-22.993-23.023v-71.349l26.717-25.672h72.867l26.721,25.714L144.892,272.648z
	 M148.322,234.639l-28.764-27.681H43.92l-28.766,27.638v74.235l25.005,25.03h11.468c-0.281,0.753-0.647,1.919,0.147,3.06
	c0.868,1.255,2.366,1.255,2.927,1.255c0.683,0,1.616-0.081,3.06-0.268l0.007,0.003c0,0,0.602,0.511-1.229,1.099v0.005
	c-1.502,0.524-2.813,1.384-3.255,2.867c-0.03,0.104-0.04,0.206-0.063,0.313H15.17l-0.015,37.942l28.759,27.726h75.645l28.764-27.685
	v-71.108l-25.01-24.997h-21.209c-0.011-0.003-0.02-0.011-0.03-0.015c-0.934-0.553-1.897-1.118-2.775-1.694l-0.317-0.2l-0.063-0.021
	c-0.465-0.289-0.967-0.654-1.519-1.112c-0.471-0.376-0.865-0.738-1.159-1.07l-0.079-0.081c-0.562-0.576-1.041-1.126-1.427-1.609
	c3.316,0.945,6.91,1.174,8.638,1.233h0.217c0.116,0,0.225,0.003,0.325,0.003l0.155,0.015c0.413,0.033,0.735,0.103,0.942,0.162
	c0.222,0.092,0.423,0.185,0.598,0.266l0.901,0.331c0.213,0.045,0.435,0.067,0.66,0.067c1.306,0,2.513-0.774,3.07-1.971
	c0.195-0.413,0.464-1.241,0.251-2.315l37.831,0.019v-41.442"/>
<path id="path30-9" inkscape:connector-curvature="0" inkscape:export-filename="C:\Users\alex\sites\stanford-university-logo-4.png" inkscape:export-xdpi="99.979874" inkscape:export-ydpi="99.979874" d="
	M116.79,401.978l-6.919-0.004c-3.476-0.041-8.862-2.389-10.484-4.329c-2.156-2.575-3.763-3.486-5.181-4.292
	c-0.985-0.558-1.916-1.086-2.938-2.112c-3.186-3.189-3.768-6.901-3.92-10.43v-18.186c-0.023-0.309-0.008-1.191,0.335-1.565
	c0.1-0.11,0.223-0.16,0.379-0.16c0.226,0,0.634,0.109,1.315,0.641c1.767,1.377,3.08,1.841,5.206,1.841
	c0.919,0,1.974-0.08,3.304-0.187l0.64-0.049c3.717-0.306,7.734,2.399,10.612,4.336c0.615,0.413,1.164,0.785,1.645,1.079l0.488,0.303
	c1.102,0.693,2.477,1.554,3.488,1.554c0.465,0,0.834-0.185,1.074-0.536c0.512-0.752,0.846-2.627-2.144-10.197
	c-1.108-2.797-4.325-4.736-6.139-5.635c-0.621-0.338-1.367-1.156-1.524-2.019c-0.103-0.564,0.054-1.085,0.438-1.526
	c0.07-0.059,1.73-1.546,1.817-3.081c0.034-0.554-0.141-1.05-0.507-1.46c-0.654-0.789-2.184-1.325-4.678-1.635
	c-2.781-0.342-6.165-2.078-7.479-5.185c-0.046-0.447,0.076-0.835,0.358-1.152c0.395-0.447,1.094-0.729,1.821-0.729
	c0.481,0,0.928,0.122,1.257,0.347c1.506,1.001,4.562,2.034,6.19,2.253c1.675,0.228,2.67,0.329,3.335,0.329
	c0.7,0,1.078-0.116,1.266-0.388c0.237-0.34,0.073-0.778-0.134-1.332c-0.042-0.11-0.086-0.228-0.151-0.414
	c-0.371-1.036-1.237-3.468-4.668-5.265c-2.907-1.521-4.797-2.271-6.05-2.766c-1.862-0.737-2.363-0.932-3.052-2.295
	c-0.226-0.454-0.436-2.664,0-3.37c0.095-0.15,0.172-0.15,0.208-0.15c0.058,0,0.183,0.025,0.412,0.194l0.035,0.023
	c0.318,0.338,0.71,0.756,1.177,1.118c1.91,1.473,3.424,1.615,5.888,1.562l0.176-0.004c1.558,0,2.134,0.447,2.69,0.874
	c0.242,0.189,0.492,0.382,0.809,0.524l0.17,0.082c0.377,0.176,0.767,0.361,1.107,0.361c0.306,0,0.478-0.148,0.568-0.272
	c0.22-0.303,0.351-0.894-0.34-2.987c-1.485-4.51-3.994-7.443-7.899-9.227c-1.912-0.878-7.443-4.484-8.431-5.599
	c-0.894-1.009-1.809-2.591-1.607-3.037c0.013-0.025,0.049-0.11,0.31-0.11c0.145,0,0.33,0.026,0.548,0.085
	c0.696,0.184,1.318,0.457,1.917,0.724c1.08,0.48,2.198,0.973,3.809,0.973c0.842,0,1.748-0.131,2.749-0.402
	c0.007-0.004,0.551-0.105,1.211-0.105c0.646,0,1.185,0.099,1.56,0.294c0.251,0.13,0.567,0.199,0.891,0.199
	c0.643,0,1.132-0.284,1.279-0.739c0.292-0.926-0.816-2.276-3.295-4.014c-1.413-0.99-2.802-1.613-4.029-2.168
	c-2.363-1.066-4.229-1.907-5.487-4.69c-0.252-0.458-0.579-1.321-0.378-1.698l0.06-0.11c0.174-0.251,0.724-0.772,1.514-0.772
	c0.217,0,0.439,0.037,0.66,0.118c0.408,0.144,1.145,0.439,2.03,0.794c2.111,0.845,5.004,2.004,6.499,2.358
	c0.953,0.218,1.809,0.576,2.554,1.078c0.535,0.317,1.672,0.79,2.629,0.79c0.524,0,0.934-0.144,1.215-0.425
	c0.269-0.273,0.404-0.661,0.399-1.192c-0.489-3.584-1.438-6.806-2.361-8.021c-0.582-0.763-2.094-2.635-3.581-3.498
	c-0.713-0.414-3.204-1.871-5.237-3.174l-0.074-0.052c-0.656-0.376-1.325-0.852-1.995-1.421c-0.567-0.449-1.043-0.889-1.428-1.317
	c-1.582-1.609-2.763-3.288-3.073-4.052c-0.347-0.849-0.419-1.812-0.165-2.189c0.134-0.191,0.346-0.166,0.657,0.011
	c3.461,1.967,9.055,2.344,11.314,2.417c0.234,0,1.874,0.181,2.218,0.288c0.412,0.163,1.052,0.465,1.066,0.473
	c0.593,0.244,1.381-0.089,1.676-0.724c0.197-0.421,0.364-1.325-0.716-2.617c-0.464-0.719-1.142-1.547-2.023-2.458
	c-0.019-0.019-1.961-1.99-3.859-3.418c-1.599-1.2-5.54-3.735-7.839-4.429c-3.089-0.934-3.812-1.804-3.966-2.236
	c-0.077-0.222-0.037-0.396,0.025-0.512c0.458-0.218,1.116-0.41,1.962-0.577c0.29-0.055,0.632-0.085,1.013-0.085
	c1.304,0,2.656,0.329,2.69,0.336c2.046,0.358,3.584-0.069,3.905-1.055c0.148-0.45,0.146-1.387-1.512-2.598
	c-1.268-0.924-2.154-1.311-4.792-2.466c-0.557-0.244-1.191-0.521-1.927-0.849c-1.778-0.782-2.046-2.304-1.925-3.079
	c0.072-0.456,0.289-0.792,0.53-0.818c0.378-0.045,0.908,0.007,1.479,0.059c0.451,0.036,0.917,0.078,1.334,0.078
	c0.575,0,1.266-0.063,1.493-0.573c0.228-0.512-0.114-1.236-1.12-2.366c-0.102-0.1-2.523-2.473-4.336-3.16
	c-0.367-0.14-0.584-0.306-0.591-0.453c-0.015-0.266,0.498-0.722,1.249-1.112c0.058-0.029,0.13-0.062,0.209-0.098
	c0.462-0.212,1.238-0.564,1.317-1.298c0.076-0.69-0.493-1.487-1.771-2.451c-1.022-0.622-3.685-2.51-3.739-3.775
	c-0.011-0.279,0.11-0.504,0.387-0.704c2.304-1.683,2.414-2.425,2.295-2.837c-0.182-0.635-1.111-0.697-1.414-0.717
	c-1.065-0.076-1.828-0.358-2.148-0.798c-0.186-0.257-0.229-0.575-0.128-0.99c0.041-0.234,0.603-0.735,0.976-1.065
	c0.292-0.26,0.568-0.504,0.739-0.716c0.278-0.348,0.374-0.665,0.284-0.941c-0.084-0.251-0.313-0.433-0.668-0.523
	c-0.184-0.045-0.399-0.068-0.666-0.068c-0.939,0-1.486-0.521-2.008-1.897c-0.666-2.655-1.133-5.076-1.137-5.1l-0.052-0.231
	l-0.325-0.007c-0.659,0.006-0.758,0.443-1.021,1.608l-0.08,0.355c-1.071,4.717-1.59,6.366-3.235,6.366
	c-0.215,0-0.412,0.02-0.648,0.061c-0.44,0.127-0.598,0.361-0.653,0.534c-0.087,0.273,0.009,0.589,0.288,0.934
	c0.353,0.443,0.886,0.842,1.403,1.227c0.502,0.374,1.127,0.844,1.141,1.101c0.025,0.452-0.365,0.905-1.098,1.589
	c-0.702,0.704-2.494,1.904-2.503,1.91c-0.238,0.147-2.338,1.462-2.764,2.295c-0.162,0.377-0.071,0.65,0.038,0.813
	c0.4,0.611,1.692,0.677,2.23,0.677l0.06-0.001c2.47,0.094,2.673,0.611,2.687,0.715c0.045,0.283-0.503,0.739-0.855,0.862
	c-0.238,0.087-0.467,0.165-0.691,0.238c-0.899,0.306-1.746,0.593-2.745,1.161c-1.52,0.97-3.009,2.431-3.085,2.507
	c-0.997,1.117-1.339,1.842-1.11,2.353c0.227,0.508,0.916,0.575,1.489,0.575c0.418,0,0.882-0.04,1.335-0.082
	c0.571-0.05,1.102-0.1,1.48-0.056c0.242,0.023,0.459,0.364,0.531,0.824c0.121,0.772-0.147,2.289-1.926,3.072
	c-0.841,0.372-1.554,0.683-2.165,0.951c-0.676,0.296-1.229,0.538-1.72,0.761c-0.778,0.417-2.227,1.322-3.157,2.653
	c-0.264,0.381-0.327,0.709-0.186,0.982c0.315,0.606,1.504,0.609,3.006,0.618c0.581,0,1.181,0.003,1.713,0.043
	c0.807,0.059,1.709-0.258,2.486-0.543c0.631-0.232,1.233-0.453,1.634-0.409c1.23,0.128,1.477,0.349,1.641,1.003
	c0.165,0.668-0.267,1.429-1.33,2.302c-0.232,0.3-0.665,0.573-0.989,0.713l-0.114,0.059c-1.412,0.878-2.926,1.51-3.386,1.693
	c-4.892,2.624-11.033,6.452-13.6,9.328c-1.235,1.383-1.087,2.336-0.887,2.779c0.293,0.654,1.116,1.008,1.721,0.741l0.282-0.133
	c0.691-0.325,1.635-0.767,2.961-0.767c0.404,0,0.823,0.039,1.244,0.125c0.395,0.078,0.835,0.119,1.312,0.119
	c1.733,0,3.735-0.528,5.047-0.871c0.838-0.18,1.617-0.871,2.306-1.48c0.459-0.409,0.98-0.871,1.239-0.871
	c0.028,0,0.08,0,0.148,0.115c1.47,2.399-1.04,5.263-2.218,6.419c-1.316,1.753-4.152,3.428-6.656,4.904
	c-1.44,0.853-2.801,1.658-3.682,2.371c-2.715,2.196-3.954,5.089-4.733,11.061c-0.22,1.694-0.145,2.686,0.237,3.122
	c0.147,0.166,0.336,0.252,0.553,0.252c0.802,0,1.773-1.278,1.948-1.521c0.7-0.841,2.341-2.817,6.632-2.817
	c3.647,0,4.947-0.881,6.097-1.656c0.266-0.18,0.528-0.359,0.816-0.521c1.004-0.568,1.14-0.362,1.209-0.258
	c0.233,0.343-0.016,1.403-0.261,2.034c-1.244,2.764-3.112,3.606-5.474,4.672c-1.07,0.483-2.175,0.982-3.358,1.728
	c-0.331,0.236-0.618,0.523-1.247,1.151l-0.129,0.125c-0.899,0.886-1.253,1.587-1.049,2.086c0.144,0.355,0.561,0.524,1.08,0.443
	c0.387-0.059,0.906,0.041,1.48,0.14c0.584,0.104,1.244,0.222,1.926,0.222l0.193-0.004c1.539-0.048,2.801-0.358,4.502-1.092
	c0.613-0.269,1.11-0.609,1.55-0.912c0.732-0.502,1.227-0.841,1.76-0.502c0.573,0.366,0.419,1.425,0.267,2.075
	c-0.041,0.698-0.989,2.122-1.631,2.838c-0.991,1.118-6.526,4.728-8.436,5.599c-0.271,0.125-0.53,0.254-0.838,0.42
	c-0.061,0.041-0.126,0.086-0.206,0.13c-2.589,1.464-4.287,3.644-4.367,3.745c-0.068,0.1-1.664,2.399-1.209,3.278
	c0.068,0.129,0.242,0.346,0.64,0.346c0.325,0,0.762-0.142,1.335-0.435c0.655-0.331,1.406-0.489,2.297-0.489
	c1.077,0,2.178,0.228,3.245,0.453c1.606,0.336,3.084,0.564,3.997,0.117c0.234-0.117,0.262-0.089,0.316-0.023
	c0.223,0.271,0.164,1.236,0.046,1.89c-0.007,0.863-0.155,1.64-0.252,1.841c-0.687,1.363-1.187,1.558-3.049,2.297
	c-0.509,0.203-1.111,0.439-1.837,0.753c-0.2,0.089-4.907,2.214-6.373,3.476c-1.454,1.252-2.208,2.956-2.53,3.861l-0.129,0.349
	c-0.208,0.554-0.374,0.994-0.136,1.336c0.188,0.274,0.567,0.388,1.269,0.388c0.666,0,1.663-0.1,3.336-0.329
	c1.634-0.221,4.693-1.254,6.188-2.256c0.329-0.221,0.775-0.342,1.255-0.342c0.729,0,1.427,0.278,1.821,0.725
	c0.284,0.32,0.406,0.708,0.36,1.155c-1.314,3.106-4.697,4.842-7.476,5.185c-3.019,0.373-4.643,1.081-4.968,2.166
	c-0.297,0.997,0.67,1.832,0.737,1.886c0.806,0.545,1.348,1.077,1.732,1.48c0.422,0.447,0.852,1.173,0.792,1.878
	c-0.037,0.435-0.271,1.163-1.682,1.824c-1.409,0.656,0,0,0.007,0c-0.232,0.093-5.687,2.283-7.206,6.12
	c-1.016,2.575-1.728,4.697-2.111,6.304l-0.067,0.349h0.013c-0.248,1.37-0.082,2.532,0.47,3.222c0.655,0.82,1.786,0.719,2.552-0.268
	c2.124-2.726,9.64-6.496,12.069-6.716c0.388-0.033,0.816-0.057,1.275-0.079c2.684-0.149,6.359-0.348,8.722-2.842
	c2.012-2.126,2.91-2.292,3.138-2.292c0.099,0,0.283,0,0.283,0.377v4.491c0.007,0.166,0.007,0.306,0,0.384l-0.019,15.424
	c-0.06,4.756-0.387,9.433-2.364,11.405c-0.557,0.56-1.212,1.147-1.904,1.77c-1.662,1.494-3.547,3.189-4.771,5.088
	c-0.214,0.33-0.433,0.677-0.659,1.042c-2.117,3.389-5.016,8.283-11.617,8.605l-7.927-0.004l70.11,0.04"/>
<path id="path32-1" inkscape:connector-curvature="0" inkscape:export-filename="C:\Users\alex\sites\stanford-university-logo-4.png" inkscape:export-xdpi="99.979874" inkscape:export-ydpi="99.979874" fill="#FFFFFF" d="
	M60.077,401.188l43.566,0.024c-2.072-0.864-3.927-1.994-4.834-3.081c-2.068-2.47-3.61-3.349-4.972-4.12
	c-0.987-0.56-2.009-1.14-3.103-2.236c-3.37-3.374-3.981-7.248-4.138-10.932l-0.007-18.219c-0.009-0.088-0.09-1.397,0.535-2.077
	c0.572-0.624,1.523-0.536,2.715,0.394c2.378,1.858,3.784,1.832,7.988,1.5l0.64-0.048c3.894-0.336,8.115,2.458,11.09,4.459
	c0.663,0.446,1.172,0.79,1.618,1.061l0.495,0.306c0.971,0.611,2.295,1.441,3.088,1.441c0.274,0,0.384-0.112,0.45-0.205
	c0.358-0.53,0.551-2.471-2.221-9.496c-1.021-2.568-4.055-4.384-5.774-5.237c-0.821-0.438-1.731-1.45-1.933-2.557
	c-0.143-0.794,0.07-1.541,0.615-2.158c0.584-0.529,1.576-1.662,1.631-2.629c0.023-0.351-0.083-0.65-0.317-0.912
	c-0.377-0.453-1.39-1.04-4.205-1.387c-2.992-0.372-6.652-2.258-8.083-5.643l-0.055-0.219c-0.069-0.652,0.118-1.251,0.541-1.729
	c0.903-1.02,2.935-1.274,4.069-0.506c1.397,0.93,4.355,1.926,5.869,2.13c3.041,0.42,3.888,0.246,3.899,0.238
	c-0.025-0.039-0.149-0.372-0.24-0.612l-0.16-0.436c-0.338-0.952-1.137-3.184-4.302-4.845c-2.87-1.498-4.742-2.242-5.977-2.732
	c-1.917-0.756-2.631-1.042-3.449-2.657c-0.315-0.632-0.574-3.13,0.031-4.105c0.365-0.589,1.008-0.69,1.711-0.169
	c0.452,0.451,0.806,0.827,1.224,1.152c1.548,1.193,2.786,1.412,4.666,1.412l0.936-0.014c1.813,0,2.554,0.572,3.152,1.034
	c0.224,0.173,0.426,0.328,0.658,0.435l0.185,0.09c0.254,0.117,0.603,0.279,0.775,0.283c-0.007-0.033,0.111-0.462-0.484-2.265
	c-1.414-4.298-3.793-7.088-7.494-8.774c-1.835-0.846-7.557-4.517-8.684-5.786c-0.023-0.027-2.288-2.614-1.729-3.85
	c0.13-0.285,0.648-0.745,1.742-0.443c0.75,0.196,1.398,0.48,2.023,0.76c1.062,0.468,2.058,0.908,3.507,0.908
	c0.778,0,1.613-0.121,2.552-0.376c0.089-0.029,0.74-0.133,1.408-0.133c0.778,0,1.421,0.128,1.91,0.383
	c0.361,0.184,1.042,0.073,1.1-0.103c0.009-0.029,0.236-0.889-3.008-3.163c-1.342-0.941-2.687-1.547-3.875-2.085
	c-2.441-1.1-4.521-2.041-5.894-5.08c-0.117-0.206-0.805-1.535-0.356-2.369l0.104-0.181c0.282-0.409,1.049-1.1,2.135-1.1
	c0.307,0,0.614,0.056,0.914,0.163c0.396,0.14,1.104,0.421,1.958,0.765c2.196,0.877,5.055,2.022,6.49,2.361
	c1.04,0.24,1.985,0.639,2.801,1.189c0.577,0.34,2.432,0.93,2.887,0.458c0.047-0.044,0.185-0.184,0.179-0.65
	c-0.457-3.318-1.369-6.47-2.208-7.569c-0.554-0.727-1.99-2.51-3.357-3.304c-0.929-0.538-3.303-1.933-5.265-3.189
	c-0.742-0.435-1.452-0.94-2.151-1.535c-0.578-0.457-1.09-0.93-1.5-1.388c-1.644-1.671-2.866-3.421-3.214-4.273
	c-0.382-0.938-0.558-2.199-0.089-2.897c0.35-0.505,0.946-0.624,1.655-0.226c3.316,1.886,8.776,2.252,10.966,2.321l0,0
	c0.265,0,1.986,0.188,2.417,0.325c0.487,0.188,1.164,0.505,1.179,0.516h0.007c0.276,0,0.541-0.129,0.65-0.365
	c0.1-0.211,0.234-0.805-0.609-1.812c-0.493-0.759-1.145-1.546-1.988-2.421c-0.195-0.2-2.001-2.008-3.768-3.336
	c-1.514-1.137-5.422-3.651-7.602-4.312c-2.636-0.793-4.094-1.678-4.46-2.705c-0.134-0.384-0.11-0.775,0.064-1.114l0.117-0.225
	l0.231-0.111c0.516-0.244,1.235-0.458,2.141-0.635c1.301-0.247,3.536,0.144,4.012,0.255c0.4,0.071,0.811,0.107,1.184,0.107
	c1.122,0,1.733-0.332,1.84-0.657c0.105-0.332-0.161-0.967-1.241-1.758c-1.201-0.869-2.071-1.253-4.649-2.383l-1.93-0.849
	c-2.197-0.967-2.522-2.897-2.365-3.886c0.131-0.824,0.602-1.392,1.201-1.454c0.348-0.038,0.901-0.004,1.487,0.048
	c0.572,0.048,1.012,0.084,1.401,0.084c0.667,0,0.793-0.114,0.805-0.126c0-0.003,0.081-0.346-0.996-1.549
	c-0.574-0.576-2.621-2.422-4.04-2.959c-0.692-0.264-1.053-0.642-1.077-1.125c-0.044-0.769,0.875-1.415,1.655-1.819l0.249-0.118
	c0.312-0.143,0.839-0.384,0.874-0.69c0.014-0.141-0.046-0.683-1.476-1.765c-0.348-0.208-3.959-2.455-4.038-4.345
	c-0.015-0.372,0.094-0.908,0.697-1.347c2.053-1.498,2.016-2.014,2.014-2.018c-0.007-0.003-0.124-0.13-0.737-0.17
	c-1.315-0.095-2.254-0.479-2.711-1.113c-0.319-0.44-0.404-0.982-0.251-1.608c0.064-0.38,0.411-0.745,1.209-1.454
	c0.282-0.251,0.51-0.446,0.649-0.622c0.118-0.147,0.151-0.24,0.152-0.264c-0.249-0.023-0.41-0.039-0.611-0.039
	c-1.594,0-2.266-1.207-2.714-2.385c-0.428-1.69-0.781-3.309-0.983-4.292c-0.036,0.146-0.072,0.306-0.105,0.459l-0.084,0.358
	c-0.984,4.336-1.578,6.953-3.971,6.953c-0.17,0-0.328,0.016-0.515,0.049c-0.059,0.011-0.028,0.102,0.091,0.248
	c0.295,0.372,0.787,0.741,1.266,1.097c0.874,0.651,1.412,1.081,1.444,1.664c0.044,0.826-0.582,1.475-1.339,2.185
	c-0.758,0.761-2.614,1.995-2.629,2.004c-1.217,0.755-2.286,1.612-2.478,1.991c0.064,0.159,0.563,0.39,1.593,0.39
	c1.475,0.052,3.336,0.251,3.494,1.361c0.127,0.808-0.818,1.497-1.351,1.686l-0.704,0.24c-0.857,0.292-1.671,0.566-2.611,1.1
	c-1.452,0.928-2.91,2.37-2.923,2.385c-1.036,1.164-0.956,1.507-0.953,1.511c0.007,0,0.121,0.124,0.798,0.124
	c0.397,0,0.838-0.039,1.266-0.076c0.718-0.061,1.225-0.104,1.633-0.056c0.592,0.059,1.065,0.632,1.194,1.459
	c0.156,0.984-0.17,2.912-2.369,3.879l-2.492,1.096c-0.528,0.232-0.977,0.432-1.383,0.616c-0.677,0.362-2.009,1.188-2.85,2.395
	c-0.118,0.17-0.124,0.248-0.124,0.248c0.2,0.154,1.477,0.159,2.322,0.162c0.606,0,1.226,0.004,1.775,0.049c0.007,0,0.011,0,0.017,0
	c0.779,0,1.57-0.289,2.148-0.502c0.641-0.237,1.248-0.458,1.785-0.458l0.192,0.01c1.292,0.134,2.002,0.414,2.292,1.573
	c0.364,1.461-1.102,2.671-1.581,3.068c-0.223,0.313-0.77,0.648-1.172,0.823c-1.36,0.844-2.785,1.464-3.514,1.76
	c-4.761,2.558-10.819,6.33-13.322,9.127c-0.986,1.108-0.859,1.746-0.759,1.971c0.106,0.237,0.385,0.381,0.59,0.381l0.406-0.151
	c0.708-0.332,1.784-0.838,3.277-0.838c0.456,0,0.924,0.048,1.393,0.14c1.647,0.329,4.4-0.321,6.018-0.742
	c0.674-0.147,1.37-0.764,1.985-1.306c0.749-0.665,1.229-1.071,1.751-1.071h0.426l0.368,0.48c1.233,2.009,0.382,4.688-2.334,7.349
	c-1.33,1.789-4.235,3.503-6.798,5.016c-1.423,0.841-2.757,1.631-3.594,2.307c-2.543,2.056-3.709,4.824-4.46,10.57
	c-0.264,2.045,0,2.462,0.056,2.525c0.177-0.003,0.778-0.461,1.321-1.211c0.801-0.964,2.602-3.13,7.245-3.13
	c3.414,0,4.561-0.775,5.673-1.528c0.282-0.192,0.563-0.38,0.87-0.553c0.582-0.329,0.998-0.477,1.343-0.477
	c0.256,0,0.615,0.081,0.868,0.461c0.517,0.753-0.013,2.277-0.187,2.723c-1.377,3.061-3.455,3.997-5.861,5.087
	c-1.05,0.471-2.13,0.959-3.273,1.678c-0.246,0.181-0.519,0.451-1.117,1.049l-0.136,0.133c-0.901,0.889-0.875,1.254-0.875,1.258
	l0.266-0.019c0.443-0.073,1.004,0.015,1.652,0.13c0.626,0.11,1.248,0.221,1.868,0.221l0.186-0.003c1.415-0.044,2.6-0.333,4.209-1.03
	c0.554-0.244,1.015-0.561,1.422-0.839c0.894-0.616,1.782-1.036,2.596-0.516c0.731,0.461,0.934,1.432,0.596,2.878
	c-0.04,0.894-1.234,2.536-1.804,3.174c-1.13,1.275-6.854,4.946-8.684,5.783c-0.253,0.116-0.499,0.237-0.791,0.395
	c-0.035,0.027-0.118,0.082-0.217,0.134c-2.451,1.392-4.101,3.517-4.117,3.54c-0.735,1.052-1.209,2.19-1.13,2.484
	c0.052-0.077,0.33-0.112,0.952-0.429c1.642-0.834,4.078-0.522,6.042-0.104c1.369,0.289,2.877,0.488,3.507,0.179
	c0.158-0.082,0.341-0.161,0.555-0.161h0.356l0.32,0.334c0.474,0.571,0.334,1.816,0.208,2.505c0.007,0.738-0.137,1.668-0.318,2.037
	c-0.819,1.629-1.534,1.912-3.446,2.67c-0.506,0.201-1.103,0.434-1.823,0.746c-1.785,0.807-5.099,2.427-6.177,3.353
	c-1.321,1.138-2.015,2.707-2.311,3.54l-0.133,0.362c-0.088,0.235-0.203,0.541-0.206,0.667c0.035-0.019,0.192,0.038,0.632,0.038
	c0.628,0,1.595-0.097,3.234-0.321c1.524-0.208,4.479-1.202,5.869-2.134c1.138-0.767,3.163-0.509,4.064,0.51
	c0.424,0.481,0.613,1.077,0.544,1.729l-0.055,0.216c-1.431,3.386-5.088,5.274-8.08,5.646c-3.604,0.444-4.233,1.288-4.336,1.632
	c-0.153,0.514,0.485,1.077,0.491,1.081c0.805,0.542,1.389,1.114,1.801,1.545c0.261,0.275,1.102,1.263,0.999,2.463
	c-0.085,1.008-0.796,1.827-2.115,2.443l-0.088-0.183l0.08,0.188l-0.747,0.33c-1.508,0.716-4.97,2.611-6.066,5.383
	c-0.985,2.49-1.675,4.547-2.056,6.103l-0.068,0.407c-0.206,1.133-0.088,2.111,0.315,2.611c0.352,0.445,0.933,0.303,1.364-0.257
	c2.266-2.908,9.996-6.773,12.599-7.005c0.398-0.035,0.835-0.059,1.304-0.085c2.562-0.139,6.059-0.332,8.212-2.605
	c1.565-1.654,2.84-2.529,3.687-2.529c0.632,0,1.039,0.446,1.039,1.133v4.491c0.007,0.182,0.007,0.342,0,0.436l-0.017,15.373
	c-0.072,5.692-0.539,9.895-2.587,11.939c-0.563,0.569-1.228,1.165-1.931,1.799c-1.63,1.461-3.473,3.121-4.645,4.934
	c-0.213,0.328-0.428,0.676-0.651,1.034l-0.151,0.24c-1.428,2.292-3.359,5.389-6.638,7.212L60.077,401.188z M116.79,402.735
	l-62.147-0.036h-0.037l-7.927-0.003l0.007-1.516l7.925,0.004c6.025-0.31,8.799-4.758,10.825-8.005l0.151-0.243
	c0.229-0.365,0.449-0.718,0.664-1.05c1.28-1.984,3.204-3.714,4.901-5.242c0.683-0.614,1.327-1.189,1.875-1.738
	c1.792-1.791,2.09-6.507,2.143-10.884l0.018-15.414c0.008-0.117,0.007-0.228,0.007-0.369l-0.007-3.908
	c-0.409,0.242-1.094,0.756-2.115,1.838c-2.566,2.71-6.412,2.92-9.219,3.074c-0.463,0.027-0.883,0.048-1.262,0.082
	c-2.26,0.203-9.551,3.874-11.538,6.425c-1.018,1.317-2.812,1.435-3.739,0.276c-0.561-0.7-0.812-1.724-0.732-2.938h-0.057
	l0.223-1.247c0.399-1.671,1.119-3.827,2.15-6.441c1.579-3.99,6.895-6.248,7.595-6.533c0.79-0.374,1.203-0.775,1.241-1.195
	c0.037-0.427-0.268-0.96-0.587-1.296c-0.382-0.397-0.873-0.878-1.609-1.377c-0.109-0.085-1.487-1.214-1.036-2.724
	c0.427-1.428,2.206-2.284,5.599-2.701c2.525-0.311,5.592-1.861,6.822-4.618c0-0.183-0.057-0.332-0.181-0.472
	c-0.413-0.465-1.566-0.609-2.086-0.254c-1.604,1.073-4.76,2.141-6.509,2.377c-1.708,0.235-2.738,0.336-3.437,0.336
	c-0.69,0-1.457-0.086-1.891-0.712c-0.462-0.668-0.19-1.393,0.048-2.03l0.132-0.351c0.342-0.967,1.16-2.805,2.745-4.172
	c1.454-1.255,5.706-3.211,6.544-3.59c0.758-0.325,1.366-0.564,1.882-0.769c1.816-0.719,2.095-0.831,2.65-1.932
	c0.039-0.109,0.166-0.739,0.171-1.51c0.064-0.372,0.094-0.709,0.102-0.967c-0.927,0.24-2.479,0.018-3.859-0.269
	c-1.81-0.383-3.787-0.669-5.045-0.029c-1.557,0.797-2.539,0.608-2.984-0.237c-0.588-1.126,0.535-3.026,1.256-4.06
	c0.096-0.126,1.877-2.422,4.614-3.971l0.218-0.136c0.325-0.175,0.596-0.311,0.882-0.444c1.97-0.901,7.326-4.44,8.186-5.415
	c0.741-0.822,1.423-2.018,1.443-2.38c0.216-0.978,0.122-1.34,0.073-1.399c-0.211-0.018-0.591,0.27-0.918,0.495
	c-0.439,0.303-0.986,0.679-1.673,0.979c-1.803,0.782-3.143,1.106-4.781,1.159l-0.211,0.003c-0.761,0-1.484-0.129-2.063-0.233
	c-0.452-0.081-0.799-0.147-1.089-0.147c-0.27,0.03-0.391,0.037-0.508,0.037c-0.724,0-1.296-0.347-1.534-0.938
	c-0.497-1.21,0.793-2.487,1.218-2.905c0.765-0.756,1.083-1.078,1.468-1.35c1.269-0.801,2.397-1.31,3.488-1.804
	c2.308-1.041,3.971-1.794,5.096-4.293c0.115-0.299,0.197-0.62,0.244-0.883c-0.041,0.023-0.085,0.049-0.131,0.075
	c-0.271,0.151-0.516,0.317-0.763,0.487c-1.183,0.797-2.645,1.79-6.523,1.79c-3.934,0-5.364,1.715-6.051,2.542
	c-0.369,0.513-1.419,1.794-2.53,1.794c-0.434,0-0.831-0.181-1.121-0.509c-0.55-0.624-0.675-1.738-0.419-3.721
	c0.808-6.19,2.119-9.213,5.008-11.548c0.921-0.746,2.301-1.566,3.763-2.429c2.453-1.447,5.22-3.082,6.445-4.714
	c1.009-1,2.985-3.218,2.409-5.064c-0.156,0.141-0.344,0.307-0.472,0.421c-0.766,0.679-1.622,1.436-2.649,1.653
	c-1.703,0.447-4.687,1.147-6.663,0.757c-1.591-0.321-2.873,0.177-3.735,0.587l-0.288,0.133c-1.015,0.446-2.277-0.115-2.729-1.119
	c-0.273-0.609-0.506-1.889,1.013-3.591c2.633-2.948,8.86-6.834,13.807-9.489c0.625-0.258,2.046-0.866,3.344-1.672l0.176-0.092
	c0.304-0.133,0.609-0.346,0.73-0.502c0.885-0.752,1.277-1.309,1.193-1.653c-0.072-0.286-0.085-0.344-0.986-0.436h-0.007
	c-0.298,0-0.849,0.204-1.29,0.365c-0.861,0.315-1.705,0.598-2.552,0.598l-0.249-0.007c-0.52-0.045-1.098-0.045-1.661-0.045
	c-1.763-0.007-3.149-0.014-3.675-1.025c-0.193-0.372-0.308-0.977,0.236-1.761c1.023-1.464,2.582-2.44,3.422-2.884
	c0.454-0.212,0.91-0.411,1.444-0.648l2.491-1.091c1.704-0.754,1.497-2.204,1.486-2.263c-0.013-0.088-0.034-0.154-0.05-0.202
	c-0.315-0.016-0.679,0.024-1.072,0.062c-0.55,0.048-1.038,0.092-1.476,0.092c-0.471,0-1.722,0-2.178-1.023
	c-0.467-1.044,0.361-2.186,1.233-3.164c0.047-0.046,1.623-1.605,3.245-2.64c1.098-0.627,2.017-0.938,2.909-1.239l0.564-0.195
	c-0.319-0.065-0.794-0.124-1.494-0.15c-0.007,0-0.013,0-0.02,0c-1.03,0-2.323-0.179-2.873-1.015
	c-0.294-0.449-0.328-0.992-0.099-1.527c0.501-0.982,2.306-2.173,3.06-2.639c0.323-0.212,1.802-1.234,2.367-1.802
	c0.55-0.512,0.762-0.777,0.839-0.911c-0.195-0.189-0.59-0.484-0.799-0.641c-0.553-0.413-1.127-0.842-1.54-1.361
	c-0.555-0.687-0.535-1.267-0.417-1.633c0.09-0.289,0.362-0.803,1.164-1.032c0.359-0.069,0.598-0.091,0.857-0.091
	c0.976,0,1.419-1.025,2.497-5.779l0.082-0.355c0.262-1.171,0.491-2.186,1.751-2.196l0.939,0.022l0.181,0.807
	c0.009,0.053,0.465,2.427,1.131,5.081c0.51,1.325,0.918,1.325,1.275,1.325c0.323,0,0.598,0.03,0.844,0.088
	c0.612,0.156,1.036,0.517,1.207,1.018c0.121,0.372,0.15,0.956-0.41,1.656c-0.184,0.227-0.47,0.491-0.782,0.767
	c-0.232,0.206-0.727,0.645-0.822,0.807c-0.032,0.18,0.021,0.255,0.038,0.279c0.107,0.147,0.563,0.417,1.59,0.489
	c1.166,0.079,1.868,0.504,2.088,1.265c0.299,1.042-0.448,2.1-2.576,3.655c-0.054,0.657,1.556,2.164,3.298,3.222
	c1.018,0.766,2.274,1.878,2.129,3.18c-0.127,1.158-1.223,1.66-1.748,1.901l-0.529-0.588l0.348,0.671
	c-0.196,0.102-0.36,0.199-0.49,0.289c1.974,0.866,4.33,3.208,4.355,3.229c0.906,1.016,1.742,2.164,1.274,3.209
	c-0.456,1.022-1.71,1.022-2.182,1.022c-0.43,0-0.915-0.042-1.382-0.082c-0.537-0.048-0.866-0.069-1.164-0.072
	c-0.019,0.046-0.037,0.113-0.05,0.198c-0.011,0.063-0.22,1.521,1.483,2.271l1.762,0.774c2.853,1.253,3.76,1.647,5.095,2.617
	c2.047,1.495,1.999,2.802,1.786,3.449c-0.448,1.368-2.325,1.982-4.752,1.565c-0.355-0.085-2.332-0.458-3.434-0.255
	c-0.559,0.111-0.974,0.222-1.277,0.32c0.285,0.267,1.085,0.862,3.335,1.54c2.532,0.764,6.605,3.443,8.075,4.55
	c1.855,1.392,3.732,3.275,3.94,3.485c0.92,0.952,1.632,1.82,2.123,2.587c1.297,1.539,1.039,2.761,0.764,3.344
	c-0.448,0.963-1.694,1.491-2.647,1.1c-0.085-0.041-0.671-0.318-1.053-0.465c-0.2-0.056-1.683-0.232-1.947-0.236
	c-2.255-0.074-7.739-0.446-11.361-2.34c0.025,0.28,0.098,0.664,0.258,1.055c0.244,0.602,1.306,2.178,2.912,3.81
	c0.378,0.42,0.829,0.833,1.359,1.253c0.651,0.555,1.283,1.005,1.901,1.36c2.046,1.314,4.397,2.694,5.316,3.229
	c1.543,0.897,3.043,2.701,3.801,3.694c1.01,1.325,1.996,4.613,2.51,8.375c0.016,0.822-0.196,1.407-0.612,1.826
	c-0.429,0.432-1.016,0.65-1.752,0.65c-1.194,0-2.494-0.586-3.016-0.897c-0.698-0.469-1.473-0.793-2.337-0.992
	c-1.552-0.366-4.467-1.536-6.6-2.389c-0.937-0.377-1.625-0.65-2.011-0.786c-0.657-0.236-1.22,0.251-1.3,0.373
	c-0.007,0.096,0.122,0.587,0.359,1.01c1.164,2.577,2.83,3.326,5.134,4.368c1.282,0.579,2.694,1.218,4.153,2.24
	c2.855,2.001,3.994,3.547,3.582,4.858c-0.253,0.785-1.018,1.269-2.001,1.269c-0.449,0-0.875-0.096-1.235-0.285
	c-0.156-0.078-0.517-0.21-1.216-0.21c-0.544,0-1.003,0.079-1.06,0.09c-1.024,0.28-1.988,0.421-2.9,0.421
	c-1.768,0-3.012-0.55-4.111-1.037c-0.497-0.222-1.004-0.444-1.539-0.61c0.265,0.458,0.715,1.163,1.239,1.756
	c0.855,0.965,6.207,4.507,8.18,5.412c4.108,1.874,6.747,4.951,8.302,9.676c0.658,2.001,0.722,2.993,0.232,3.67
	c-0.556,0.764-1.762,0.545-2.606,0.151c-0.555-0.255-0.849-0.485-1.11-0.682c-0.531-0.411-0.94-0.727-2.24-0.727l-0.936,0.011
	c-2.123,0-3.719-0.282-5.59-1.728c-0.322-0.247-0.604-0.513-0.853-0.764c-0.047,0.698,0.04,1.721,0.166,2.023
	c0.551,1.092,0.83,1.204,2.646,1.918c1.27,0.503,3.183,1.263,6.125,2.799c3.688,1.933,4.625,4.559,5.025,5.679l0.148,0.403
	c0.24,0.646,0.513,1.369,0.048,2.033c-0.429,0.627-1.195,0.712-1.886,0.712c-0.701,0-1.728-0.098-3.437-0.335
	c-1.74-0.232-4.893-1.299-6.507-2.373c-0.526-0.354-1.685-0.211-2.094,0.251c-0.122,0.14-0.18,0.289-0.18,0.472
	c1.234,2.758,4.302,4.307,6.828,4.618c2.73,0.336,4.373,0.941,5.166,1.904c0.484,0.54,0.725,1.233,0.682,1.986
	c-0.103,1.758-1.741,3.307-2.069,3.599c-0.173,0.208-0.259,0.498-0.2,0.83c0.11,0.598,0.676,1.237,1.139,1.484
	c1.892,0.941,5.278,2.985,6.484,6.024c3.069,7.772,2.765,9.872,2.064,10.901c-0.379,0.562-0.982,0.867-1.697,0.867
	c-1.229,0-2.705-0.926-3.891-1.667l-0.486-0.303c-0.456-0.28-0.987-0.638-1.576-1.032c-2.887-1.948-6.732-4.523-10.22-4.271
	l-0.64,0.047c-4.601,0.365-6.352,0.28-9.033-1.812c-0.364-0.281-0.6-0.398-0.729-0.446c-0.064,0.205-0.106,0.589-0.083,0.876
	l0.007,18.245c0.142,3.348,0.691,6.89,3.696,9.896c0.951,0.951,1.797,1.431,2.776,1.989c1.477,0.836,3.146,1.786,5.388,4.465
	c1.414,1.69,6.557,4.004,9.887,4.056l6.937,0.003v1.515"/>
<g id="g10-9-3" transform="matrix(2.7822953,0,0,-2.7822953,193.76554,1000.6434)" inkscape:export-filename="C:\Users\alex\sites\stanford-university-logo-4.png" inkscape:export-xdpi="99.979874" inkscape:export-ydpi="99.979874">
	<g id="g12-5-9" transform="scale(0.1)">
		<path id="path14-7-0" inkscape:connector-curvature="0" d="M375.84,2510.817c-7.012-8.536-25.164-26.524-62.996-26.524
			c-35.949,0-56.008,12.813-64.817,41.602c-3.601,11.425-3.601,33.867-3.601,47.363c0,37.246,0.387,67.051,0.769,101.562
			l0.137,16.231h-30.691v9.121c12.476,4.805,20.925,9.805,29.148,16.094c18.008,13.945,29.512,31.386,43.32,55.918h10.235v-52.246
			h78.996v-28.887h-78.996v-122.149c0-36.542,6.621-57.324,41.133-57.324c16.093,0,26.726,5.254,33.437,8.75L375.84,2510.817z
			 M1647.99,2517.438c15.88,0,26.66,2.5,38.22,9.394v155.84c-3.79,3.691-17.89,15.566-46.41,15.566
			c-45.29,0-67.26-31.015-67.26-94.824C1572.54,2576.676,1580.55,2517.438,1647.99,2517.438L1647.99,2517.438z M1656.11,2840.699
			c14.07,0,32.37,2.618,54.67,6.524c12.66,2.187,21.17,4.512,25.27,6.133l4.07-2.344c-1.99-19.219-2.01-62.461-2.01-93.106v-189.707
			c0-28.32,0.46-45.839,4.49-51.504c3.65-5.293,12.2-8.867,26.81-8.886v-12.442c-14.68,0-32.03-1.894-50-4.824
			c-11.93-1.953-21.34-3.887-25.82-6.348l-6.36,2.168v19.59c-11.51-8.554-34.48-21.875-64.93-21.875
			c-63.88,0-105.05,44.317-105.05,112.871c0,22.871,4.37,44.493,12.42,62.735c19.61,42.226,60.1,66.406,111.19,66.406
			c18.67,0,35.37-2.344,45.35-4.473v49.493c0,29.003-0.43,44.414-4.63,50.644c-3.24,4.766-8.01,7.109-25.47,8.379L1656.11,2840.699z
			 M1328.77,2712.301c15.8-0.879,32.95,1.016,50.86,4.18c13.83,2.441,22.64,5.449,27.6,7.773l4.23-2.07v-20.196
			c11.2,10.508,28.77,21.582,53.74,21.582c18.22,0,30.31-5.117,40.52-14.355v-7.344l-19.55-35.918h-9.53
			c-6.21,10.84-17.83,21.016-38.75,21.016c-9.86,0-18.07-2.422-25.47-7.363v-117.325c0-30.566,1-45.058,5-51.132
			c6.47-9.825,25.8-10.84,36.88-10.469v-12.891c-15.98,0.879-43.54,2.246-63.32,2.246c-22.5,0-44.69-0.41-63.23-2.461v11.719
			c12.97,0.645,20.26,4.238,25.3,9.902c7.22,8.145,7.58,27.207,7.58,66.778v66.484c0,28.77-0.22,41.192-4.61,47.207
			c-3.83,5.254-12.25,8.321-27.25,8.496V2712.301z M1190.02,2699.645c-13.83,0-24.82-3.575-33.05-10.567
			c-18.59-15.683-28.08-44.062-28.08-84.687c0-15.664,2.91-93.887,60.17-93.887c13.62,0,24.79,3.535,32.82,10.508
			c18.8,15.683,28.24,44.258,28.24,84.863C1250.12,2621.402,1247.19,2699.645,1190.02,2699.645z M1187.11,2483.551
			c-71.04,0-113.5,44.316-113.5,118.301c0,57.656,31.04,124.668,118.38,124.668c71,0,113.3-44.121,113.3-118.262
			C1305.29,2550.875,1274.36,2483.551,1187.11,2483.551z M919.395,2498.824c9.531-0.136,19.648,3.477,25.312,9.844
			c7.188,8.106,7.617,27.734,7.617,67.305v115.39h-30.371v13.067c12.793,4.941,24.024,10.742,30.371,15.722
			c0.039,20.508,0.703,47.149,3.516,61.641c8.965,47.93,40.488,72.402,93.16,72.402c23.27,0,45.36-7.929,58.7-19.316l0.74-4.902
			l-23.09-31.973l-5.66-0.098c-7.85,19.278-19.65,30.332-40.51,30.332c-7.21,0-17.25-2.246-23.46-8.359
			c-9.94-10.019-11.7-24.961-11.7-54.668v-44.961h51.9v-28.887h-51.9v-129.082c0-30.566,1.06-45.586,5.06-51.64
			c6.47-9.746,26.94-10.918,36.99-10.528v-12.324c-17.11,1.035-43.63,2.246-63.472,2.246c-28.848,0-47.657-0.84-63.203-2.461
			L919.395,2498.824z M630.32,2711.481c11.828-0.938,29.614,0.273,47.024,3.281c14.668,2.539,19.98,4.609,30.969,10.137l4.578-2.754
			v-18.477c11.757,8.672,35.351,22.422,67.519,22.422c41.856,0,69.278-19.59,77.051-55.215c2.207-8.828,3.047-30.137,3.047-41.601
			v-67.872c0-38.437,1.523-49.121,8.691-55.996c3.653-3.203,12.207-6.718,22.559-6.718v-10.879
			c-14.922,0.722-41.524,2.226-57.559,2.226c-21.328,0-45.293-1.015-58.242-2.461v10.684c11.543,1.191,19.414,4.551,23.477,8.496
			c6.718,6.738,7.871,20.176,8.867,49.082c0.293,8.613,0.527,26.856,0.527,40.215c0,17.363,0,35.43-2.012,53.164
			c-3.437,30.117-19.277,44.102-49.328,44.102c-21.004,0-33.836-4.786-43.633-9.747v-122.168c0-38.437,1.516-49.121,8.86-55.996
			c3.547-3.203,12.656-6.796,22.441-6.718v-10.899c-19.258,0.996-42.375,2.246-57.207,2.246c-30.937,0-40.664-0.625-58.633-2.461
			v11.055c10.059,0.117,19.825,3.711,25.274,9.922c7.09,7.988,7.512,27.851,7.512,67.422v66.465c0,28.789-0.559,40.976-4.614,47.207
			c-3.164,4.843-11.172,8.711-27.168,8.515L630.32,2711.481z M1.738,2498.121c0,23.379,0.176,43.223-1.738,67.207h13.82
			c0.164-14.824,4.305-25.781,10.731-33.066c9.883-11.113,32.715-17.891,53.906-17.891c44.277,0,64.941,16.817,64.941,52.832
			c0,30.899-19.082,43.692-45.488,61.543l-4.082,2.832l-27.812,18.555c-38.723,25.625-58.535,46.172-58.535,87.187
			c0,20.04,7.676,85.547,105.125,85.547c24.59,0,56.926-2.597,76.438-6.25c-0.215-3.105-0.52-18.105-0.52-30.683
			c0-14.629,0-19.473,0.571-37.364h-11.828c-0.371,15.743-4.688,25.879-11.543,32.676c-9.414,9.356-30.149,13.731-52.071,13.731
			c-51.679,0-57.754-26.485-57.754-46.407c0-27.46,14.043-36.699,44.649-57.011l35.371-23.34c30.027-20,58.328-38.945,58.328-88.77
			c0-84.355-78.582-93.418-112.371-93.418C51.219,2486.031,26.602,2489.82,1.738,2498.121L1.738,2498.121z M522.891,2607.809
			c-30.899-9.317-41.524-14.414-51.004-19.375c-13.559-6.66-20.344-20.371-20.344-36.504c0-12.578,4.504-33.731,34.687-33.731
			c9.981,0,24.297,1.914,36.661,10.782V2607.809z M467.207,2485.543c-63.176,0-67.988,47.734-67.988,62.5
			c0,17.285,4.492,47.813,44.726,62.559c41.493,15.215,50.371,16.992,78.946,25.937v7.481c0,13.808,0,17.109-2.786,25.781
			c-5.425,16.289-21.238,26.699-42.605,26.699c-21.406,0-39.043-11.797-47.012-28.906l-11.66,6.855
			c7.442,26.328,33.875,52.5,79.531,52.5c32.481,0,53.711-9.179,66.641-29.062c9.883-15.723,10.742-37.617,10.742-60.332
			c0-20.078-0.586-42.324-0.969-60.352c-0.339-12.422-0.613-23.105-0.613-29.668c0-16.347,2.598-29.082,16.27-29.082
			c5.633,0,6.758,1.504,11.582,5.391l7.468-8.633c-12.292-16.055-25.82-29.277-48.55-29.277c-18.43,0-31.274,8.828-35.539,23.593
			C515.039,2498.824,496.465,2485.543,467.207,2485.543"/>
		<path id="path16-5-3" inkscape:connector-curvature="0" d="M846.582,2249.274h58.457c0,17.597-3.476,37.656-29.219,37.656
			C851.875,2286.93,847.09,2264.527,846.582,2249.274z M882.617,2149.958c-44.687,0-69.238,25.84-69.238,72.754
			c0,8.262,1.953,80.586,69.961,80.586c20.371,0,37.754-8.359,46.328-22.285c8.633-13.828,9.785-28.067,9.785-40.215v-7.852H846.23
			c0.098-7.617,0.586-13.515,1.504-18.75c5.02-28.671,21.016-42.578,49.024-42.578c15.742,0,25.742,3.36,35.273,8.75l4.414-7.402
			C926.035,2159.391,905.781,2149.958,882.617,2149.958L882.617,2149.958z M395.867,2294.449c7.531-0.605,18.879,0.157,29.992,2.09
			c9.356,1.621,12.762,2.969,19.727,6.485l2.961-1.739v-11.816c7.488,5.527,22.539,14.316,43.094,14.316
			c26.711,0,44.199-12.539,49.121-35.234c1.406-5.645,1.972-19.219,1.972-26.563v-43.339c0-24.473,0.957-31.29,5.547-35.723
			c2.344-2.031,7.782-4.277,14.414-4.277v-6.934c-9.57,0.469-26.504,1.426-36.757,1.426c-13.594,0-28.907-0.605-37.168-1.543v6.777
			c7.363,0.801,12.39,2.949,14.98,5.469c4.297,4.277,5.051,12.851,5.664,31.289c0.176,5.508,0.344,17.148,0.344,25.684
			c0,11.074,0,22.578-1.281,33.886c-2.207,19.258-12.305,28.184-31.497,28.184c-13.367,0-21.558-3.086-27.839-6.27v-77.968
			c0-24.473,0.996-31.29,5.644-35.723c2.266-2.031,8.086-4.316,14.336-4.277v-6.934c-12.305,0.664-27.012,1.426-36.504,1.426
			c-19.707,0-25.957-0.371-37.39-1.543v7.011c6.394,0.078,12.664,2.383,16.121,6.328c4.492,5.117,4.785,17.812,4.785,43.048v42.402
			c0,18.398-0.352,26.133-2.93,30.137c-2.031,3.105-7.156,5.527-17.336,5.41L395.867,2294.449z M722.754,2300.582
			c-2.969,0-9.668-0.39-13.652-0.625c-7.579-0.351-16.172-0.762-21.668-0.762c-10.864,0-27.043,0.977-32.043,1.465v-8.789
			c1.679-0.058,10.214,0.723,14.582-8.691c1.765-3.731,3.347-7.442,3.828-8.672c0.75-1.934,1.695-4.316,2.105-5.195l47.778-120.293
			l14.734,2.539l52.559,118.242c0.371,0.801,1.054,2.109,1.777,3.691c0.664,1.465,1.387,3.301,4.746,9.414
			c3.379,6.055,9.961,9.18,15.41,8.77l0.313,8.984c-6.035-0.41-19.121-1.465-28.789-1.465c-5.079,0-10.254,0.372-15.215,0.704
			c-3.574,0.214-9.961,0.586-13.555,0.683v-8.359c4.766,0.117,10.254-1.934,12.5-4.102c1.25-1.015,2.598-3.691,2.598-5.664
			c0-3.32-0.528-5.996-4.024-14.941l-28.652-70.957c-1.356,4.258-3.32,10.136-6.113,17.519l-20.41,53.34
			c-2.989,8.106-3.711,11.348-3.711,14.883c0,2.031,0.418,3.594,1.933,5.351c2.766,3.067,7.715,4.571,12.813,4.629L722.754,2300.582
			z M1399.39,2166.774c-4.51-5.488-16.05-16.953-40.17-16.953c-22.97,0-35.74,8.145-41.35,26.543
			c-2.32,7.305-2.32,21.602-2.32,30.235c0,23.769,0.19,42.773,0.47,64.824l0.09,10.313h-19.59v5.82
			c8.01,3.066,13.38,6.289,18.64,10.254c11.44,8.926,18.8,20.097,27.61,35.703h6.53v-33.32h50.41v-18.457h-50.41v-77.911
			c0-23.32,4.24-36.601,26.23-36.601c10.31,0,17.07,3.34,21.36,5.605L1399.39,2166.774z M1085.37,2157.106
			c-0.06,15.273-0.88,31.172-1.89,39.219h9.8c0.27-8.359,2.31-14.589,6.41-19.492c5.92-7.207,13.02-9.844,26.17-9.844h1.8
			c16.4,0,24.78,6.914,24.78,20.508c0,11.153-7.13,15.645-18.92,23.106l-21.2,13.105c-11.21,6.895-24.14,17.344-24.14,37.676
			c0,17.383,7.15,29.629,21.27,36.602c9.18,4.589,22.52,5.312,29.65,5.312c12.19,0,29.32-1.602,39.24-3.73
			c-0.68-4.004-0.92-14.473-0.92-17.852c0-3.066,0.2-17.207,0.53-19.766h-9.77c0,6.309-1.66,12.09-5.54,17.09
			c-3.58,4.61-12.56,8.496-23.54,8.496c-15.02,0-22.71-6.386-22.71-18.984c0-10.391,7.99-15.254,15.06-19.531l0.74-0.45
			l19.92-11.835c13.4-7.813,30.12-17.54,30.12-41.426c0-39.141-35.61-45.02-56.86-45.02
			C1111.88,2150.289,1099.22,2152.067,1085.37,2157.106L1085.37,2157.106z M1243.24,2329.43c-11.58,0-19.37,7.422-19.37,18.476
			c0,11.407,8.01,19.121,20,19.121c11.56,0,19.43-7.441,19.43-18.496C1263.3,2337.106,1255.25,2329.43,1243.24,2329.43z
			 M1206.43,2158.786c8.32,0.918,13.36,1.836,17.24,6.23c4.57,5.215,4.87,17.285,4.87,42.851v42.403
			c0,18.32-0.32,27.363-2.97,31.406c-2.39,3.457-6.41,4.844-16.98,5.566v8.535c6.33-0.957,21.66,0.528,34.12,2.95
			c6.45,1.074,12.54,3.203,16.41,5.195l3.32-3.262c-0.94-9.531-1.31-31.074-1.31-58.828v-43.359c0-19.59,0.63-28.633,3.26-32.52
			c2.6-4.043,9.34-6.621,18.17-7.071v-7.07c-8.89,0.528-24.16,1.387-37.42,1.387c-14.83,0-30.65-0.586-38.71-1.523V2158.786z
			 M610.996,2329.43c-11.609,0-19.355,7.422-19.355,18.476c0,11.407,7.976,19.121,19.953,19.121
			c11.597,0,19.453-7.441,19.453-18.496C631.047,2337.106,622.969,2329.43,610.996,2329.43z M574.121,2158.786
			c8.391,0.918,13.399,1.836,17.285,6.23c4.629,5.215,4.883,17.285,4.883,42.851v42.403c0,18.32-0.305,27.363-2.949,31.406
			c-2.402,3.457-6.426,4.844-16.973,5.566v8.535c6.27-0.957,21.621,0.528,34.102,2.95c6.426,1.074,12.5,3.203,16.394,5.195
			l3.305-3.262c-0.91-9.531-1.313-31.074-1.313-58.828v-43.359c0-19.59,0.618-28.633,3.293-32.52
			c2.618-4.043,9.317-6.621,18.211-7.071v-7.07c-8.972,0.528-24.238,1.387-37.488,1.387c-14.812,0-30.605-0.586-38.75-1.523
			V2158.786z M288.906,2149.665c-42.265,0-66.523,13.105-76.308,41.25c-4.871,14.492-4.871,31.504-4.871,46.446v79.57
			c0,24.238-1.106,27.851-5.579,31.836c-1.921,1.719-7.304,4.179-14.335,4.531v8.203c10.078-1.094,26.523-1.523,36.855-1.523
			c17.383,0,26.602,0.468,37.773,1.543v-8.516c-6.699,0.293-12.238-1.582-15.957-5.859c-4.668-5.176-4.902-14.258-4.902-39.571
			v-70.507c0-41.563,3.555-68.848,51.379-68.848c47.527,0,51.102,28.047,51.102,70.703v78.008c0,24.238-1.153,27.851-5.567,31.836
			c-2.715,2.383-8.476,4.219-14.375,4.531v8.066c9.356-0.293,21.348-1.386,32.781-1.386c10.989,0,22.063,0.293,35.332,1.543v-8.516
			c-7,0.293-12.293-1.699-16.004-5.859c-4.675-5.215-4.941-14.258-4.941-39.571v-59.589c0-18.946,0-40.469-6.035-57.11
			C355.039,2162.731,330.801,2149.665,288.906,2149.665z M955.625,2295.074c10.098-0.566,20.977,0.664,32.441,2.676
			c8.829,1.563,14.434,3.477,17.594,4.961l2.72-1.328v-12.871c7.15,6.68,18.36,13.769,34.32,13.769c11.6,0,19.33-3.261,25.84-9.14
			v-4.707l-12.47-22.93h-6.11c-3.94,6.934-11.39,13.438-24.73,13.438c-6.28,0-11.48-1.582-16.23-4.727v-74.863
			c0-19.532,0.65-28.77,3.21-32.618c4.1-6.25,16.4-6.914,23.49-6.699v-8.184c-10.19,0.547-27.77,1.406-40.427,1.406
			c-14.316,0-28.515-0.273-40.273-1.582v7.5c8.262,0.41,12.91,2.695,16.094,6.289c4.609,5.195,4.804,17.383,4.804,42.637v42.402
			c0,18.359-0.117,26.289-2.871,30.117c-2.461,3.36-7.832,5.313-17.402,5.41L955.625,2295.074z M1484.47,2292.438
			c-4.12,0-8.84-1.387-12.05-3.789c-2.58-1.934-3.16-5.157-3.16-7.168c0-3.731,1.33-7.403,3.94-14.551l21.78-57.891
			c3.32-8.652,5.65-15.84,7.21-20.898l26.58,79.179c3.18,9.141,3.71,11.309,3.71,14.688c0,1.953-1.19,4.277-2.62,5.781
			c-2.59,2.5-7.11,3.887-12.44,4.278v8.515c3.19,0,10.2-0.43,13.4-0.683c3.05-0.254,9.41-0.704,14.49-0.704
			c9.9,0,23.6,0.86,29.57,1.465v-8.691c-4-0.508-13.26,0.742-20.54-21.777l-56.9-152.031c-8.3-21.934-18.61-49.239-58.49-49.239
			c-15.9,0-27.43,3.887-35.61,11.875v4.102l14.02,17.09l3.97,0.059c4.22-9.219,11.95-13.066,22.62-13.066
			c18.06,0,25.95,15.527,38.43,48.34l3.4,8.965l-48.42,123.77c-0.41,0.879-1.03,2.597-1.81,4.551c-1.35,3.359-3.97,9.16-3.97,9.16
			c-2.77,5.84-8.26,8.359-14.49,8.105v8.789c9.2-0.742,24.88-1.465,33.07-1.465c5.41,0,13.45,0.411,20.58,0.762
			c3.99,0.235,10.61,0.528,13.73,0.625L1484.47,2292.438"/>
	</g>
</g>
</svg>
