<?xml version="1.0" encoding="utf-8"?>
<!-- Generator: Adobe Illustrator 23.1.1, SVG Export Plug-In . SVG Version: 6.00 Build 0)  -->
<svg version="1.1" id="layer" xmlns="http://www.w3.org/2000/svg" xmlns:xlink="http://www.w3.org/1999/xlink" x="0px" y="0px"
	 viewBox="0 0 652 652" enable-background="new 0 0 652 652" xml:space="preserve">
<path d="M87.2,239.7l-7.6,17.2L72,239.7H22.3v99.8c0,6.6,3.7,29.1,57.3,29.1c53.6,0,57.3-22.5,57.3-29.1v-99.8H87.2z M122.5,316.4
	c-2.4,1.3-3.6,2.8-3.6,4.7v8.5c-0.3,6.7,1.9,22.9-39.4,22.9c-41.1,0-39.2-16.2-39.4-22.9v-8.5c0-1.9-1.2-3.4-3.6-4.7v-6.8h30.4v6.9
	c-2.4,1.3-3.6,2.8-3.6,4.7v9.5c0.1,1.5-1.1,7.5,16.1,7.5c17.2,0,16.2-6,16.3-7.5v-9.5c0-1.9-1.2-3.4-3.6-4.7v-6.9h30.4V316.4z
	 M122.6,261.2c-2.4,1.3-3.6,2.8-3.6,4.7v20.3c0,1.9,1.2,3.4,3.6,4.7v7.8H95.7v-7.9c2.4-1.3,3.6-2.8,3.6-4.7v-15.4l-16.4,28h-6.6
	l-16.4-28v15.4c0,1.9,1.2,3.4,3.6,4.7v7.9H36.6V291c2.4-1.3,3.6-2.8,3.6-4.7V266c0-1.9-1.2-3.5-3.6-4.7V254h28.8l14.2,26.1L93.8,254
	h28.8V261.2z"/>
<g>
	<g>
		<path d="M282.3,239.4c0.4-1.1,0.8-1.5,1.6-1.5c0.7,0,10.6,0.5,13.7,0.5c2.3,0,13.8-0.5,14.8-0.5c1.4,0,1.5,1.1,1.5,2.3
			s-0.5,1.8-1.6,1.8c-12.2,0-13.7,1-13.7,7.2c0,8.8,1.5,37.3,2.8,75.3c0.1,4.6,3.9,6.4,7.5,6.4c7.6,0,7.7,0.8,7.7,1.8
			c0,2-0.7,2.3-1.5,2.3c-1.2,0-2.7-0.3-21.6-0.3c-17.7,0-18.5,0.3-19.6,0.3c-1.5,0-1.5-0.9-1.5-2.2c0-0.9,0.3-1.9,6.5-1.9
			c9,0,9.1-2.2,9.1-7.6c0-8.1-2-52-3.1-77.4h-0.3c-9.9,25.4-22.4,54.6-31.4,76.4c-5.2,12.5-5.2,14-6.9,14c-1.8,0-2-1.2-4.9-10.6
			c-3-9.8-25.1-69.8-25.7-69.8c-2.3,9.9-11.3,55-11.3,68.6c0,4.2,2.3,6.4,6.8,6.4c3.4,0,7.3,0.3,7.3,1.1c0,2.6,0,3-1.5,3
			c-1.1,0-2.4-0.3-16.4-0.3c-12.4,0-13.3,0.3-14.1,0.3c-1.1,0-1.5-0.1-1.5-2.3c0-1.4,0.7-1.8,7.2-1.8c4.7,0,5.7-1.8,7.2-9.5
			c3.7-19.6,6.9-39.2,11.1-58.8c1.4-6.1,1.8-9.9,1.8-12.8c0-0.8-1.9-5.8-3.5-6.8c-1.1-0.7-7.5-1.1-11.7-1.1c-1.6,0-1.6-1.1-1.6-2
			c0-1.1,0.3-2,1.5-2c2.6,0,14.3,0.5,15.8,0.5c3.5,0,9.2-0.5,11-0.5c1.5,0,1.9,1.5,3.3,6.4c2.8,10.2,22.5,65.2,25,70.2
			C262.4,290.4,272.7,265.6,282.3,239.4z"/>
		<path d="M342.8,322c0,7.7,0.3,9.4,6.2,9.4c3,0,3.3,0.1,3.3,1.8c0,0.8,0,1.8-1.4,1.8c-0.7,0-2.4-0.3-11.3-0.3
			c-12.8,0-16.3,0.3-18.3,0.3c-1.1,0-1.1-0.8-1.1-1.5c0-1.8,0.1-2,5.2-2c3.5,0,4.7-1.4,5.6-3.3c0.5-1.2,0.8-10.9,0.8-19.6V290
			c0-4.7-1.2-7.5-8-8.1c-1.1-0.1-1.2-0.7-1.2-1.6c0-1.1,0.4-1.8,1.1-1.9c15.5-3.1,17.4-6.7,19-6.7c0.5,0,0.8,0.7,0.8,1.5
			c0,0.5-0.7,1.9-0.7,19.6V322L342.8,322z M330.1,245.6c0-3.7,3-7.2,7.1-7.2s7.1,3.5,7.1,7.2s-3,7.2-7.1,7.2
			S330.1,249.3,330.1,245.6z"/>
		<path d="M393.1,330.6c6.7,0,10,0,12.8-4.9l4.5-7.5c1.6-2.7,1.9-3.4,3.5-3.4c0.8,0,1.5,0.5,1.5,1.5c0,0.5-2.4,8-4.3,16.3
			c-0.5,2.3-2.2,2.3-3.9,2.3c-1.8,0-6.7-0.3-14.3-0.3h-29.6c-1.2,0-1.8-0.4-1.8-1.1c0-0.5,0.4-1.1,0.8-1.8
			c9.5-17,21.5-34.5,33.5-51.6c-4.6-0.1-7.5-0.3-10.6-0.3c-7.5,0-14.7,0.1-18.2,8.3c-1.6,3.8-2.3,4.1-3.7,4.1
			c-0.7,0-1.5-0.4-1.5-1.2c0-1.9,2.7-9.2,3.4-16.8c0-0.4,0.4-1.4,1.4-1.4c1.4,0,2.4,1.9,3.4,2.6c0.9,0.7,6.1,0.7,10.6,0.7
			c14.9,0,27.4-0.7,29.2-0.7c0.3,0,1.2,0.3,1.2,0.7c0,1.2-4.6,5.6-15.6,22.8c-2.3,3.7-13,18.9-20.9,31.6L393.1,330.6L393.1,330.6z"
			/>
		<path d="M453.4,330.6c6.7,0,10,0,12.8-4.9l4.5-7.5c1.6-2.7,1.9-3.4,3.5-3.4c0.8,0,1.5,0.5,1.5,1.5c0,0.5-2.4,8-4.3,16.3
			c-0.5,2.3-2.2,2.3-3.9,2.3s-6.7-0.3-14.3-0.3h-29.6c-1.2,0-1.8-0.4-1.8-1.1c0-0.5,0.4-1.1,0.8-1.8c9.5-17,21.5-34.5,33.5-51.6
			c-4.6-0.1-7.5-0.3-10.6-0.3c-7.5,0-14.7,0.1-18.2,8.3c-1.6,3.8-2.3,4.1-3.7,4.1c-0.7,0-1.5-0.4-1.5-1.2c0-1.9,2.7-9.2,3.4-16.8
			c0-0.4,0.4-1.4,1.4-1.4c1.4,0,2.4,1.9,3.4,2.6c0.9,0.7,6.1,0.7,10.6,0.7c14.9,0,27.4-0.7,29.2-0.7c0.3,0,1.2,0.3,1.2,0.7
			c0,1.2-4.6,5.6-15.6,22.8c-2.3,3.7-13,18.9-20.9,31.6L453.4,330.6L453.4,330.6z"/>
		<path d="M513.1,336.6c-18.6,0-31.5-13.4-31.5-31.5c0-17.9,13.4-31.5,31.5-31.5c18.2,0,31.6,13.2,31.6,31.5
			C544.7,324.1,532.1,336.6,513.1,336.6z M513.1,277.1c-14.1,0-18.6,14.7-18.6,28c0,11.5,2.7,28,18.6,28c16,0,18.7-16.4,18.7-28
			C531.9,291.8,527.4,277.1,513.1,277.1z"/>
		<path d="M561.7,292.6c0-11.9-1.4-12.8-8.4-12.8c-1.1,0-3,0-3-1.4c0-1.1,0-2.7,1.5-2.7c1.4,0,3.5,0.4,8,0.4c4.8,0,9.9-0.4,11.8-0.4
			c0.8,0,1.1,0,1.1,1.9v36.7c0,10.2,3.3,16,13.3,16c4.9,0,13.4-3,13.4-7.2V288c0-7.3-1.4-8.1-8.4-8.1c-2.4,0-4.3,0-4.3-1.4
			c0-2,0-2.7,0.9-2.7c1.9,0,3.5,0.4,11.8,0.4c3.4,0,6.9-0.4,10.3-0.4c1.2,0,1.9,0.5,1.9,1.9c0,0.5-1.2,11-1.2,20.6v25.5
			c0,2.2,0,5,3.4,5c1.9,0,4.9-0.5,5.8-0.5c0.5,0,0.8,0,0.8,2.6c0,0.8-0.1,1.1-4.5,1.8c-11.5,1.9-14.8,3.5-15.6,3.5
			c-0.9,0-1.6-0.9-1.6-1.9c0-1.6,0.3-3.8,0.4-5.2c-6.8,5-15.1,7.5-20.2,7.5c-13.4,0-17.2-8.7-17.2-22.8V292.6L561.7,292.6z"/>
	</g>
	<g>
		<path d="M195.1,380.5c0,6,2.5,11.3,10.1,11.3c5.3,0,9.8-2.9,9.8-13.7v-8.9c0-6.3-1.3-6.3-6-6.3c-0.4,0-0.4-0.3-0.4-0.7
			c0-0.5,0.1-0.7,0.4-0.7c0.8,0,3.7,0.2,6.6,0.2c1.4,0,5.2-0.2,5.9-0.2c0.5,0,0.6,0.1,0.6,0.8c0,0.2,0,0.6-0.4,0.6
			c-4.3,0-5.2,0-5.2,5.3V379c0,12.2-7.8,15.4-13,15.4c-10.1,0-12.9-6.8-12.9-11.7v-10.3c0-3.2,0-4.3-0.1-6.4c0-2.7-0.8-3-4.7-3
			c-0.5,0-0.5-0.4-0.5-0.8c0-0.3,0.1-0.6,0.4-0.6c0.4,0,4.3,0.2,7.1,0.2c2.9,0,6.8-0.2,7.2-0.2c0.3,0,0.4,0.3,0.4,0.6
			c0,0.4,0,0.8-0.5,0.8c-3.9,0-4.7,0.4-4.7,3c0,2.1-0.1,3.2-0.1,6.4C195.1,372.3,195.1,380.5,195.1,380.5z"/>
		<path d="M229.8,389.6c0,2.6,0.1,3.1,2.1,3.1c1.2,0,1.3,0,1.3,0.6c0,0.3,0,0.6-0.5,0.6c-0.2,0-0.8-0.1-4-0.1
			c-4.2,0-5.4,0.1-6.1,0.1c-0.4,0-0.4-0.3-0.4-0.5c0-0.6,0-0.7,1.7-0.7c1.2,0,1.6-0.5,1.8-1.1c0.2-0.4,0.3-3.6,0.3-6.5v-6.2
			c0-1.6-0.4-2.5-2.7-2.7c-0.4,0-0.4-0.2-0.4-0.5c0-0.4,0.1-0.6,0.4-0.6c5.1-1,5.8-2.2,6.3-2.2c0.1,0,0.1,0.1,0.1,0.5
			c0,0.3-0.1,1.3-0.1,3.2c2.3-1.6,4.6-3.1,7.1-3.1c1.5,0,6,0.3,6,6.8v10.8c0,0.8,0.1,1.6,2.9,1.6c0.5,0,0.5,0.3,0.5,0.6
			c0,0.3,0,0.6-0.6,0.6c-1.4,0-2.2-0.1-4.6-0.1c-3.7,0-4.4,0.1-4.7,0.1s-0.3-0.3-0.3-0.5s0.1-0.6,0.6-0.6c2.2,0,2.6-0.2,2.6-1.7V383
			c0-4.2-0.4-7-5.1-7c-1.7,0-4.1,1.5-4.3,2.1L229.8,389.6L229.8,389.6z"/>
		<path d="M255.1,389.6c0,2.6,0.1,3.1,2.1,3.1c1,0,1.1,0,1.1,0.6c0,0.3,0,0.6-0.5,0.6c-0.2,0-0.8-0.1-3.7-0.1
			c-4.2,0-5.4,0.1-6.1,0.1c-0.4,0-0.4-0.3-0.4-0.5c0-0.6,0-0.7,1.7-0.7c1.2,0,1.6-0.5,1.8-1.1c0.2-0.4,0.3-3.6,0.3-6.5v-6.2
			c0-1.6-0.4-2.5-2.7-2.7c-0.4,0-0.4-0.2-0.4-0.5c0-0.4,0.1-0.6,0.4-0.6c5.1-1,5.8-2.2,6.3-2.2c0.2,0,0.3,0.2,0.3,0.5
			c0,0.2-0.2,0.6-0.2,6.5L255.1,389.6L255.1,389.6z M250.9,364.2c0-1.2,1-2.4,2.3-2.4c1.4,0,2.3,1.2,2.3,2.4c0,1.2-1,2.4-2.3,2.4
			S250.9,365.4,250.9,364.2z"/>
		<path d="M275.8,376.7c0-1.3-2.3-1.3-3-1.3c-0.3,0-0.4-0.3-0.4-0.6c0-0.2,0.2-0.5,0.6-0.5c1.2,0,2.6,0.1,3.9,0.1s2.7-0.1,4-0.1
			c0.3,0,0.4,0.3,0.4,0.5c0,0.3,0,0.5-0.5,0.5c-2.6,0.4-2.8,0.6-4.2,4.1c-1.6,3.9-4.3,9.6-5.1,11.5c-1.3,3-1.7,3.6-2,3.6
			c-0.5,0-0.8-0.9-1.7-2.9c-1.6-3.4-5.3-14.4-6-15.3c-0.5-0.7-0.9-0.7-1.6-0.7c-1.2,0-1.4-0.1-1.4-0.8c0-0.3,0.2-0.5,0.5-0.5
			c1.4,0,2.8,0.1,4.3,0.1c0.9,0,4.5-0.1,5.4-0.1c0.3,0,0.4,0.4,0.4,0.6s-0.2,0.5-0.5,0.5c-1.4,0-2.6,0.1-2.6,1.1
			c0,1.5,3.7,10.6,4.6,12.6C275.1,379.6,275.8,377.9,275.8,376.7z"/>
		<path d="M284.6,381.6c-0.1,0.9-0.2,1.7-0.2,2.6c0,2.9,2.5,7.4,7.4,7.4c2.1,0,3.8-0.6,5.3-2.7c0.3-0.4,0.5-0.8,0.7-0.8
			c0.3,0,0.7,0.4,0.7,0.5s-1.8,5.7-7.8,5.7c-6.5,0-9.8-4-9.8-10.3c0-6.5,4.4-10.8,9-10.8c7.5,0,8.1,6.4,8.1,7.8
			c0,0.5-0.2,0.5-0.5,0.5L284.6,381.6L284.6,381.6z M292.4,380.2c0.9,0,1.5-0.3,1.5-1.5c0-3.5-2.4-4.3-4-4.3c-3.2,0-4.6,2.7-5.1,5.8
			H292.4z"/>
		<path d="M304.3,378.9c0-1.6-0.4-2.5-2.7-2.7c-0.4,0-0.4-0.2-0.4-0.5c0-0.4,0.1-0.6,0.4-0.6c5.1-1,5.8-2.2,6.3-2.2
			c0.1,0,0.2,0.3,0.2,0.5c0,0.5-0.2,1.7-0.2,4.1c1.5-1.7,3.9-3.9,6.3-3.9c1.6,0,2.9,0.9,2.9,2.5c0,1.2-0.9,2.3-2.2,2.3
			c-1.8,0-2.1-1.7-3.5-1.7c-0.8,0-2,0.7-3.1,1.9c-0.3,0.4-0.3,0.9-0.3,1.3V390c0,1.7,0,2.7,2.3,2.7c1.7,0,1.9,0,1.9,0.5
			c0,0.6-0.2,0.6-0.7,0.6c-1.6,0-3.1-0.1-5.1-0.1c-3.6,0-4.4,0.1-5.2,0.1c-0.3,0-0.4-0.3-0.4-0.6c0-0.5,0.5-0.6,1.4-0.6
			c1.9,0,2.3-0.4,2.3-2.3v-11.4H304.3z"/>
		<path d="M332.5,388.3c0,2.2-1.2,6.1-7.4,6.1c-0.8,0-3.4-0.4-5.2-0.4c-0.1,0-0.2-0.1-0.2-0.2c0-0.4-1-4.4-1-4.9
			c0-0.3,0.6-0.3,0.8-0.3c1.1,0,1.4,4.6,5.7,4.6c3.2,0,4.1-2.4,4.1-4c0-4.7-10.1-3.2-10.1-9.6c0-3.7,3.1-6.1,6.9-6.1
			c2.1,0,4.7,0.4,4.9,0.4c0.6,0.1,0.7,1,0.7,1.3c0.1,1.8,0.5,3,0.5,3.6c0,0.3-0.3,0.4-0.5,0.4c-0.4,0-0.7,0-0.9-0.6
			c-0.3-0.8-1.5-3.8-4.7-3.8c-2.1,0-3.6,1.2-3.6,3.4c0,1.6,1.1,2.5,2.1,3C329.2,383.3,332.5,383.2,332.5,388.3z"/>
		<path d="M342.2,389.6c0,2.6,0.1,3.1,2.1,3.1c1,0,1.1,0,1.1,0.6c0,0.3,0,0.6-0.5,0.6c-0.2,0-0.8-0.1-3.7-0.1
			c-4.2,0-5.4,0.1-6.1,0.1c-0.4,0-0.4-0.3-0.4-0.5c0-0.6,0-0.7,1.7-0.7c1.2,0,1.6-0.5,1.9-1.1c0.2-0.4,0.3-3.6,0.3-6.5v-6.2
			c0-1.6-0.4-2.5-2.7-2.7c-0.4,0-0.4-0.2-0.4-0.5c0-0.4,0.1-0.6,0.4-0.6c5.1-1,5.8-2.2,6.3-2.2c0.2,0,0.3,0.2,0.3,0.5
			c0,0.2-0.2,0.6-0.2,6.5C342.2,379.8,342.2,389.6,342.2,389.6z M338,364.2c0-1.2,1-2.4,2.3-2.4s2.3,1.2,2.3,2.4
			c0,1.2-1,2.4-2.3,2.4S338,365.4,338,364.2z"/>
		<path d="M353.1,385.8c0,4.8,0.4,6.5,4,6.5c1.5,0,2.9-1,3.1-1s0.5,0.5,0.5,0.7s-1.9,2.4-6,2.4c-5.2,0-5.2-4.5-5.2-5.6v-11.9
			c0-0.4-0.1-0.6-0.5-0.6h-2.3c-0.1,0-0.3-0.1-0.3-0.4c0-0.2,0-0.5,0.3-0.6c4.2-3.2,5.1-5.5,6-5.5c0.3,0,0.5,0.2,0.5,0.6
			c0,0.8-0.1,1.6-0.1,4.1h6.9c0.3,0,0.5,0.3,0.5,0.9s-0.3,1.1-1.2,1.1c-0.3,0-2.4-0.2-6.2-0.2L353.1,385.8L353.1,385.8z"/>
		<path d="M380.4,376.9c0-1.5-2.1-1.5-3.5-1.5c-0.4,0-0.4-0.2-0.4-0.6c0-0.3,0.2-0.6,0.4-0.6c1.4,0,2.9,0.1,4.4,0.1
			c1.4,0,2.8-0.1,4.2-0.1c0.3,0,0.3,0.4,0.3,0.6c0,0.4-0.1,0.5-0.8,0.6c-1.5,0.1-2.2,0.4-2.8,2c-1.6,3.7-7.9,16.8-8.8,19.4
			c-3.5,8.7-5,9.3-6.4,9.3s-2.5-1.3-2.5-2.7c0-1.4,1.3-2.4,2.6-2.4c1.1,0,1.7,0.8,2.3,0.8c0.8,0,2.9-4.3,2.9-6.4
			c0-1.1-1.1-3.8-1.6-5.1c-2.8-7.3-3.7-11.2-4.6-13.8c-0.4-1-2.7-1-3.2-1c-0.3,0-0.4-0.3-0.4-0.6c0-0.4,0.2-0.5,0.5-0.5
			c0.5,0,3.4,0.1,5,0.1c1.5,0,3.1-0.1,4.5-0.1c0.5,0,0.5,0.3,0.5,0.6c0,0.2-0.1,0.6-0.5,0.6c-0.3,0-2.2,0-2.2,1
			c0,2.2,1.5,6.6,4.5,14.2C376.6,386.3,380.4,378.3,380.4,376.9z"/>
		<path d="M408.6,394.4c-6.2,0-10.5-4.5-10.5-10.5s4.5-10.5,10.5-10.5s10.5,4.4,10.5,10.5C419.1,390.2,414.9,394.4,408.6,394.4z
			 M408.6,374.6c-4.7,0-6.2,4.9-6.2,9.3c0,3.8,0.9,9.3,6.2,9.3c5.3,0,6.2-5.5,6.2-9.3C414.8,379.5,413.4,374.6,408.6,374.6z"/>
		<path d="M429.4,390c0,1.7,0,2.7,2.3,2.7c1.7,0,1.9,0,1.9,0.5c0,0.6-0.2,0.6-0.7,0.6c-1.6,0-3.1-0.1-5.1-0.1
			c-3.6,0-4.4,0.1-4.8,0.1c-0.3,0-0.4-0.3-0.4-0.6c0-0.5,0.1-0.6,0.9-0.6c1.9,0,2.3-0.4,2.3-2.3v-12.6c0-0.5,0-1.4-0.9-1.4h-2.5
			c-0.3,0-0.5,0-0.5-0.6c0-0.4,0.3-0.5,1.4-0.8c1.8-0.4,2.2-0.5,2.3-2.5c0.5-6.9,2.5-10.6,7.8-12c0.7-0.2,1.9-0.4,2.8-0.4
			c1.2,0,2.8,0.5,2.8,1.9c0,1.3-0.8,2.2-2.1,2.2c-0.4,0-1.4-0.1-2.5-1c-0.8-0.6-1.6-1-2-1c-2.6,0-3,3.7-3,6.5v5.8h5.6
			c0.3,0,0.5,0.3,0.5,0.9s-0.3,1.1-1.2,1.1c-0.3,0-3.8-0.2-4.8-0.2V390H429.4z"/>
		<path d="M485.4,362.1c0.1-0.4,0.3-0.5,0.5-0.5s3.5,0.2,4.6,0.2c0.8,0,4.6-0.2,4.9-0.2c0.5,0,0.5,0.4,0.5,0.8s-0.2,0.6-0.5,0.6
			c-4.1,0-4.6,0.3-4.6,2.4c0,2.9,0.5,12.4,0.9,25c0,1.5,1.3,2.1,2.5,2.1c2.5,0,2.6,0.3,2.6,0.6c0,0.7-0.2,0.8-0.5,0.8
			c-0.4,0-0.9-0.1-7.2-0.1c-5.9,0-6.1,0.1-6.5,0.1c-0.5,0-0.5-0.3-0.5-0.7c0-0.3,0.1-0.6,2.2-0.6c3,0,3-0.7,3-2.5
			c0-2.7-0.7-17.3-1-25.7h-0.1c-3.3,8.4-7.4,18.1-10.4,25.4c-1.7,4.1-1.7,4.6-2.3,4.6c-0.6,0-0.7-0.4-1.6-3.5
			c-1-3.2-8.3-23.2-8.5-23.2c-0.8,3.3-3.7,18.3-3.7,22.8c0,1.4,0.8,2.1,2.3,2.1c1.1,0,2.4,0.1,2.4,0.4c0,0.9,0,1-0.5,1
			c-0.4,0-0.8-0.1-5.5-0.1c-4.1,0-4.4,0.1-4.7,0.1c-0.4,0-0.5,0-0.5-0.8c0-0.5,0.2-0.6,2.4-0.6c1.6,0,1.9-0.6,2.4-3.2
			c1.2-6.5,2.3-13,3.7-19.5c0.5-2,0.6-3.3,0.6-4.2c0-0.3-0.6-1.9-1.2-2.3c-0.4-0.2-2.5-0.4-3.9-0.4c-0.5,0-0.5-0.4-0.5-0.7
			c0-0.4,0.1-0.7,0.5-0.7c0.9,0,4.7,0.2,5.2,0.2c1.2,0,3.1-0.2,3.7-0.2c0.5,0,0.6,0.5,1.1,2.1c0.9,3.4,7.5,21.7,8.3,23.3
			C478.7,379.1,482.2,370.8,485.4,362.1z"/>
		<path d="M505.4,389.6c0,2.6,0.1,3.1,2.1,3.1c1,0,1.1,0,1.1,0.6c0,0.3,0,0.6-0.5,0.6c-0.2,0-0.8-0.1-3.7-0.1
			c-4.2,0-5.4,0.1-6.1,0.1c-0.4,0-0.4-0.3-0.4-0.5c0-0.6,0-0.7,1.7-0.7c1.2,0,1.6-0.5,1.8-1.1c0.2-0.4,0.3-3.6,0.3-6.5v-6.2
			c0-1.6-0.4-2.5-2.7-2.7c-0.4,0-0.4-0.2-0.4-0.5c0-0.4,0.1-0.6,0.4-0.6c5.1-1,5.8-2.2,6.3-2.2c0.2,0,0.3,0.2,0.3,0.5
			c0,0.2-0.2,0.6-0.2,6.5L505.4,389.6L505.4,389.6z M501.2,364.2c0-1.2,1-2.4,2.3-2.4c1.4,0,2.3,1.2,2.3,2.4c0,1.2-1,2.4-2.3,2.4
			S501.2,365.4,501.2,364.2z"/>
		<path d="M524.9,388.3c0,2.2-1.2,6.1-7.4,6.1c-0.8,0-3.4-0.4-5.2-0.4c-0.1,0-0.2-0.1-0.2-0.2c0-0.4-1-4.4-1-4.9
			c0-0.3,0.6-0.3,0.8-0.3c1.1,0,1.4,4.6,5.7,4.6c3.2,0,4.1-2.4,4.1-4c0-4.7-10.1-3.2-10.1-9.6c0-3.7,3.1-6.1,6.9-6.1
			c2.1,0,4.7,0.4,4.9,0.4c0.6,0.1,0.7,1,0.7,1.3c0.1,1.8,0.5,3,0.5,3.6c0,0.3-0.3,0.4-0.5,0.4c-0.4,0-0.7,0-0.9-0.6
			c-0.3-0.8-1.5-3.8-4.7-3.8c-2.1,0-3.6,1.2-3.6,3.4c0,1.6,1.1,2.5,2.1,3C521.7,383.3,524.9,383.2,524.9,388.3z"/>
		<path d="M541.6,388.3c0,2.2-1.2,6.1-7.4,6.1c-0.8,0-3.4-0.4-5.2-0.4c-0.1,0-0.2-0.1-0.2-0.2c0-0.4-1-4.4-1-4.9
			c0-0.3,0.6-0.3,0.8-0.3c1.1,0,1.4,4.6,5.7,4.6c3.2,0,4.1-2.4,4.1-4c0-4.7-10.1-3.2-10.1-9.6c0-3.7,3.1-6.1,6.9-6.1
			c2.1,0,4.7,0.4,4.9,0.4c0.6,0.1,0.7,1,0.7,1.3c0.1,1.8,0.5,3,0.5,3.6c0,0.3-0.3,0.4-0.5,0.4c-0.4,0-0.7,0-0.9-0.6
			c-0.3-0.8-1.5-3.8-4.7-3.8c-2.1,0-3.6,1.2-3.6,3.4c0,1.6,1.1,2.5,2.1,3C538.4,383.3,541.6,383.2,541.6,388.3z"/>
		<path d="M555.4,394.4c-6.2,0-10.5-4.5-10.5-10.5s4.5-10.5,10.5-10.5s10.5,4.4,10.5,10.5C565.9,390.2,561.7,394.4,555.4,394.4z
			 M555.4,374.6c-4.7,0-6.2,4.9-6.2,9.3c0,3.8,0.9,9.3,6.2,9.3s6.2-5.5,6.2-9.3C561.6,379.5,560.1,374.6,555.4,374.6z"/>
		<path d="M571.5,379.8c0-4-0.5-4.2-2.8-4.2c-0.4,0-1,0-1-0.5c0-0.4,0-0.9,0.5-0.9s1.2,0.1,2.7,0.1c1.6,0,3.3-0.1,3.9-0.1
			c0.3,0,0.4,0,0.4,0.6V387c0,3.4,1.1,5.3,4.4,5.3c1.6,0,4.5-1,4.5-2.4v-11.7c0-2.4-0.5-2.7-2.8-2.7c-0.8,0-1.4,0-1.4-0.5
			c0-0.7,0-0.9,0.3-0.9c0.6,0,1.2,0.1,3.9,0.1c1.1,0,2.3-0.1,3.4-0.1c0.4,0,0.6,0.2,0.6,0.6c0,0.2-0.4,3.7-0.4,6.9v8.5
			c0,0.7,0,1.7,1.1,1.7c0.6,0,1.6-0.2,1.9-0.2c0.2,0,0.3,0,0.3,0.9c0,0.3,0,0.4-1.5,0.6c-3.8,0.6-4.9,1.2-5.2,1.2s-0.5-0.3-0.5-0.6
			c0-0.5,0.1-1.3,0.1-1.7c-2.3,1.7-5,2.5-6.7,2.5c-4.5,0-5.7-2.9-5.7-7.6V379.8L571.5,379.8z"/>
		<path d="M596.1,378.9c0-1.6-0.4-2.5-2.7-2.7c-0.4,0-0.4-0.2-0.4-0.5c0-0.4,0.1-0.6,0.4-0.6c5.1-1,5.8-2.2,6.3-2.2
			c0.1,0,0.2,0.3,0.2,0.5c0,0.5-0.2,1.7-0.2,4.1c1.5-1.7,3.9-3.9,6.3-3.9c1.6,0,2.9,0.9,2.9,2.5c0,1.2-0.9,2.3-2.2,2.3
			c-1.8,0-2.1-1.7-3.5-1.7c-0.8,0-2,0.7-3.1,1.9c-0.3,0.4-0.3,0.9-0.3,1.3V390c0,1.7,0,2.7,2.3,2.7c1.7,0,1.9,0,1.9,0.5
			c0,0.6-0.2,0.6-0.7,0.6c-1.6,0-3.1-0.1-5.1-0.1c-3.6,0-4.4,0.1-5.2,0.1c-0.3,0-0.4-0.3-0.4-0.6c0-0.5,0.5-0.6,1.4-0.6
			c1.9,0,2.3-0.4,2.3-2.3v-11.4H596.1z"/>
		<path d="M617.3,389.6c0,2.6,0.1,3.1,2.1,3.1c1,0,1.1,0,1.1,0.6c0,0.3,0,0.6-0.5,0.6c-0.2,0-0.8-0.1-3.7-0.1
			c-4.2,0-5.4,0.1-6.1,0.1c-0.4,0-0.4-0.3-0.4-0.5c0-0.6,0-0.7,1.7-0.7c1.2,0,1.6-0.5,1.8-1.1c0.2-0.4,0.3-3.6,0.3-6.5v-6.2
			c0-1.6-0.4-2.5-2.7-2.7c-0.4,0-0.4-0.2-0.4-0.5c0-0.4,0.1-0.6,0.4-0.6c5.1-1,5.8-2.2,6.3-2.2c0.2,0,0.3,0.2,0.3,0.5
			c0,0.2-0.2,0.6-0.2,6.5L617.3,389.6L617.3,389.6z M613.1,364.2c0-1.2,1-2.4,2.3-2.4c1.4,0,2.3,1.2,2.3,2.4c0,1.2-1,2.4-2.3,2.4
			S613.1,365.4,613.1,364.2z"/>
	</g>
</g>
</svg>
